<svg width="18" height="14" viewBox="0 0 18 14" fill="none" xmlns="http://www.w3.org/2000/svg">
    <path
        d="M13.5 4.42857V2.71429C13.5 1.76751 12.7325 1 11.7857 1H3.21429C2.26751 1 1.5 1.76751 1.5 2.71429V7.85714C1.5 8.80392 2.26751 9.57143 3.21429 9.57143H4.92857M6.64286 13H15.2143C16.1611 13 16.9286 12.2325 16.9286 11.2857V6.14286C16.9286 5.19608 16.1611 4.42857 15.2143 4.42857H6.64286C5.69608 4.42857 4.92857 5.19608 4.92857 6.14286V11.2857C4.92857 12.2325 5.69608 13 6.64286 13ZM12.6429 8.71429C12.6429 9.66106 11.8753 10.4286 10.9286 10.4286C9.9818 10.4286 9.21429 9.66106 9.21429 8.71429C9.21429 7.76751 9.9818 7 10.9286 7C11.8753 7 12.6429 7.76751 12.6429 8.71429Z"
        stroke="#8A91A8" stroke-width="1.5" stroke-linecap="round" stroke-linejoin="round" />
</svg>