<svg width="15" height="14" viewBox="0 0 15 14" fill="none" xmlns="http://www.w3.org/2000/svg">
    <path
        d="M5.92032 0.0140459C6.32476 -0.0886204 6.58998 0.3936 6.36909 0.742044C5.79187 1.65124 5.4859 2.70619 5.48709 3.78314C5.48709 6.9728 8.12531 9.55813 11.3803 9.55813C12.2105 9.55948 13.032 9.38783 13.7922 9.05413C14.1725 8.88613 14.626 9.20813 14.4673 9.58613C13.3846 12.1761 10.7869 14 7.75353 14C3.74721 14 0.5 10.8181 0.5 6.89269C0.5 3.58792 2.80221 0.80971 5.92032 0.0140459ZM5.92032 0.0140459L6.05524 0.542785L6.36908 0.742034L6.05533 0.543139L6.10576 0.740759C5.85909 0.803702 5.61824 0.880402 5.38409 0.969956M5.92032 0.0140459L6.0544 0.542253L5.73592 0.340058C5.73583 0.3402 5.73574 0.340343 5.73565 0.340486M5.73565 0.340486C5.60633 0.54421 5.48904 0.754395 5.38409 0.969956M5.73565 0.340486C5.68461 0.420998 5.68985 0.516424 5.73324 0.589978C5.75708 0.630376 5.80219 0.681462 5.87724 0.71618C5.95884 0.753927 6.04306 0.756675 6.10485 0.74099L6.05449 0.542608L5.73565 0.340486ZM5.38409 0.969956C2.95709 1.8982 1.25 4.20745 1.25 6.89269C1.25 10.3896 4.14696 13.25 7.75353 13.25C10.1998 13.25 12.3238 11.9315 13.4337 9.99015M5.38409 0.969956C4.95873 1.84361 4.73608 2.80556 4.73709 3.78354C4.73731 7.40127 7.72528 10.3078 11.3797 10.3081C12.0781 10.3092 12.771 10.2015 13.4337 9.99015M13.4337 9.99015C13.6575 9.9188 13.8777 9.83565 14.0936 9.74088C14.0177 9.77372 13.9394 9.75893 13.8793 9.71344C13.8449 9.68738 13.7963 9.63606 13.7687 9.55098C13.7385 9.45771 13.7473 9.36428 13.7753 9.29687C13.6756 9.53549 13.5614 9.76694 13.4337 9.99015Z"
        stroke="#8A91A8" stroke-width="1.5" />
</svg>