<svg width="25" height="25" viewBox="0 0 25 25" fill="none" xmlns="http://www.w3.org/2000/svg">
  <path
    d="M22.5709 0.0866699H2.42888C1.36388 0.0866699 0.499878 0.95067 0.499878 2.01567V22.1577C0.499878 23.2227 1.36388 24.0867 2.42888 24.0867H22.5709C23.6359 24.0867 24.4999 23.2227 24.4999 22.1577V2.01567C24.4999 0.95067 23.6359 0.0866699 22.5709 0.0866699ZM22.5709 22.1667C9.13688 22.1637 2.41988 22.1607 2.41988 22.1577C2.42288 8.72367 2.42588 2.00667 2.42888 2.00667C15.8629 2.00967 22.5799 2.01267 22.5799 2.01567C22.5769 15.4497 22.5739 22.1667 22.5709 22.1667ZM4.05788 9.08367H7.61888V20.5377H4.05788V9.08367ZM5.83988 7.51767C6.97688 7.51767 7.90388 6.59367 7.90388 5.45367C7.90388 5.18262 7.85049 4.91423 7.74677 4.66381C7.64304 4.4134 7.49101 4.18586 7.29935 3.9942C7.10769 3.80254 6.88015 3.65051 6.62974 3.54678C6.37932 3.44306 6.11093 3.38967 5.83988 3.38967C5.56883 3.38967 5.30044 3.44306 5.05002 3.54678C4.7996 3.65051 4.57207 3.80254 4.38041 3.9942C4.18875 4.18586 4.03672 4.4134 3.93299 4.66381C3.82926 4.91423 3.77588 5.18262 3.77588 5.45367C3.77288 6.59367 4.69688 7.51767 5.83988 7.51767ZM13.4089 14.8707C13.4089 13.3767 13.6939 11.9307 15.5449 11.9307C17.3689 11.9307 17.3959 13.6377 17.3959 14.9667V20.5377H20.9539V14.2557C20.9539 11.1717 20.2879 8.79867 16.6849 8.79867C14.9539 8.79867 13.7929 9.74967 13.3159 10.6497H13.2679V9.08367H9.85088V20.5377H13.4089V14.8707Z"
    fill="#8A91A8" />
</svg>
