<svg width="19" height="17" viewBox="0 0 19 17" fill="none" xmlns="http://www.w3.org/2000/svg">
  <path
    d="M5.97512 16.2193C13.145 16.2193 17.0666 10.2791 17.0666 5.12781C17.0666 4.95909 17.0666 4.79113 17.0552 4.62393C17.8181 4.0721 18.4766 3.38884 19 2.60613C18.2886 2.92153 17.5339 3.12828 16.761 3.21945C17.5749 2.73233 18.1839 1.96607 18.4748 1.06333C17.7097 1.51744 16.8725 1.83744 15.9995 2.00953C15.4118 1.38457 14.6345 0.970738 13.7878 0.832072C12.9412 0.693406 12.0725 0.837637 11.3161 1.24245C10.5597 1.64726 9.95776 2.29008 9.6035 3.07143C9.24925 3.85279 9.16239 4.72911 9.35636 5.56481C7.80654 5.48707 6.29039 5.08429 4.90632 4.38263C3.52225 3.68097 2.30119 2.69611 1.3224 1.49197C0.82391 2.35013 0.671232 3.36603 0.895454 4.3328C1.11968 5.29958 1.70394 6.14456 2.52928 6.69569C1.90889 6.67751 1.30201 6.51015 0.76 6.20777V6.25717C0.760246 7.15718 1.0718 8.02939 1.64181 8.72588C2.21183 9.42236 3.00522 9.90024 3.8874 10.0785C3.31351 10.235 2.71136 10.2579 2.12724 10.1453C2.37644 10.9198 2.86142 11.5971 3.5144 12.0825C4.16737 12.5679 4.9557 12.8371 5.76916 12.8525C4.96093 13.4877 4.03537 13.9575 3.04544 14.2347C2.05551 14.5119 1.02063 14.5913 0 14.4682C1.7827 15.6122 3.85694 16.219 5.97512 16.2162"
    fill="#1DA1F2" />
</svg>
<svg width="27" height="24" viewBox="0 0 27 24" fill="none" xmlns="http://www.w3.org/2000/svg">
  <path
    d="M1.49988 19.7785C2.71819 20.4524 11.5363 25.5353 17.8072 21.6176C24.0776 17.7 23.7315 10.9503 23.7315 7.8568C24.2999 6.66691 25.4999 6.06185 25.4999 2.8408C24.3214 3.92964 23.1498 4.29975 21.9851 3.95238C20.8445 2.21301 19.275 1.44312 17.2761 1.64396C14.2786 1.94522 13.1822 4.88585 13.5049 8.69112C8.88304 11.028 5.25904 6.99659 3.39083 3.95238C2.76683 6.34985 2.16556 9.22859 3.39083 12.4124C4.20809 14.5357 6.17293 16.3301 9.28409 17.7972C6.13062 19.5056 3.53609 20.1669 1.49988 19.7785Z"
    stroke="#8A91A8" stroke-width="1.68421" stroke-linejoin="round" />
</svg>
