<svg width="13" height="12" viewBox="0 0 13 12" fill="none" xmlns="http://www.w3.org/2000/svg">
    <path
        d="M6.5 0.000244141C3.18661 0.000244141 0.5 2.68685 0.5 6.00024C0.5 9.31364 3.18661 12.0002 6.5 12.0002C9.81339 12.0002 12.5 9.31364 12.5 6.00024C12.5 2.68685 9.81339 0.000244141 6.5 0.000244141ZM6.5 10.9824C3.74911 10.9824 1.51786 8.75114 1.51786 6.00024C1.51786 3.24935 3.74911 1.0181 6.5 1.0181C9.25089 1.0181 11.4821 3.24935 11.4821 6.00024C11.4821 8.75114 9.25089 10.9824 6.5 10.9824Z"
        fill="#8A91A8" />
    <path
        d="M5.85742 3.6431C5.85742 3.8136 5.92515 3.97711 6.04571 4.09767C6.16627 4.21823 6.32978 4.28596 6.50028 4.28596C6.67078 4.28596 6.83429 4.21823 6.95485 4.09767C7.07541 3.97711 7.14314 3.8136 7.14314 3.6431C7.14314 3.4726 7.07541 3.30909 6.95485 3.18853C6.83429 3.06797 6.67078 3.00024 6.50028 3.00024C6.32978 3.00024 6.16627 3.06797 6.04571 3.18853C5.92515 3.30909 5.85742 3.4726 5.85742 3.6431ZM6.82171 5.1431H6.17885C6.11992 5.1431 6.07171 5.19132 6.07171 5.25024V8.8931C6.07171 8.95203 6.11992 9.00024 6.17885 9.00024H6.82171C6.88064 9.00024 6.92885 8.95203 6.92885 8.8931V5.25024C6.92885 5.19132 6.88064 5.1431 6.82171 5.1431Z"
        fill="#8A91A8" />
</svg>