<svg width="17" height="16" viewBox="0 0 17 16" fill="none" xmlns="http://www.w3.org/2000/svg">
    <path d="M7.92798 0L9.07084 0V2.85714H7.92798V0Z" fill="#8A91A8" />
    <path d="M11.7502 3.94345L13.7537 1.93945L14.5617 2.74802L12.5582 4.75145L11.7502 3.94345Z" fill="#8A91A8" />
    <path d="M13.6428 7.42773H16.5V8.57059H13.6428V7.42773Z" fill="#8A91A8" />
    <path d="M11.7502 12.058L12.5582 11.25L14.5617 13.2534L13.7537 14.062L11.7502 12.058Z" fill="#8A91A8" />
    <path d="M7.92798 13.1426H9.07084V15.9997H7.92798V13.1426Z" fill="#8A91A8" />
    <path d="M2.4397 13.2534L4.44313 11.25L5.25113 12.0586L3.2477 14.062L2.4397 13.2534Z" fill="#8A91A8" />
    <path d="M0.500244 7.42773H3.35739V8.57059H0.500244L0.500244 7.42773Z" fill="#8A91A8" />
    <path d="M2.4397 2.74802L3.2477 1.93945L5.25113 3.94345L4.44313 4.75145L2.4397 2.74802Z" fill="#8A91A8" />
    <path
        d="M7.01295 5.77369C7.45344 5.47936 7.97131 5.32227 8.50108 5.32227C9.21148 5.32227 9.89279 5.60447 10.3951 6.1068C10.8974 6.60913 11.1797 7.29044 11.1797 8.00084C11.1797 8.53061 11.0226 9.04848 10.7282 9.48897C10.4339 9.92946 10.0156 10.2728 9.52613 10.4755C9.03668 10.6782 8.49811 10.7313 7.97852 10.6279C7.45893 10.5246 6.98165 10.2695 6.60705 9.89487C6.23244 9.52027 5.97733 9.04299 5.87398 8.5234C5.77063 8.00381 5.82367 7.46524 6.02641 6.97579C6.22914 6.48635 6.57246 6.06801 7.01295 5.77369Z"
        stroke="#8A91A8" stroke-width="1.5" />
</svg>