<svg width="73" height="44" viewBox="0 0 73 44" fill="none" xmlns="http://www.w3.org/2000/svg">
    <g clip-path="url(#clip0_4659_2415)">
        <rect x="2" y="2.00024" width="40" height="40" rx="20" fill="#EBF4FF" />
        <path
            d="M35.1135 38.3986C27.249 44.4541 16.2794 44.4056 8.46875 38.281L14.1935 35.5974C14.4661 35.4693 14.7278 35.319 14.9758 35.148C15.0511 35.0963 15.1264 35.0421 15.1982 34.9857C15.8212 34.509 16.3341 33.9034 16.7017 33.2104C16.9796 32.6779 17.1643 32.1017 17.2476 31.5069C17.305 31.1209 17.3341 30.7312 17.3346 30.341C17.3346 29.668 17.2982 28.9951 17.2911 28.321C17.2864 27.9476 17.2825 27.5747 17.2793 27.2021L17.5146 27.3198L18.1264 27.6363L18.4099 27.6845L21.6899 28.2421L25.3511 28.8657L25.4617 32.6304L25.4982 33.861L25.5158 34.4586V34.4974L26.9393 35.0763L35.1135 38.3986Z"
            fill="#E18477" />
        <path
            d="M25.5107 34.3528C25.1063 34.4224 24.6903 34.358 24.326 34.1693L17.306 28.4269C17.2977 28.1611 17.2907 28.4399 17.2872 28.174C17.2824 27.8015 17.2785 27.4285 17.2754 27.0552L17.5107 27.1728L18.1224 27.4893L18.406 27.5375L21.686 28.0952L25.3472 28.7187L25.4577 32.4834L25.4942 33.714L25.5119 34.3116V34.3505L25.5107 34.3528Z"
            fill="#A76962" />
        <path
            d="M30.7606 15.2773C32.779 16.4207 34.3686 18.1921 35.2876 20.322C34.5064 20.3853 33.7362 20.5458 32.9947 20.7997H32.9876C32.7947 20.8656 32.6033 20.9381 32.4135 21.0173L32.2959 21.0679L32.1088 21.1503C32.0465 21.1773 31.9841 21.2067 31.9229 21.2373C31.8618 21.2679 31.8053 21.2973 31.7382 21.3291C31.6712 21.3609 31.6206 21.3915 31.5559 21.4244C31.4912 21.4573 31.4488 21.482 31.3959 21.5126C31.2688 21.5832 31.1441 21.6573 31.0218 21.7338C30.9731 21.7636 30.9249 21.7942 30.877 21.8256C30.4053 22.1309 29.9622 22.4787 29.5535 22.8644C29.037 23.3526 28.5547 23.9138 28.0241 24.415C27.5691 24.8736 27.036 25.2477 26.45 25.5197C25.3159 26.0079 24.0041 26.2903 22.8265 26.6962L17.2971 28.6079C17.2971 28.5209 16.6712 27.902 15.8853 27.1479C13.817 25.1817 12.6186 22.4716 12.5559 19.6185C12.3653 10.9997 22.49 8.46557 29.3794 10.3126C30.4737 10.6073 31.5145 11.0735 32.4629 11.6938C33.0911 12.1 33.6658 12.5834 34.1735 13.1326C34.7661 13.7701 35.2419 14.5068 35.5794 15.3091L35.4865 15.2926C33.9248 15.0046 32.3241 14.9995 30.7606 15.2773Z"
            fill="url(#paint0_linear_4659_2415)" />
        <path
            d="M35.2874 20.3221C34.5062 20.3854 33.736 20.5459 32.9945 20.7998H32.9874C32.7922 20.8617 32.6006 20.9344 32.4133 21.0174L32.2957 21.068L32.1063 21.1527C32.0439 21.181 31.9827 21.2092 31.9204 21.2398C31.858 21.2704 31.8027 21.2998 31.7357 21.3316C31.6686 21.3633 31.618 21.3939 31.5533 21.4269C31.4886 21.4598 31.4463 21.4845 31.3933 21.5151C31.2663 21.5857 31.1416 21.6598 31.0192 21.7363L30.8745 21.828C30.4027 22.1334 29.9597 22.4811 29.551 22.8669C29.0345 23.3551 28.5522 23.9163 28.0216 24.4174C27.8498 24.488 27.6792 24.5621 27.5086 24.6363C27.5298 24.6269 27.3733 22.6363 27.378 22.4351C27.3977 21.6665 27.4855 20.9011 27.6404 20.148C27.9392 18.6998 27.7486 17.3527 28.0369 15.868C28.0977 15.5366 28.1763 15.2087 28.2722 14.8857C28.7639 14.5186 29.4486 14.4057 30.0451 14.3198C31.4745 14.1139 32.9451 14.3092 34.3204 14.7422C34.5478 14.8142 34.7713 14.8982 34.9898 14.9939C35.0933 15.0398 35.1945 15.0892 35.2945 15.1422C35.3827 15.2086 35.4782 15.2646 35.5792 15.3092C33.9857 15.0152 32.3529 15.0045 30.7557 15.2774C32.7758 16.42 34.3672 18.1915 35.2874 20.3221Z"
            fill="url(#paint1_linear_4659_2415)" />
        <ellipse cx="16.1218" cy="23.9067" rx="2" ry="2" fill="#E18477" />
        <ellipse cx="16.7552" cy="23.9068" rx="1.79059" ry="1.79059" fill="#A76962" />
        <path
            d="M16.783 22.0196L17.2983 28.7255L25.1147 33.2925C26.2369 33.7111 27.4934 33.2091 28.0183 32.1325C29.143 29.829 30.9477 26.1925 30.71 24.8384C30.3571 22.8384 29.4159 22.1325 29.4159 22.1325C29.5469 21.3482 29.6771 20.5663 29.8065 19.7867C29.9547 18.9031 30.143 17.9808 29.9241 17.0925C29.6735 16.0749 28.9041 15.6396 28.2712 14.8784C26.6053 17.0243 23.8665 18.2372 21.4747 19.4667C20.2394 20.1161 16.783 22.0196 16.783 22.0196Z"
            fill="#E18477" />
        <path d="M20.553 20.6325C21.6424 20.4092 22.7626 20.3794 23.8624 20.5443" stroke="#00214E"
            stroke-width="0.165221" />
        <path d="M27.5007 20.6456C28.1733 20.4902 28.8661 20.4421 29.5537 20.5032" stroke="#00214E"
            stroke-width="0.165221" />
        <path
            d="M24.7913 25.1729C24.6157 25.2627 24.5318 25.4672 24.5938 25.6545C24.6557 25.8418 24.845 25.956 25.0395 25.9234"
            stroke="#00214E" stroke-width="0.165221" />
        <path
            d="M26.9144 23.9561C26.9144 23.9561 26.9485 24.6208 27.105 24.9325C27.1721 25.0666 27.2768 25.1796 27.3403 25.3137C27.6003 25.8231 27.1803 25.9313 26.7744 25.9313"
            stroke="#00214E" stroke-width="0.165221" />
        <path
            d="M35.1135 38.3986C27.249 44.454 16.2794 44.4056 8.46875 38.281L14.1935 35.5974C14.4661 35.4693 14.7278 35.319 14.9758 35.148C15.0511 35.0962 15.1264 35.0421 15.1982 34.9857C15.8212 34.5089 16.3341 33.9034 16.7017 33.2104C16.9796 32.6779 17.1643 32.1017 17.2476 31.5068C17.3307 31.5873 17.4178 31.6635 17.5087 31.7351C18.2301 32.2685 19.013 32.7133 19.8405 33.0598C20.2423 33.2274 20.6531 33.3723 21.0711 33.4939C22.3304 33.8611 23.6452 34.0001 24.9535 33.9045C25.1346 33.8904 25.317 33.8727 25.4982 33.8598L25.5158 34.4574V34.4962L26.9393 35.0751L35.1135 38.3986Z"
            fill="#00214E" />
        <circle cx="23.0148" cy="22.3972" r="2.23529" stroke="#000429" stroke-width="0.165221" />
        <ellipse cx="29.2663" cy="22.0444" rx="2.2353" ry="2.23529" stroke="#000429" stroke-width="0.165221" />
        <path d="M25.2498 22.3973L27.0309 22.2444" stroke="#000429" stroke-width="0.165221" />
        <path
            d="M22.8477 27.2775C22.8804 27.226 22.9331 27.1904 22.9931 27.1792C23.0531 27.1681 23.1151 27.1824 23.1641 27.2187C23.4077 27.3904 23.8559 27.7551 24.4912 27.881C25.3571 28.054 26.1077 27.7069 26.2877 27.9304C26.3888 28.0563 26.2653 28.2104 26.0288 28.4069C25.5282 28.7808 24.898 28.9373 24.2806 28.841C23.4477 28.6845 22.8218 27.7198 22.8218 27.3775C22.822 27.3425 22.8309 27.3082 22.8477 27.2775Z"
            fill="#000429" />
        <ellipse cx="22.488" cy="22.3764" rx="0.384706" ry="0.934118" transform="rotate(-85.77 22.488 22.3764)"
            fill="#00214E" />
        <ellipse cx="28.5481" cy="22.1857" rx="0.934118" ry="0.384706" transform="rotate(-8.85999 28.5481 22.1857)"
            fill="#00214E" />
    </g>
    <rect x="1" y="1.00024" width="42" height="42" rx="21" stroke="white" stroke-width="2" />
    <g clip-path="url(#clip1_4659_2415)">
        <rect x="31" y="2.00024" width="40" height="40" rx="20" fill="#F1EBFF" />
        <path
            d="M52.6962 35.6779C50.4965 35.4717 48.3146 35.1056 46.168 34.5826C41.8151 33.4979 37.6056 31.5826 34.2856 28.5662C37.2151 25.5073 38.8115 23.7426 41.1092 20.1826C42.8127 17.545 44.9068 12.9073 48.0656 11.712C53.0139 9.83792 59.6986 11.6591 61.1045 17.2262C61.6998 19.5791 61.7221 22.0403 61.3845 24.4332C61.2327 25.512 60.1409 36.0438 59.5139 36.0344C57.2398 35.9956 54.9598 35.9026 52.6962 35.6779Z"
            fill="#F2D4CF" />
        <path
            d="M66.0129 38.3779C58.1484 44.4333 47.1789 44.3849 39.3682 38.2602L45.0929 35.5767C45.2681 35.4938 45.4389 35.4019 45.6046 35.3014L45.7364 35.219C45.7835 35.1896 45.8293 35.159 45.8752 35.1273C46.5975 34.629 47.1894 33.9645 47.6011 33.1896C48.0717 32.3014 48.227 31.3202 48.234 30.3202C48.234 29.6473 48.1976 28.9743 48.1905 28.3002C48.1858 27.9277 48.1819 27.5547 48.1788 27.1814L48.414 27.299L49.0258 27.6155L52.5893 28.2214L56.2505 28.8449L56.3611 32.6096L56.4164 34.4767L57.7658 35.0261L58.8246 35.4543L66.0129 38.3779Z"
            fill="#F2A196" />
        <path
            d="M56.3466 31.6554C56.0266 31.8531 55.7243 31.946 55.4596 31.9178C53.7196 31.7307 50.3255 30.3672 48.189 27.8437C48.189 27.7197 48.1866 27.5962 48.1819 27.4731C48.1772 27.0997 48.1733 26.7268 48.1702 26.3542L48.4055 26.4719L49.0172 26.7884L52.5784 27.3931L56.2396 28.0166L56.3466 31.6554Z"
            fill="#E88870" />
        <ellipse cx="45.2385" cy="23.4155" rx="2" ry="2" fill="#F2A196" />
        <ellipse cx="45.9446" cy="23.1802" rx="2" ry="2" fill="#E88870" />
        <path
            d="M58.8362 20.3861C60.2186 25.1731 57.2833 30.959 55.4786 30.959C53.008 30.959 47.008 28.9861 45.628 24.199C44.248 19.4119 46.0786 14.679 49.7256 13.6284C53.3727 12.5778 57.4503 15.6002 58.8362 20.3861Z"
            fill="#F2A196" />
        <circle cx="51.3844" cy="21.9085" r="1.78353" fill="#00214E" />
        <ellipse cx="57.4266" cy="21.6214" rx="1.78353" ry="1.78353" fill="#00214E" />
        <path
            d="M55.149 13.9874C54.642 16.1885 53.5372 18.0568 51.5184 19.4168C49.3396 20.9227 46.8361 21.1379 44.3267 21.6356C44.3902 20.0932 44.4243 18.4415 45.2196 17.065C46.1225 15.5382 47.4408 14.2995 49.0208 13.4932C50.7631 12.5932 53.4584 11.7109 55.4149 12.3344C55.3614 12.8905 55.2726 13.4426 55.149 13.9874Z"
            fill="#F2D4CF" />
        <path d="M54.4832 20.6096C54.4737 20.6508 55.4149 24.4155 55.4149 24.4155H53.9443" stroke="#00214E"
            stroke-width="0.0826105" />
        <path d="M55.8313 19.4084C56.6629 18.9862 57.6242 18.8966 58.5195 19.1578" stroke="#00214E"
            stroke-width="0.0826105" />
        <path d="M49.3479 19.8439C50.494 19.2596 51.8409 19.2164 53.022 19.7262" stroke="#00214E"
            stroke-width="0.0826105" />
        <path d="M52.8267 22.0133L55.8314 21.7568" stroke="#00214E" stroke-width="0.0826105" />
        <path
            d="M66.0129 38.3778C58.1484 44.4333 47.1789 44.3849 39.3682 38.2602L45.0929 35.5767C45.3655 35.4485 45.6272 35.2982 45.8752 35.1273C45.9505 35.0755 46.0258 35.0214 46.0976 34.9649C46.7206 34.4882 47.2335 33.8826 47.6011 33.1896C47.879 32.6571 48.0637 32.0809 48.147 31.4861C48.2301 31.5666 48.3172 31.6428 48.4082 31.7143C49.1298 32.2482 49.9131 32.6934 50.7411 33.0402C51.1429 33.2078 51.5537 33.3527 51.9717 33.4743C53.231 33.8415 54.5458 33.9806 55.854 33.8849C56.0352 33.8708 56.2176 33.8531 56.3988 33.8402L56.4164 34.4378V34.4767L57.8399 35.0555L66.0129 38.3778Z"
            fill="#0078FF" />
        <path
            d="M51.4243 25.7461C51.4567 25.6941 51.5093 25.6581 51.5694 25.6467C51.6296 25.6353 51.6917 25.6496 51.7408 25.6861C51.9843 25.859 52.4314 26.2226 53.0667 26.3496C53.9326 26.5214 54.6843 26.1755 54.8632 26.399C54.9643 26.5249 54.8408 26.6779 54.6043 26.8755C54.1039 27.2489 53.4742 27.405 52.8573 27.3085C52.0232 27.1532 51.3985 26.1873 51.3985 25.8461C51.3979 25.811 51.4068 25.7765 51.4243 25.7461Z"
            fill="#000429" />
    </g>
    <rect x="30" y="1.00024" width="42" height="42" rx="21" stroke="white" stroke-width="2" />
    <defs>
        <linearGradient id="paint0_linear_4659_2415" x1="25.8724" y1="30.6122" x2="39.7762" y2="13.3705"
            gradientUnits="userSpaceOnUse">
            <stop stop-color="#16243F" />
            <stop offset="1" stop-color="#6878B1" />
        </linearGradient>
        <linearGradient id="paint1_linear_4659_2415" x1="27.3792" y1="24.636" x2="35.5792" y2="24.636"
            gradientUnits="userSpaceOnUse">
            <stop stop-color="#16243F" />
            <stop offset="1" stop-color="#6878B1" />
        </linearGradient>
        <clipPath id="clip0_4659_2415">
            <rect x="2" y="2.00024" width="40" height="40" rx="20" fill="white" />
        </clipPath>
        <clipPath id="clip1_4659_2415">
            <rect x="31" y="2.00024" width="40" height="40" rx="20" fill="white" />
        </clipPath>
    </defs>
</svg>