<svg width="26" height="17" viewBox="0 0 26 17" fill="none" xmlns="http://www.w3.org/2000/svg">
    <path d="M16.1933 1.80858L9.37207 1.83203L9.57877 14.3199L16.4 14.2965L16.1933 1.80858Z" fill="#FF5F00" />
    <path
        d="M9.8219 8.10152C9.77969 5.56159 10.9175 3.30475 12.6997 1.84087C11.3545 0.785267 9.668 0.150499 7.83984 0.15676C3.50885 0.171593 0.063975 3.7395 0.137014 8.13469C0.210054 12.5299 3.77311 16.0738 8.10411 16.059C9.93226 16.0527 11.5974 15.4065 12.9074 14.3418C11.0771 12.9123 9.86411 10.6415 9.8219 8.10152Z"
        fill="#EB001B" />
    <path
        d="M25.6375 7.99365C25.7106 12.3888 22.2657 15.9568 17.9347 15.9716C16.1065 15.9778 14.4201 15.3431 13.0749 14.2875C14.8788 12.8235 15.9948 10.5668 15.9526 8.02682C15.9104 5.48689 14.6977 3.23811 12.8671 1.78659C14.1771 0.721898 15.8423 0.0756511 17.6704 0.0693899C22.0014 0.0545567 25.5649 3.62055 25.6375 7.99365Z"
        fill="#F79E1B" />
</svg>