<svg width="18" height="19" viewBox="0 0 18 19" fill="none" xmlns="http://www.w3.org/2000/svg">
    <path
        d="M2.88537 14.6589C4.69126 13.6381 6.7776 13.0556 9 13.0556C11.2224 13.0556 13.3087 13.6381 15.1146 14.6589M11.6667 7.72222C11.6667 9.19498 10.4728 10.3889 9 10.3889C7.52724 10.3889 6.33333 9.19498 6.33333 7.72222C6.33333 6.24946 7.52724 5.05556 9 5.05556C10.4728 5.05556 11.6667 6.24946 11.6667 7.72222ZM17 9.5C17 13.9183 13.4183 17.5 9 17.5C4.58172 17.5 1 13.9183 1 9.5C1 5.08172 4.58172 1.5 9 1.5C13.4183 1.5 17 5.08172 17 9.5Z"
        stroke="#8A91A8" stroke-width="1.5" stroke-linecap="round" stroke-linejoin="round" />
</svg>