<svg width="97" height="97" viewBox="0 0 97 97" fill="none" xmlns="http://www.w3.org/2000/svg">
    <path
        d="M5.11844 56.3057C2.26031 51.3553 2.26031 45.2561 5.11843 40.3057L19.8808 14.7365C22.739 9.78605 28.021 6.73647 33.7372 6.73647H63.262C68.9783 6.73647 74.2603 9.78604 77.1184 14.7365L91.8808 40.3057C94.7389 45.2561 94.7389 51.3553 91.8808 56.3057L77.1184 81.8749C74.2603 86.8253 68.9783 89.8749 63.262 89.8749H33.7372C28.021 89.8749 22.739 86.8253 19.8808 81.8749L5.11844 56.3057Z"
        fill="#2F3237" />
    <path d="M48.7572 59.3057V37.6282M48.7572 37.6282L40.4996 45.8863M48.7572 37.6282L56.4996 45.8863" stroke="#5CA5FF"
        stroke-width="4" stroke-linecap="round" stroke-linejoin="round" />
</svg>