<svg width="41" height="40" viewBox="0 0 41 40" fill="none" xmlns="http://www.w3.org/2000/svg">
    <g clip-path="url(#clip0_4480_7279)">
        <rect x="0.5" width="40" height="40" rx="20" fill="#EBF4FF" />
        <path
            d="M33.6154 35.4C25.7509 41.4554 14.7814 41.407 6.9707 35.2823L12.6954 32.5988C12.968 32.4706 13.2297 32.3203 13.4778 32.1494C13.5531 32.0976 13.6284 32.0435 13.7001 31.987C14.3232 31.5103 14.836 30.9048 15.2036 30.2117C15.4816 29.6792 15.6662 29.1031 15.7495 28.5082C15.807 28.1222 15.8361 27.7325 15.8366 27.3423C15.8366 26.6694 15.8001 25.9964 15.7931 25.3223C15.7884 24.949 15.7844 24.576 15.7813 24.2035L16.0166 24.3211L16.6284 24.6376L16.9119 24.6858L20.1919 25.2435L23.8531 25.867L23.9636 29.6317L24.0001 30.8623L24.0178 31.46V31.4988L25.4413 32.0776L33.6154 35.4Z"
            fill="#E18477" />
        <path
            d="M24.0126 31.354C23.6083 31.4236 23.1923 31.3592 22.8279 31.1705L15.8079 25.4282C15.7997 25.1623 15.7926 25.4411 15.7891 25.1752C15.7844 24.8027 15.7805 24.4297 15.7773 24.0564L16.0126 24.174L16.6244 24.4905L16.9079 24.5387L20.1879 25.0964L23.8491 25.7199L23.9597 29.4846L23.9962 30.7152L24.0138 31.3129V31.3517L24.0126 31.354Z"
            fill="#A76962" />
        <path
            d="M29.2625 12.2787C31.2809 13.422 32.8706 15.1935 33.7896 17.3234C33.0084 17.3867 32.2381 17.5471 31.4966 17.801H31.4896C31.2966 17.8669 31.1053 17.9395 30.9155 18.0187L30.7978 18.0693L30.6108 18.1516C30.5484 18.1787 30.4861 18.2081 30.4249 18.2387C30.3637 18.2693 30.3072 18.2987 30.2402 18.3304C30.1731 18.3622 30.1225 18.3928 30.0578 18.4257C29.9931 18.4587 29.9508 18.4834 29.8978 18.514C29.7708 18.5846 29.6461 18.6587 29.5237 18.7351C29.4751 18.765 29.4268 18.7955 29.379 18.8269C28.9072 19.1323 28.4642 19.48 28.0555 19.8657C27.539 20.354 27.0566 20.9151 26.5261 21.4163C26.071 21.875 25.538 22.249 24.9519 22.521C23.8178 23.0093 22.5061 23.2916 21.3284 23.6975L15.799 25.6093C15.799 25.5222 15.1731 24.9034 14.3872 24.1493C12.319 22.183 11.1206 19.4729 11.0578 16.6199C10.8672 8.00103 20.9919 5.46691 27.8814 7.31397C28.9757 7.60864 30.0164 8.07481 30.9649 8.69515C31.593 9.10131 32.1677 9.5847 32.6755 10.134C33.268 10.7715 33.7439 11.5082 34.0814 12.3104L33.9884 12.294C32.4267 12.006 30.826 12.0008 29.2625 12.2787Z"
            fill="url(#paint0_linear_4480_7279)" />
        <path
            d="M33.7894 17.3235C33.0082 17.3868 32.2379 17.5472 31.4965 17.8011H31.4894C31.2942 17.8631 31.1025 17.9357 30.9153 18.0188L30.7976 18.0694L30.6082 18.1541C30.5459 18.1823 30.4847 18.2106 30.4223 18.2411C30.36 18.2717 30.3047 18.3011 30.2376 18.3329C30.1706 18.3647 30.12 18.3953 30.0553 18.4282C29.9906 18.4611 29.9482 18.4858 29.8953 18.5164C29.7682 18.587 29.6435 18.6611 29.5212 18.7376L29.3765 18.8294C28.9047 19.1348 28.4617 19.4825 28.0529 19.8682C27.5365 20.3564 27.0541 20.9176 26.5235 21.4188C26.3518 21.4894 26.1812 21.5635 26.0106 21.6376C26.0318 21.6282 25.8753 19.6376 25.88 19.4364C25.8996 18.6678 25.9874 17.9025 26.1423 17.1494C26.4412 15.7011 26.2506 14.3541 26.5388 12.8694C26.5997 12.538 26.6782 12.2101 26.7741 11.887C27.2659 11.52 27.9506 11.407 28.547 11.3211C29.9765 11.1153 31.447 11.3106 32.8223 11.7435C33.0498 11.8155 33.2732 11.8995 33.4918 11.9953C33.5953 12.0411 33.6965 12.0906 33.7965 12.1435C33.8846 12.2099 33.9802 12.266 34.0812 12.3106C32.4877 12.0165 30.8548 12.0058 29.2576 12.2788C31.2778 13.4214 32.8692 15.1929 33.7894 17.3235Z"
            fill="url(#paint1_linear_4480_7279)" />
        <ellipse cx="14.6238" cy="20.9081" rx="2" ry="2" fill="#E18477" />
        <ellipse cx="15.2571" cy="20.908" rx="1.79059" ry="1.79059" fill="#A76962" />
        <path
            d="M15.2849 19.0211L15.8002 25.7269L23.6167 30.294C24.7388 30.7126 25.9954 30.2106 26.5202 29.134C27.6449 26.8305 29.4496 23.194 29.212 21.8399C28.859 19.8399 27.9179 19.134 27.9179 19.134C28.0488 18.3497 28.179 17.5677 28.3084 16.7881C28.4567 15.9046 28.6449 14.9822 28.4261 14.094C28.1755 13.0764 27.4061 12.6411 26.7731 11.8799C25.1073 14.0258 22.3684 15.2387 19.9767 16.4681C18.7414 17.1175 15.2849 19.0211 15.2849 19.0211Z"
            fill="#E18477" />
        <path d="M19.0549 17.6339C20.1444 17.4106 21.2646 17.3807 22.3643 17.5456" stroke="#00214E"
            stroke-width="0.165221" />
        <path d="M26.0027 17.6468C26.6752 17.4914 27.3681 17.4434 28.0556 17.5044" stroke="#00214E"
            stroke-width="0.165221" />
        <path
            d="M23.2932 22.1741C23.1176 22.264 23.0338 22.4684 23.0957 22.6557C23.1577 22.843 23.3469 22.9572 23.5415 22.9247"
            stroke="#00214E" stroke-width="0.165221" />
        <path
            d="M25.4164 20.9575C25.4164 20.9575 25.4505 21.6222 25.607 21.934C25.674 22.0681 25.7787 22.181 25.8423 22.3152C26.1023 22.8246 25.6823 22.9328 25.2764 22.9328"
            stroke="#00214E" stroke-width="0.165221" />
        <path
            d="M33.6154 35.3999C25.7509 41.4554 14.7814 41.407 6.9707 35.2823L12.6954 32.5988C12.968 32.4706 13.2297 32.3203 13.4778 32.1494C13.5531 32.0976 13.6284 32.0435 13.7001 31.987C14.3232 31.5103 14.836 30.9047 15.2036 30.2117C15.4816 29.6792 15.6662 29.103 15.7495 28.5082C15.8326 28.5887 15.9198 28.6649 16.0107 28.7364C16.7321 29.2698 17.5149 29.7146 18.3425 30.0611C18.7442 30.2287 19.1551 30.3736 19.5731 30.4952C20.8324 30.8624 22.1472 31.0015 23.4554 30.9058C23.6366 30.8917 23.8189 30.8741 24.0001 30.8611L24.0178 31.4588V31.4976L25.4413 32.0764L33.6154 35.3999Z"
            fill="#00214E" />
        <circle cx="21.5168" cy="19.3985" r="2.23529" stroke="white" stroke-width="0.165221" />
        <ellipse cx="27.7683" cy="19.0457" rx="2.2353" ry="2.23529" stroke="white" stroke-width="0.165221" />
        <path d="M23.7517 19.3987L25.5329 19.2457" stroke="white" stroke-width="0.165221" />
        <path
            d="M21.3496 24.2787C21.3824 24.2272 21.435 24.1916 21.4951 24.1805C21.5551 24.1693 21.617 24.1836 21.6661 24.2199C21.9096 24.3916 22.3578 24.7564 22.9931 24.8822C23.859 25.0552 24.6096 24.7081 24.7896 24.9316C24.8908 25.0575 24.7673 25.2116 24.5308 25.4081C24.0301 25.782 23.4 25.9385 22.7826 25.8422C21.9496 25.6858 21.3237 24.7211 21.3237 24.3787C21.3239 24.3437 21.3328 24.3094 21.3496 24.2787Z"
            fill="white" />
        <ellipse cx="20.99" cy="19.3777" rx="0.384706" ry="0.934118" transform="rotate(-85.77 20.99 19.3777)"
            fill="#00214E" />
        <ellipse cx="27.0501" cy="19.187" rx="0.934118" ry="0.384706" transform="rotate(-8.85999 27.0501 19.187)"
            fill="#00214E" />
    </g>
    <defs>
        <linearGradient id="paint0_linear_4480_7279" x1="24.3744" y1="27.6136" x2="38.2782" y2="10.3719"
            gradientUnits="userSpaceOnUse">
            <stop stop-color="#16243F" />
            <stop offset="1" stop-color="#6878B1" />
        </linearGradient>
        <linearGradient id="paint1_linear_4480_7279" x1="25.8812" y1="21.6373" x2="34.0812" y2="21.6373"
            gradientUnits="userSpaceOnUse">
            <stop stop-color="#16243F" />
            <stop offset="1" stop-color="#6878B1" />
        </linearGradient>
        <clipPath id="clip0_4480_7279">
            <rect x="0.5" width="40" height="40" rx="20" fill="white" />
        </clipPath>
    </defs>
</svg>