<svg width="197" height="198" viewBox="0 0 197 198" fill="none" xmlns="http://www.w3.org/2000/svg">
    <path
        d="M174.432 83.0953L174.432 83.0953L174.431 83.0915C173.794 81.7765 173.759 80.8156 173.979 80.0922C174.203 79.3541 174.732 78.7291 175.477 78.1696C176.225 77.6085 177.127 77.1592 178.011 76.7495C178.15 76.6852 178.291 76.621 178.431 76.5567C179.137 76.2343 179.845 75.9109 180.321 75.5784L180.321 75.5785L180.33 75.572C181.692 74.5915 183.253 74.3721 185.005 74.1258C185.037 74.1213 185.068 74.1169 185.1 74.1125C186.829 73.8691 188.763 73.5832 190.376 72.1914L190.376 72.1915L190.386 72.1821C191.398 71.2759 192.862 71.0197 194.406 71.5199C194.749 71.6905 195.05 71.8529 195.288 72.1195C195.623 72.5235 195.777 73.1063 195.757 73.7214C195.737 74.3396 195.545 74.8591 195.341 75.1229C195.087 75.3962 194.761 75.5919 194.323 75.8213C194.27 75.8494 194.214 75.8782 194.156 75.9079C193.765 76.1098 193.289 76.3559 192.865 76.7027L192.865 76.7027L192.86 76.7064C192.122 77.3199 191.613 78.2097 191.216 79.111C190.902 79.823 190.63 80.6109 190.372 81.3573C190.303 81.5569 190.235 81.7535 190.168 81.9449C189.838 82.8827 189.517 83.7048 189.124 84.3319C188.737 84.9514 188.337 85.2889 187.879 85.4043L187.87 85.4064L187.862 85.4088C187.203 85.5916 186.398 85.3256 185.312 84.8243C185.174 84.7608 185.032 84.6934 184.886 84.6245C184.503 84.4437 184.097 84.2524 183.705 84.0937C183.157 83.8719 182.561 83.6811 181.953 83.6419L181.952 83.6418C181.056 83.5856 180.271 83.8561 179.598 84.1356C179.406 84.2151 179.228 84.2929 179.058 84.3674C178.59 84.5717 178.183 84.7499 177.732 84.8612L177.714 84.8657L177.696 84.8711C176.704 85.1696 175.24 84.7891 174.432 83.0953Z"
        stroke="#338EFF" stroke-opacity="0.5" stroke-width="1.5" stroke-miterlimit="10" />
    <path
        d="M194.181 82.5473L194.181 82.5473L194.178 82.5553C194.029 83.0906 193.89 83.6435 193.749 84.2057C193.514 85.1447 193.273 86.1099 192.96 87.0641C192.466 88.5754 191.866 89.8036 191.051 90.502C190.334 91.1067 189.501 91.255 188.459 91.1493C187.619 91.0533 186.726 90.71 185.728 90.2297C185.274 90.0113 184.813 89.7717 184.332 89.5217C184.286 89.4981 184.241 89.4744 184.195 89.4506C183.67 89.1782 183.123 88.8963 182.561 88.6321C181.563 88.1386 180.534 87.7417 179.486 87.6757C178.295 87.5433 177.209 87.7932 176.188 88.1381C175.724 88.2948 175.26 88.4762 174.805 88.6538C174.759 88.6715 174.714 88.6892 174.669 88.7068C174.165 88.9035 173.667 89.0947 173.152 89.2604L173.152 89.2604L173.145 89.2627C170.531 90.1316 167.719 88.6273 166.214 85.3207C165.702 84.1965 165.344 83.1014 165.133 82.0348C164.853 80.4098 164.746 78.6102 164.989 77.0175C165.234 75.4125 165.815 74.1271 166.811 73.3699C166.941 73.2711 167.155 73.1895 167.501 73.1485C167.844 73.1077 168.242 73.1144 168.695 73.1328C168.768 73.1358 168.843 73.139 168.919 73.1424C169.293 73.1588 169.7 73.1767 170.077 73.1636C170.528 73.148 171.034 73.0878 171.48 72.8728L171.48 72.8729L171.491 72.8676C172.271 72.4771 172.997 72.0901 173.687 71.7221C174.934 71.0568 176.065 70.4537 177.187 70.0052L177.195 70.0023L177.202 69.9993C178.79 69.3259 180.232 68.4028 181.596 67.5299C181.753 67.4293 181.909 67.3293 182.065 67.2304C183.59 66.259 185.036 65.3885 186.618 64.8944C187.241 64.7013 188.005 64.7852 188.976 64.9285C189.032 64.9368 189.089 64.9453 189.147 64.954C189.991 65.08 190.994 65.2298 191.914 65.0384C192.304 64.9955 192.612 64.8816 192.947 64.6579L192.958 64.6509L192.968 64.6435C194.81 63.3244 197.12 63.269 199.391 64.2886L199.401 64.293L199.411 64.2972C199.997 64.5391 200.564 64.9135 201.106 65.5773L201.205 65.6991L201.231 65.7117C201.913 66.6961 202.242 68.0232 202.261 69.3134C202.28 70.6502 201.965 71.7864 201.539 72.3666L201.531 72.3778L201.523 72.3894C201.144 72.946 200.642 73.3063 200.026 73.6607C199.889 73.7398 199.739 73.8216 199.582 73.9073C199.084 74.1802 198.511 74.4935 198.016 74.8923C197.644 75.1841 197.309 75.4759 196.995 75.8556C196.211 76.7741 195.674 77.9018 195.253 79.05C194.922 79.9539 194.648 80.9148 194.387 81.8286C194.318 82.0722 194.249 82.3124 194.181 82.5473Z"
        stroke="#338EFF" stroke-opacity="0.5" stroke-width="1.5" stroke-miterlimit="10" />
    <path
        d="M193.166 96.4902L193.166 96.4903C194.544 95.5437 195.469 93.6769 196.161 91.4034C196.615 89.9099 196.936 88.3677 197.238 86.9209C197.396 86.1635 197.548 85.4322 197.711 84.7477L197.712 84.7421C197.79 84.4276 197.868 84.1052 197.947 83.7771C198.664 80.8004 199.497 77.344 201.295 74.8234M193.166 96.4902L201.896 75.2562M193.166 96.4902L193.156 96.4967C191.913 97.3773 190.513 97.3445 188.965 96.9571C187.76 96.6495 186.539 96.0497 185.238 95.321C184.787 95.068 184.32 94.7954 183.842 94.5168C182.98 94.0143 182.085 93.492 181.186 93.028C179.846 92.3047 178.524 91.8907 177.27 91.6928L177.26 91.6913L177.25 91.69C175.698 91.488 174.268 91.7807 172.895 92.2219C172.211 92.4417 171.528 92.7029 170.851 92.9622L170.817 92.9752C170.147 93.2322 169.48 93.4878 168.789 93.7164C164.312 95.178 160.266 92.4828 158.101 87.641C157.371 85.8663 156.734 84.1281 156.459 82.4303L156.459 82.4303L156.457 82.421C156.037 80.0141 155.686 77.1066 155.875 74.4757C156.065 71.8186 156.791 69.6388 158.331 68.44C158.507 68.311 158.844 68.2202 159.434 68.2423C160.009 68.2638 160.681 68.3841 161.418 68.5273C161.496 68.5423 161.573 68.5575 161.652 68.5728C162.299 68.6994 162.988 68.834 163.617 68.8943C164.304 68.96 165.067 68.9559 165.697 68.6484L165.697 68.6485L165.704 68.6447C166.737 68.1256 167.736 67.5755 168.697 67.0464C169.201 66.7687 169.695 66.4968 170.178 66.2383C171.599 65.4768 172.964 64.8079 174.38 64.3385C176.905 63.5173 178.966 61.744 180.88 60.0641C180.943 60.0085 181.007 59.9531 181.07 59.8977C182.957 58.2396 184.714 56.6966 186.774 55.8924L186.778 55.8908C187.064 55.7773 187.458 55.7617 187.996 55.8707C188.529 55.9789 189.123 56.192 189.772 56.4499C189.957 56.5237 190.149 56.6021 190.345 56.6818C190.808 56.8706 191.289 57.0669 191.747 57.2285C192.399 57.4584 193.091 57.6512 193.75 57.6694M193.166 96.4902L186.52 55.1874C187.621 54.7504 189.144 55.3714 190.653 55.9871C191.764 56.44 192.867 56.8901 193.791 56.9139M201.295 74.8234C201.295 74.8225 201.296 74.8217 201.296 74.8208L201.896 75.2562M201.295 74.8234C201.294 74.8241 201.293 74.8249 201.293 74.8256L201.896 75.2562M201.295 74.8234C201.693 74.2564 202.179 73.7535 202.6 73.3637L202.607 73.3574L202.614 73.3513C203.361 72.6922 204.201 72.2155 204.953 71.7886C205.146 71.6789 205.334 71.5724 205.512 71.467C206.416 70.9336 207.191 70.382 207.793 69.4813L207.799 69.473L207.805 69.4648C208.453 68.5474 208.869 66.794 208.801 64.7824C208.738 62.9148 208.26 60.9743 207.313 59.4913M201.896 75.2562C202.251 74.7501 202.695 74.288 203.095 73.9177C203.776 73.3167 204.526 72.8904 205.271 72.4671C206.42 71.8135 207.557 71.1674 208.406 69.8973C209.983 67.6656 210.09 62.0905 207.732 58.7614C207.709 58.6935 207.687 58.6256 207.62 58.6494C206.708 57.4583 205.752 56.8139 204.773 56.329M207.313 59.4913L207.352 59.5416L207.854 59.3621C207.747 59.4002 207.587 59.4244 207.411 59.3637C207.289 59.3217 207.203 59.2538 207.147 59.1949C207.126 59.1728 207.108 59.1519 207.095 59.1341C207.084 59.1193 207.075 59.1051 207.067 59.0918C207.043 59.0539 207.03 59.0242 207.026 59.0134C207.025 59.0124 207.025 59.0115 207.025 59.0108L207.025 59.0106C207.02 58.999 207.018 58.9916 207.025 59.0136L207.054 59.1017L207.06 59.1203L207.125 59.2113C207.189 59.3026 207.252 59.396 207.313 59.4913ZM207.313 59.4913L207.03 59.1213C206.202 58.0405 205.344 57.4601 204.441 57.0122M204.441 57.0122C204.442 57.0129 204.444 57.0136 204.445 57.0143L204.773 56.329M204.441 57.0122C204.439 57.0114 204.437 57.0106 204.436 57.0098L204.773 56.329M204.441 57.0122C201.326 55.5243 197.982 55.3757 195.253 57.3097L195.229 57.3264L195.204 57.3412C194.722 57.631 194.206 57.6888 193.75 57.6694M204.773 56.329C201.504 54.7661 197.858 54.5514 194.835 56.6925C194.524 56.8795 194.169 56.9306 193.791 56.9139M193.75 57.6694C193.752 57.6695 193.754 57.6696 193.757 57.6696L193.791 56.9139M193.75 57.6694C193.748 57.6693 193.745 57.6692 193.743 57.6691L193.791 56.9139"
        stroke="#338EFF" stroke-opacity="0.5" stroke-width="1.5" stroke-miterlimit="10" />
    <path
        d="M164.638 98.8564C157.947 101.398 152.273 96.8239 149.378 90.2712C148.309 87.9218 147.507 85.4771 147.083 83.0491M164.638 98.8564L147.815 82.9022C147.269 79.7637 146.674 75.7624 146.802 72.1033C146.931 68.3991 147.794 65.2999 149.911 63.678L149.912 63.6769C150.177 63.4733 150.674 63.3672 151.51 63.4493C152.315 63.5284 153.258 63.7614 154.269 64.026C154.373 64.0533 154.478 64.0809 154.584 64.1087C155.476 64.3436 156.409 64.589 157.254 64.7224C158.169 64.8668 159.161 64.9143 159.946 64.5274L159.951 64.5251C161.388 63.8054 162.756 63.0293 164.072 62.2825C164.704 61.9238 165.324 61.572 165.934 61.2363C167.836 60.1902 169.687 59.2744 171.677 58.6727C174.915 57.7184 177.45 55.2478 179.79 52.8586C179.949 52.6972 180.106 52.5362 180.262 52.3759C182.481 50.1043 184.56 47.9756 187.05 46.8848C187.383 46.7452 187.864 46.7493 188.548 46.961C189.224 47.17 189.984 47.5443 190.806 47.9908C191.088 48.1436 191.38 48.307 191.677 48.4727C192.218 48.775 192.773 49.085 193.3 49.3525C194.12 49.7689 194.975 50.138 195.779 50.2712L195.813 50.2768L195.848 50.2792L195.872 50.2809C196.122 50.2982 196.437 50.3201 196.739 50.2943C197.05 50.2676 197.43 50.1851 197.766 49.9282C201.327 47.4069 205.615 47.7305 209.652 49.7306C210.813 50.3062 212.024 51.1139 213.061 52.5961C213.093 52.6548 213.126 52.6998 213.151 52.7309C213.172 52.7578 213.195 52.7822 213.212 52.8003L213.217 52.8089C214.603 54.9056 215.303 57.7076 215.412 60.3699C215.523 63.0565 215.025 65.4351 214.186 66.723L214.182 66.7288C213.371 67.9987 212.314 68.7447 211.114 69.4503C210.892 69.5806 210.662 69.711 210.427 69.8444C209.42 70.4154 208.316 71.0414 207.349 71.948L207.335 71.9617L207.321 71.9762L207.299 71.9989C206.76 72.5589 206.165 73.1785 205.681 73.926C204.369 75.7997 203.521 78.0435 202.878 80.3097C202.44 81.8525 202.085 83.4526 201.749 84.9714C201.593 85.675 201.441 86.361 201.286 87.0158L201.286 87.016C201.078 87.8999 200.883 88.8629 200.679 89.8706C200.297 91.7576 199.884 93.8016 199.289 95.7773C198.378 98.804 197.124 101.34 195.189 102.569C193.505 103.621 191.448 103.405 189.414 102.73C187.859 102.202 186.32 101.347 184.724 100.387C184.346 100.159 183.963 99.9241 183.576 99.6872C182.359 98.9413 181.105 98.1727 179.828 97.5175C178.12 96.5547 176.529 96.0022 174.946 95.7616L174.944 95.7613C171.74 95.2837 168.81 96.428 165.771 97.6153C165.314 97.7939 164.855 97.9734 164.391 98.1485L164.39 98.1489C161.279 99.3307 158.426 98.8631 155.985 97.329C153.523 95.7809 151.463 93.1308 150.058 89.9499L150.058 89.9499L150.055 89.9425C149.007 87.6409 148.227 85.2573 147.816 82.9024C147.816 82.9025 147.816 82.9026 147.816 82.9027L147.083 83.0491M164.638 98.8564C165.115 98.6761 165.582 98.4941 166.042 98.315M164.638 98.8564L166.042 98.315M147.083 83.0491C145.989 76.7635 144.648 66.7728 149.471 63.0777C150.535 62.2588 152.67 62.8205 154.782 63.376C156.685 63.8766 158.569 64.3722 159.633 63.8483L147.083 83.0491ZM166.042 98.315C169.098 97.1246 171.825 96.0627 174.821 96.5093L166.042 98.315Z"
        stroke="#338EFF" stroke-opacity="0.5" stroke-width="1.5" stroke-miterlimit="10" />
    <path
        d="M197.241 108.564L197.244 108.562C199.747 107.088 201.328 103.865 202.443 100.059C203.177 97.551 203.673 94.9422 204.122 92.577C204.354 91.3575 204.573 90.2028 204.807 89.16M197.241 108.564L205.533 89.3104M197.241 108.564C194.994 109.9 192.343 109.463 189.835 108.5C187.937 107.75 186.085 106.642 184.172 105.432C183.834 105.218 183.494 105 183.151 104.781C181.574 103.774 179.947 102.735 178.258 101.85C176.204 100.716 174.344 100.027 172.438 99.744L172.436 99.7438C168.449 99.1609 164.79 100.606 160.812 102.177C160.494 102.302 160.175 102.428 159.853 102.554L159.852 102.554C155.867 104.121 152.246 103.513 149.171 101.546C146.072 99.5635 143.51 96.1832 141.768 92.2082C140.51 89.2733 139.468 86.3063 138.99 83.3081L138.99 83.3081L138.99 83.3032C138.34 79.3869 137.493 74.2785 137.548 69.5859C137.602 64.8411 138.578 60.8199 141.276 58.7667C141.646 58.4904 142.324 58.3871 143.404 58.54C144.447 58.6878 145.664 59.0419 146.95 59.4323C147.068 59.4682 147.187 59.5044 147.306 59.5407C148.458 59.8917 149.65 60.2548 150.723 60.4639C151.868 60.6872 153.078 60.7807 154.008 60.3211C155.839 59.4268 157.571 58.4255 159.249 57.4552C159.977 57.0345 160.694 56.6196 161.405 56.2218C163.78 54.8936 166.133 53.7244 168.745 53.0112C172.697 51.963 175.682 48.8081 178.438 45.7046C178.672 45.4413 178.904 45.1784 179.135 44.9168C181.695 42.0182 184.117 39.2754 187.094 37.8819L187.096 37.8809C187.479 37.7002 188.056 37.7167 188.904 38.037C189.732 38.3498 190.67 38.8944 191.679 39.5359C192.045 39.7691 192.426 40.018 192.81 40.2698C193.452 40.6899 194.106 41.1177 194.726 41.492C195.722 42.0931 196.744 42.6286 197.689 42.8536L197.71 42.8586L197.731 42.8624C198.439 42.9869 199.246 43.09 200.007 42.5823L200.015 42.5767L200.023 42.5709C204.494 39.4123 209.808 39.896 214.692 42.427L214.692 42.4271M197.241 108.564L214.692 42.4271M204.807 89.16C204.807 89.159 204.807 89.1581 204.808 89.1571L205.533 89.3104M204.807 89.16C204.807 89.1604 204.807 89.1609 204.807 89.1614L205.533 89.3104M204.807 89.16C204.967 88.428 205.125 87.6654 205.286 86.8837C205.69 84.9354 206.118 82.8682 206.659 80.8597C207.417 78.0404 208.418 75.2514 209.947 72.9214M205.533 89.3104C205.696 88.5617 205.856 87.7888 206.019 87.001C206.986 82.3334 208.061 77.1392 210.57 73.3215M209.947 72.9214C209.945 72.9251 209.943 72.9289 209.94 72.9327L210.57 73.3215M209.947 72.9214C209.949 72.9178 209.952 72.9143 209.954 72.9107L210.57 73.3215M209.947 72.9214L210.57 73.3215M214.692 42.4271L214.704 42.4329L214.692 42.4271ZM211.967 70.4339C211.966 70.4353 211.965 70.4366 211.963 70.4379L212.481 70.9696L211.971 70.4302C211.97 70.4314 211.968 70.4327 211.967 70.4339ZM219.113 46.3024C219.115 46.3045 219.117 46.3065 219.118 46.3085C219.126 46.3177 219.136 46.3295 219.142 46.3357C219.142 46.3365 219.143 46.3372 219.143 46.3377L219.145 46.3398C219.15 46.3459 219.147 46.3427 219.142 46.3355C219.142 46.3354 219.142 46.3352 219.141 46.335C219.132 46.3222 219.085 46.2608 219.052 46.1621L219.083 46.2564L219.113 46.3024ZM219.603 45.662L218.896 45.9143C218.911 45.9597 218.928 46.0014 218.946 46.0397C218.96 46.0609 218.975 46.0822 218.99 46.1036L219.603 45.662Z"
        stroke="#338EFF" stroke-opacity="0.5" stroke-width="1.5" stroke-miterlimit="10" />
    <path
        d="M208.292 91.4218L208.291 91.4256C208.045 92.5951 207.812 93.8946 207.565 95.2715C207.049 98.1546 206.471 101.377 205.584 104.456C204.27 109.012 202.358 112.916 199.254 114.687C196.546 116.196 193.315 115.595 190.252 114.302C188.012 113.33 185.855 111.984 183.651 110.537C183.241 110.268 182.829 109.995 182.415 109.721C180.617 108.53 178.775 107.309 176.861 106.244C174.509 104.903 172.315 104.107 170.17 103.759L170.163 103.758C165.248 103.018 160.797 104.803 155.767 106.821C155.664 106.862 155.561 106.904 155.457 106.946L155.456 106.946C150.595 108.899 146.222 108.145 142.532 105.746C138.814 103.331 135.771 99.2289 133.705 94.4917C132.181 90.9729 130.935 87.3906 130.324 83.7507L130.323 83.746C130.303 83.6331 130.283 83.5192 130.263 83.4045C129.463 78.8221 128.414 72.8091 128.399 67.2446C128.384 61.4862 129.482 56.5233 132.761 53.999C133.243 53.6481 134.107 53.553 135.426 53.7772C136.706 53.9947 138.197 54.4707 139.758 54.9866C139.89 55.0305 140.024 55.0747 140.157 55.1189C141.568 55.5868 143.019 56.0676 144.318 56.3523C145.697 56.6547 147.12 56.7906 148.191 56.2591L148.194 56.2575C150.294 55.2022 152.282 54.031 154.21 52.8945C155.177 52.3248 156.129 51.7638 157.072 51.2306C159.927 49.6177 162.777 48.2149 165.984 47.4011L165.989 47.3999C170.583 46.2022 173.995 42.3813 177.16 38.5746C177.448 38.2281 177.735 37.8816 178.02 37.5366C180.935 34.0062 183.724 30.6291 187.207 28.8901L187.212 28.8875C187.657 28.6608 188.337 28.6923 189.343 29.1173C190.323 29.531 191.436 30.2421 192.624 31.0754C193.107 31.4145 193.613 31.7814 194.123 32.151C194.825 32.6597 195.534 33.1736 196.2 33.6272C197.359 34.4154 198.528 35.1218 199.59 35.4613C200.545 35.8035 201.468 35.8455 202.289 35.3278L202.307 35.3169L202.324 35.305C207.633 31.546 214.054 32.2305 219.769 35.2286C221.494 36.1379 223.288 37.3479 224.905 39.6869C224.907 39.6898 224.908 39.6926 224.91 39.6953C224.929 39.7302 224.947 39.7599 224.962 39.782C224.986 39.8194 225.013 39.8553 225.028 39.8756L225.033 39.8895L225.087 39.9721C227.221 43.2104 228.306 47.4733 228.509 51.479C228.715 55.5113 228.02 59.1157 226.769 61.079C225.493 63.0815 223.839 64.2124 222.032 65.2688C221.753 65.4318 221.468 65.5941 221.18 65.7583C219.63 66.6406 217.976 67.5826 216.559 69.0346C215.668 69.9137 214.903 70.9028 214.237 71.9252L214.235 71.9273C212.413 74.7457 211.261 78.1079 210.399 81.4992C209.839 83.7004 209.391 85.9642 208.965 88.1139C208.739 89.2577 208.519 90.3692 208.292 91.4218Z"
        stroke="#338EFF" stroke-opacity="0.5" stroke-width="1.5" stroke-miterlimit="10" />
    <path
        d="M233.17 58.3301L233.173 58.3253C234.644 56.019 235.434 51.7947 235.184 47.0831C234.936 42.3994 233.667 37.4023 231.196 33.5979L231.143 33.5171L231.129 33.4715L231.128 33.4705C231.099 33.4321 231.038 33.3507 230.984 33.2335C229.081 30.4778 227.001 29.0684 224.984 27.9585C218.354 24.4516 210.982 23.5851 204.835 27.9411C203.907 28.6196 202.736 28.4162 201.765 28.0538C200.562 27.6125 199.223 26.7413 197.883 25.7654C197.109 25.2022 196.293 24.5714 195.484 23.9458C194.9 23.4946 194.32 23.0461 193.761 22.6276C192.393 21.6017 191.105 20.715 189.974 20.1827C188.81 19.6351 188.02 19.5626 187.511 19.8108C185.348 20.9267 183.407 22.6478 181.542 24.6862C180.045 26.3213 178.626 28.1273 177.187 29.9592C176.825 30.4188 176.463 30.88 176.098 31.3406C172.509 35.8654 168.636 40.3627 163.344 41.6511L163.342 41.6516C159.54 42.5658 156.183 44.2246 152.845 46.1239C151.788 46.7251 150.727 47.3548 149.652 47.992C147.363 49.3503 145.015 50.743 142.532 51.9681C141.91 52.2773 141.191 52.3729 140.457 52.3547C139.717 52.3364 138.909 52.2011 138.076 52.0021C136.575 51.6439 134.896 51.0552 133.253 50.4789C133.077 50.4173 132.902 50.3558 132.727 50.2948C130.893 49.6536 129.13 49.0603 127.621 48.7853C126.064 48.5016 125.025 48.6076 124.442 49.0597L124.437 49.0633L124.437 49.0633C122.508 50.5362 121.232 52.7436 120.448 55.4659C119.663 58.1914 119.387 61.3857 119.429 64.7554C119.508 71.05 120.692 77.8117 121.606 83.0294C121.671 83.4025 121.735 83.7678 121.797 84.1244L233.17 58.3301ZM233.17 58.3301C231.705 60.6632 229.78 61.9852 227.677 63.2234C227.355 63.413 227.027 63.6015 226.694 63.7922C224.888 64.8292 222.97 65.9309 221.315 67.6296M233.17 58.3301L221.834 68.1604M201.333 120.767C205.017 118.748 207.262 114.164 208.784 108.847C209.823 105.22 210.487 101.412 211.075 98.0416C211.347 96.4841 211.602 95.0202 211.87 93.7111C212.076 92.685 212.278 91.6173 212.485 90.5231C212.995 87.8213 213.537 84.9579 214.239 82.1598C215.229 78.219 216.557 74.3227 218.632 71.0367M201.333 120.767L219.256 71.4341M201.333 120.767C198.059 122.557 194.212 121.665 190.666 120.077M201.333 120.767L190.666 120.077M218.632 71.0367C218.632 71.0362 218.632 71.0357 218.633 71.0353L219.256 71.4341M218.632 71.0367C218.631 71.0372 218.631 71.0377 218.631 71.0381L219.256 71.4341M218.632 71.0367C219.39 69.8244 220.313 68.6255 221.315 67.6296M219.256 71.4341C219.99 70.2615 220.879 69.109 221.834 68.1604M221.315 67.6296C221.314 67.6313 221.312 67.6329 221.311 67.6346L221.834 68.1604M221.315 67.6296C221.317 67.6281 221.319 67.6265 221.32 67.6249L221.834 68.1604M190.666 120.077C188.104 118.919 185.658 117.318 183.171 115.61C182.749 115.32 182.326 115.027 181.9 114.732C179.836 113.303 177.727 111.843 175.532 110.588C172.884 109.042 170.353 108.137 167.897 107.749C167.897 107.749 167.897 107.749 167.897 107.749L167.768 108.496M190.666 120.077L135.968 109.908C131.629 107.051 128.107 102.229 125.716 96.7334M167.768 108.496C162.34 107.627 157.404 109.618 151.422 112.058M167.768 108.496C170.126 108.869 172.573 109.74 175.155 111.247L167.768 108.496ZM151.422 112.058L151.161 111.356C151.161 111.356 151.16 111.356 151.16 111.357C151.159 111.357 151.158 111.357 151.157 111.358L151.422 112.058ZM151.422 112.058C139.437 116.871 129.889 108.214 125.032 97.0462M125.032 97.0462L125.718 96.7379C125.717 96.7364 125.716 96.7349 125.716 96.7334M125.032 97.0462L125.714 96.7288C125.715 96.7303 125.715 96.7318 125.716 96.7334M125.032 97.0462L125.716 96.7334"
        stroke="#338EFF" stroke-opacity="0.5" stroke-width="1.5" stroke-miterlimit="10" />
    <path
        d="M203.335 126.787L203.342 126.783C207.641 124.503 210.201 119.244 211.912 113.168C213.062 109.084 213.79 104.797 214.436 100.991C214.75 99.1401 215.045 97.4031 215.36 95.8584M203.335 126.787L216.088 95.997M203.335 126.787C199.624 128.808 195.115 127.71 191.098 125.832C188.199 124.451 185.445 122.598 182.644 120.649C182.306 120.414 181.968 120.177 181.629 119.94C179.167 118.22 176.655 116.464 174.012 114.976C171.018 113.261 168.222 112.221 165.449 111.792C159.139 110.735 153.404 113.041 146.664 115.75L146.657 115.753C140.044 118.481 134.141 117.423 129.194 114.148C124.217 110.854 120.192 105.299 117.477 99.0423L117.476 99.0397C115.42 94.3498 113.75 89.4766 112.937 84.5412L112.937 84.5388C112.814 83.8081 112.683 83.0446 112.547 82.2533C111.554 76.4607 110.304 69.1763 110.168 62.3507C110.091 58.4753 110.376 54.7917 111.251 51.6439C112.126 48.4992 113.576 45.939 115.797 44.2303L115.8 44.2281M203.335 126.787L115.8 44.2281M215.36 95.8584L216.088 95.997M215.36 95.8584C215.36 95.8591 215.359 95.8599 215.359 95.8606L216.088 95.997M215.36 95.8584C215.612 94.5985 215.859 93.2826 216.112 91.9325C216.671 88.9466 217.262 85.7932 218.021 82.707C219.127 78.2139 220.609 73.7699 222.937 70.0137M216.088 95.997C216.345 94.7166 216.594 93.3889 216.848 92.032C218.217 84.7243 219.744 76.5702 223.567 70.4036M222.937 70.0137C222.937 70.0147 222.936 70.0158 222.935 70.0168L223.567 70.4036M222.937 70.0137C222.938 70.0125 222.939 70.0113 222.939 70.0101L223.567 70.4036M222.937 70.0137L223.567 70.4036M207.057 20.6L207.049 20.6057C206.012 21.2976 204.809 21.1535 203.666 20.6529C202.308 20.1296 200.8 19.1012 199.288 17.9425C198.392 17.2567 197.454 16.4917 196.523 15.7331C195.882 15.2103 195.245 14.6906 194.627 14.2019C193.081 12.9777 191.624 11.9147 190.34 11.2745C189.019 10.6156 188.108 10.5182 187.509 10.828M207.057 20.6L187.509 10.828M207.057 20.6L207.066 20.5941L207.057 20.6ZM187.509 10.828C187.51 10.8276 187.51 10.8272 187.511 10.8268L187.18 10.1571L187.507 10.829C187.508 10.8287 187.508 10.8283 187.509 10.828ZM115.8 44.2281C116.118 43.9812 116.573 43.8222 117.203 43.7784C117.833 43.7346 118.589 43.8099 119.454 43.9844C121.189 44.3344 123.222 45.0521 125.331 45.8188C125.499 45.8798 125.667 45.9411 125.836 46.0024C127.76 46.7036 129.726 47.4195 131.476 47.8566C132.431 48.095 133.351 48.2583 134.189 48.2867C135.021 48.3149 135.826 48.2122 136.516 47.8687L115.8 44.2281ZM237.182 27.1714C237.201 27.1936 237.221 27.2159 237.243 27.238L237.773 26.6956L237.149 27.1218C237.16 27.1384 237.171 27.1549 237.182 27.1714ZM236.972 26.8735L236.976 26.8781C236.973 26.8749 236.971 26.8722 236.971 26.8722C236.971 26.8722 236.971 26.8726 236.972 26.8735ZM230.361 20.0074L229.999 20.6756C230 20.6759 230.001 20.6763 230.001 20.6766C230.002 20.6772 230.004 20.6778 230.005 20.6784L230.361 20.0074Z"
        stroke="#338EFF" stroke-opacity="0.5" stroke-width="1.5" stroke-miterlimit="10" />
    <path
        d="M191.495 131.561L191.499 131.564C195.992 133.79 201.089 135.066 205.403 132.821C210.277 130.257 213.17 124.312 215.089 117.48C216.405 112.793 217.224 107.855 217.944 103.513C218.272 101.536 218.579 99.6824 218.904 98.0325C219.18 96.608 219.449 95.1171 219.725 93.5853C220.327 90.2507 220.964 86.7219 221.789 83.2616C222.998 78.1991 224.63 73.1872 227.214 68.9584L227.218 68.9516C228.212 67.3632 229.266 65.8867 230.539 64.5622C232.631 62.3672 235.078 60.9625 237.411 59.6232C237.812 59.3933 238.209 59.1653 238.6 58.9355C241.3 57.351 243.807 55.6496 245.715 52.6274C247.591 49.6057 248.574 44.1521 248.24 38.1058C247.908 32.1055 246.287 25.6839 243.123 20.7345C243.043 20.6422 242.988 20.5541 242.958 20.5068L242.952 20.497C242.928 20.458 242.917 20.4428 242.914 20.4386L242.869 20.3929L242.829 20.3336C240.426 16.7302 237.666 14.8639 235.07 13.4097C226.77 8.90618 217.332 7.64444 209.366 13.256C208.235 14.0934 206.856 13.7637 205.654 13.2815L205.646 13.2784C204.142 12.6552 202.46 11.4565 200.762 10.1039C199.771 9.31457 198.735 8.43874 197.706 7.56935C196.979 6.95523 196.255 6.34432 195.555 5.76938C193.829 4.35273 192.2 3.11897 190.772 2.37234C189.297 1.60128 188.286 1.48148 187.631 1.83826L187.631 1.83851C184.902 3.32267 182.477 5.61514 180.163 8.31508C178.349 10.4314 176.632 12.7616 174.897 15.1165C174.415 15.7715 173.931 16.4284 173.443 17.0832C169.018 23.0222 164.256 28.8302 157.627 30.3219L157.626 30.3222C152.63 31.4381 148.266 33.5884 143.962 36.0596C142.564 36.8624 141.165 37.7045 139.75 38.5553C136.844 40.3037 133.876 42.0892 130.734 43.6479C129.977 44.0256 129.087 44.1352 128.158 44.0965C127.223 44.0576 126.193 43.8657 125.12 43.5871C123.143 43.0744 120.919 42.2407 118.735 41.4217C118.552 41.3531 118.37 41.2846 118.188 41.2164C115.804 40.3244 113.497 39.4839 111.526 39.0632C110.543 38.8533 109.678 38.7561 108.953 38.7974C108.229 38.8388 107.697 39.0153 107.32 39.3027C104.802 41.2307 103.172 44.1365 102.202 47.7031C101.23 51.2727 100.933 55.4517 101.044 59.8424C101.235 67.4552 102.645 75.5689 103.769 82.0434C103.943 83.0435 104.11 84.0044 104.265 84.9184L191.495 131.561ZM191.495 131.561C188.27 129.991 185.218 127.92 182.128 125.742C181.695 125.436 181.261 125.128 180.825 124.82C178.171 122.939 175.469 121.024 172.63 119.37C169.314 117.379 166.181 116.231 163.167 115.738L163.164 115.737C156.168 114.625 149.752 117.095 142.285 120.141L142.283 120.141C134.781 123.225 128.116 122.004 122.549 118.288C116.951 114.551 112.446 108.275 109.408 101.259L109.406 101.255M191.495 131.561L109.406 101.255M109.406 101.255C107.083 95.979 105.211 90.4926 104.265 84.9186L109.406 101.255Z"
        stroke="#338EFF" stroke-opacity="0.5" stroke-width="1.5" stroke-miterlimit="10" />
    <path
        d="M191.893 137.319L191.891 137.318C188.33 135.525 184.97 133.202 181.59 130.794C181.218 130.529 180.846 130.263 180.473 129.997C177.472 127.852 174.435 125.682 171.255 123.85C167.591 121.688 164.192 120.406 160.862 119.871C153.221 118.608 146.185 121.223 137.931 124.626C129.504 128.078 122.067 126.714 115.875 122.568C109.652 118.401 104.668 111.405 101.294 103.596C98.7688 97.7058 96.696 91.6056 95.615 85.3939C95.4192 84.2386 95.2042 83.0133 94.9791 81.7314C93.7336 74.636 92.1836 65.8057 91.9276 57.501C91.7766 52.6023 92.0787 47.933 93.1406 43.9451C94.2017 39.96 96.0061 36.7098 98.8222 34.5623L98.8258 34.5595C99.2589 34.2251 99.8667 34.0256 100.682 33.9812C101.498 33.9368 102.468 34.0507 103.567 34.2913C105.77 34.7734 108.349 35.73 111.005 36.743C111.216 36.8235 111.427 36.9044 111.639 36.9853C114.067 37.9132 116.532 38.8551 118.721 39.4388C119.913 39.7569 121.053 39.9771 122.084 40.0263C123.109 40.0753 124.085 39.9585 124.908 39.5472C128.432 37.7985 131.738 35.793 134.974 33.8298C136.529 32.8868 138.067 31.9535 139.606 31.0632C144.38 28.3007 149.238 25.8987 154.865 24.6702L154.867 24.6698C162.171 23.053 167.374 16.5857 172.217 9.939C172.753 9.20281 173.286 8.46378 173.817 7.72664C175.712 5.09528 177.59 2.48806 179.578 0.12042C182.118 -2.905 184.789 -5.47797 187.811 -7.1417C188.552 -7.54554 189.684 -7.38812 191.31 -6.50585C192.887 -5.65046 194.684 -4.24704 196.585 -2.64096C197.368 -1.97905 198.176 -1.27611 198.987 -0.569927C200.109 0.406165 201.238 1.38846 202.318 2.27716C204.188 3.81481 206.032 5.17646 207.676 5.90137C209.048 6.52098 210.536 6.77785 211.72 5.93065C220.464 -0.264907 230.927 1.15824 240.144 6.17419C242.999 7.75626 246.076 9.88982 248.772 13.9271L248.812 13.9861L248.845 14.0195C248.854 14.0339 248.865 14.0537 248.888 14.0939L248.891 14.0993C248.911 14.1354 248.943 14.1917 248.979 14.2474C249.006 14.2887 249.041 14.3401 249.087 14.394C252.608 19.8619 254.425 26.9933 254.807 33.6605C255.192 40.3752 254.113 46.4509 252.015 49.8154C249.896 53.2154 247.101 55.1144 244.104 56.8713C243.667 57.1278 243.223 57.382 242.776 57.6381C240.19 59.1202 237.49 60.6676 235.191 63.0996L235.184 63.1063L235.178 63.1132C233.838 64.5999 232.608 66.2055 231.514 67.9985L231.512 68.0016C228.673 72.7011 226.886 78.2617 225.561 83.8776C224.677 87.6293 223.989 91.4518 223.338 95.0735C223.017 96.8588 222.705 98.5954 222.382 100.251L222.382 100.251C222.03 102.064 221.698 104.108 221.342 106.293C220.56 111.101 219.667 116.592 218.213 121.8C216.094 129.388 212.868 136.018 207.376 138.842L207.372 138.844C202.618 141.322 196.857 139.836 191.893 137.319Z"
        stroke="#338EFF" stroke-opacity="0.5" stroke-width="1.5" stroke-miterlimit="10" />
    <path
        d="M192.319 143.084L192.324 143.086C197.768 145.953 204.113 147.615 209.471 144.915C215.547 141.843 219.1 134.513 221.43 126.146C223.013 120.463 223.991 114.476 224.848 109.231C225.251 106.764 225.627 104.461 226.027 102.432C226.367 100.643 226.695 98.7663 227.033 96.8351C227.733 92.8359 228.473 88.6045 229.441 84.4479C230.879 78.2699 232.838 72.1535 235.977 67.0037C237.155 65.036 238.478 63.2352 240.04 61.6567C242.552 58.9856 245.506 57.2837 248.348 55.6466C248.831 55.3681 249.312 55.0914 249.786 54.8122C253.078 52.8737 256.163 50.7763 258.505 47.0303C260.823 43.3219 261.997 36.6255 261.567 29.2328C261.14 21.8764 259.133 13.9989 255.264 7.96226C255.179 7.84419 255.12 7.74007 255.078 7.66603L255.074 7.65918C255.03 7.58005 255.005 7.53748 254.968 7.4883L254.958 7.47383L254.948 7.45885C251.961 2.99269 248.595 0.659222 245.476 -1.05381C235.431 -6.53768 223.921 -8.19291 214.266 -1.36673L214.257 -1.36082L214.249 -1.35513C212.93 -0.474493 211.361 -0.779172 209.819 -1.48445M192.319 143.084L210.134 -2.17548M192.319 143.084C188.423 141.069 184.774 138.488 181.094 135.825C180.78 135.597 180.465 135.369 180.15 135.141C176.792 132.705 173.39 130.238 169.783 128.162C165.763 125.823 162.033 124.434 158.463 123.834C150.149 122.351 142.508 125.184 133.475 128.941L133.475 128.941C124.217 132.803 116.024 131.293 109.203 126.708C102.351 122.101 96.8649 114.372 93.1682 105.805L93.168 105.804C90.3959 99.3899 88.0576 92.7042 86.8876 85.77L86.8875 85.7693C86.6615 84.4368 86.411 83.0175 86.1482 81.5286C84.7805 73.78 83.0805 64.1481 82.7752 55.0728C82.5934 49.6676 82.9093 44.5068 84.0666 40.0945C85.2231 35.6852 87.2042 32.079 90.3141 29.6943C90.8064 29.3194 91.4925 29.103 92.4022 29.0614C93.3122 29.0197 94.391 29.1558 95.6085 29.4319C98.0475 29.985 100.9 31.0645 103.83 32.2027C104.056 32.2904 104.282 32.3785 104.509 32.4667C107.196 33.5124 109.919 34.5721 112.333 35.2312C113.644 35.5893 114.894 35.8379 116.022 35.8975C117.142 35.9568 118.201 35.833 119.09 35.3889M192.319 143.084L119.09 35.3889M209.819 -1.48445C209.818 -1.48463 209.818 -1.48482 209.817 -1.48501L210.134 -2.17548M209.819 -1.48445C209.819 -1.4843 209.819 -1.48416 209.82 -1.48401L210.134 -2.17548M209.819 -1.48445C208.034 -2.29355 206.021 -3.81499 203.972 -5.53884C202.791 -6.53224 201.558 -7.62842 200.331 -8.71889C199.437 -9.51355 198.547 -10.3052 197.682 -11.0518C195.597 -12.8529 193.62 -14.4315 191.888 -15.3957C190.102 -16.3903 188.849 -16.5777 188.029 -16.1155L188.025 -16.1134C184.711 -14.2701 181.793 -11.4118 179.028 -8.05454C176.873 -5.43862 174.841 -2.55846 172.792 0.345142C172.208 1.17359 171.622 2.00396 171.031 2.83063C165.772 10.1935 160.129 17.321 152.137 19.0277L151.999 18.288M210.134 -2.17548C207.477 -3.38016 204.17 -6.32108 200.844 -9.27782C195.731 -13.824 190.576 -18.4077 187.679 -16.7749C181.567 -13.3762 176.865 -6.71248 172.18 -0.0723368C166.331 8.21755 160.508 16.4707 151.999 18.288M151.999 18.288L152.137 19.0278C145.912 20.357 140.544 23.0165 135.278 26.0688C133.623 27.0275 131.972 28.03 130.305 29.0417C126.697 31.2312 123.018 33.4638 119.09 35.3889M151.999 18.288C143.645 20.0718 136.838 24.2033 129.896 28.4166C126.303 30.5975 122.674 32.8002 118.775 34.7107L119.093 35.3875C119.092 35.388 119.091 35.3885 119.09 35.3889"
        stroke="#338EFF" stroke-opacity="0.5" stroke-width="1.5" stroke-miterlimit="10" />
    <path
        d="M192.687 148.855L192.684 148.854C188.453 146.616 184.496 143.784 180.517 140.859C180.11 140.56 179.703 140.259 179.295 139.959C175.728 137.33 172.119 134.67 168.302 132.391L168.298 132.389C163.988 129.849 159.989 128.326 156.101 127.686C147.036 126.172 138.865 129.191 129.03 133.235L129.027 133.236C118.845 137.466 109.874 135.798 102.425 130.773C94.9431 125.727 88.978 117.277 84.9578 107.951L84.957 107.949C81.9206 100.954 79.4462 93.6309 78.1415 86.0555C77.885 84.5501 77.5989 82.9416 77.2983 81.2514C75.7983 72.8163 73.9359 62.3436 73.5766 52.4723C73.3612 46.552 73.6895 40.8957 74.9428 36.0614C76.1951 31.2306 78.3552 27.2778 81.7628 24.6729C82.315 24.2571 83.0799 24.0232 84.0832 23.983C85.087 23.9427 86.2736 24.0989 87.6082 24.4079C90.2812 25.0267 93.405 26.2229 96.6076 27.4819C96.8649 27.583 97.1227 27.6846 97.3807 27.7862C100.309 28.9398 103.27 30.1063 105.895 30.8395C107.326 31.2391 108.686 31.5189 109.911 31.5937C111.129 31.6681 112.273 31.5438 113.23 31.0764L113.235 31.0739C117.422 28.9905 121.349 26.5919 125.203 24.2377C127.095 23.0822 128.969 21.9373 130.848 20.8457C136.589 17.5105 142.457 14.6155 149.281 13.1854L149.282 13.1852C153.613 12.2722 157.291 9.86685 160.588 6.7018C163.879 3.54219 166.825 -0.409635 169.682 -4.46401C170.335 -5.39134 170.984 -6.32339 171.63 -7.25347C173.826 -10.4108 176.007 -13.5455 178.317 -16.3964C181.304 -20.0817 184.458 -23.2274 188.045 -25.2617C188.952 -25.7722 190.329 -25.5419 192.269 -24.4293C194.152 -23.3496 196.3 -21.5926 198.562 -19.5935C199.506 -18.7596 200.477 -17.8765 201.452 -16.9903C202.777 -15.7848 204.109 -14.5737 205.387 -13.4733C207.609 -11.5587 209.786 -9.87025 211.711 -8.95948C213.362 -8.14264 215.11 -7.79621 216.489 -8.79678C227.055 -16.249 239.585 -14.4277 250.472 -8.41466C253.868 -6.50884 257.505 -3.98926 260.769 0.858493C260.879 1.13019 261.046 1.35369 261.153 1.49701L261.158 1.50379C265.392 8.09184 267.583 16.6997 268.056 24.7328C268.531 32.8032 267.262 40.1224 264.754 44.1643L264.753 44.165C262.2 48.289 258.843 50.5779 255.263 52.6852C254.74 52.9934 254.21 53.2985 253.676 53.6056C250.589 55.382 247.384 57.2266 244.64 60.1401C242.923 61.9269 241.513 63.9097 240.231 65.982L240.225 65.992C236.842 71.646 234.733 78.3282 233.181 85.0696C232.158 89.5142 231.369 94.0322 230.62 98.3117C230.237 100.507 229.864 102.639 229.477 104.666C229.066 106.803 228.676 109.224 228.259 111.819C227.329 117.597 226.26 124.237 224.512 130.523C221.974 139.648 218.087 147.667 211.433 151.022L211.432 151.022C205.637 153.952 198.607 152.015 192.687 148.855Z"
        stroke="#338EFF" stroke-opacity="0.5" stroke-width="1.5" stroke-miterlimit="10" />
    <path
        d="M193.11 154.64L193.111 154.64C199.5 158.089 207.129 160.264 213.501 157.052L213.504 157.05C220.778 153.434 224.998 144.729 227.735 134.85C229.622 128.041 230.765 120.847 231.757 114.603C232.202 111.801 232.617 109.191 233.054 106.893M193.11 154.64L233.785 107.022M193.11 154.64C188.542 152.179 184.284 149.111 179.997 145.962C179.671 145.723 179.345 145.483 179.018 145.242C175.064 142.333 171.065 139.391 166.805 136.882L166.802 136.88C162.133 134.163 157.893 132.579 153.68 131.83L153.676 131.83C143.965 130.165 135.173 133.331 124.553 137.731L124.549 137.733C113.502 142.384 103.776 140.569 95.7067 135.103C87.6043 129.614 81.1543 120.426 76.8104 110.341L76.8094 110.339C73.4813 102.684 70.7416 94.7749 69.3703 86.5457L69.3703 86.5456C69.0666 84.7254 68.7208 82.7645 68.3558 80.6953C66.7658 71.6806 64.813 60.6088 64.4052 50.1486C64.1547 43.7232 64.4907 37.5777 65.8341 32.3209C67.1768 27.0667 69.5101 22.7585 73.2131 19.9163M193.11 154.64L76.1278 110.656M233.054 106.893L233.785 107.022M233.054 106.893C233.054 106.893 233.054 106.894 233.054 106.895L233.785 107.022M233.054 106.893C233.459 104.733 233.848 102.462 234.248 100.123C235.045 95.4645 235.888 90.536 236.994 85.6845C238.66 78.3799 240.941 71.1409 244.626 65.0363L244.627 65.0342C246.004 62.7678 247.523 60.6755 249.319 58.7147L249.325 58.7081C252.283 55.5512 255.756 53.546 259.109 51.6103C259.683 51.2794 260.252 50.9504 260.815 50.6181C264.699 48.326 268.344 45.8393 271.086 41.3837C273.808 36.9612 275.175 29.0349 274.661 20.3057C274.149 11.6136 271.78 2.29032 267.199 -4.89679M233.785 107.022C234.194 104.837 234.585 102.553 234.986 100.207C236.977 88.5692 239.229 75.4093 245.258 65.4218C246.613 63.1916 248.102 61.1414 249.858 59.2235C252.732 56.1568 256.096 54.2135 259.451 52.2755C263.96 49.6706 268.453 47.0754 271.715 41.775C277.403 32.531 277.165 9.3107 267.811 -5.33952M267.199 -4.89679L267.214 -4.87644L267.811 -5.33952M267.199 -4.89679C267.194 -4.90417 267.189 -4.91155 267.185 -4.91893L267.811 -5.33952M267.199 -4.89679L267.195 -4.90239C267.088 -5.04554 266.922 -5.26858 266.812 -5.5397M267.811 -5.33952C267.678 -5.51954 267.544 -5.69957 267.477 -5.90342M267.477 -5.90342L266.861 -5.46745C266.844 -5.49158 266.828 -5.51567 266.812 -5.5397M267.477 -5.90342C263.847 -11.2871 259.774 -14.1592 255.947 -16.2838M267.477 -5.90342L266.771 -5.65109C266.783 -5.61315 266.797 -5.576 266.812 -5.5397M266.812 -5.5397C263.279 -10.7511 259.328 -13.5378 255.582 -15.6174M255.947 -16.2838L255.583 -15.6168C255.583 -15.617 255.582 -15.6172 255.582 -15.6174M255.947 -16.2838C244.04 -22.8104 230.202 -25.0027 218.395 -16.6856C217.238 -15.893 215.814 -16.1434 214.056 -16.9578C210.948 -18.476 207.073 -22.0477 203.183 -25.6335C197.188 -31.1605 191.156 -36.7208 187.838 -34.8449M255.947 -16.2838L255.58 -15.6186C255.58 -15.6182 255.581 -15.6178 255.582 -15.6174M255.582 -15.6174C243.798 -22.0765 230.286 -24.1514 218.81 -16.0671L218.802 -16.0615C217.287 -15.0233 215.519 -15.4427 213.736 -16.2688L213.729 -16.2719L213.723 -16.2751C211.654 -17.2857 209.307 -19.1371 206.904 -21.238C205.526 -22.4432 204.091 -23.766 202.662 -25.0831C201.608 -26.0539 200.559 -27.0215 199.537 -27.9366C197.097 -30.1237 194.778 -32.0505 192.749 -33.2408C191.736 -33.8355 190.832 -34.2234 190.052 -34.3809C189.279 -34.5369 188.674 -34.4595 188.19 -34.1867M188.19 -34.1867C188.191 -34.187 188.191 -34.1873 188.192 -34.1876L187.838 -34.8449M188.19 -34.1867C188.19 -34.1865 188.19 -34.1863 188.189 -34.1861L187.838 -34.8449M188.19 -34.1867C184.31 -31.9723 180.91 -28.5412 177.699 -24.5245C175.221 -21.4247 172.886 -18.0163 170.535 -14.5859C169.836 -13.5652 169.135 -12.5425 168.429 -11.5254C165.364 -7.11189 162.204 -2.81679 158.665 0.607606C155.121 4.03771 151.16 6.63036 146.488 7.5882M187.838 -34.8449C180.747 -30.7988 175.321 -22.8804 169.917 -14.9937C163.119 -5.07304 156.355 4.79741 146.355 6.84722M146.355 6.84722L146.488 7.58802C146.488 7.58808 146.488 7.58814 146.488 7.5882M146.355 6.84722C136.375 8.90513 128.288 13.8442 120.053 18.873C115.843 21.4436 111.595 24.0377 107.037 26.2825C103.736 27.8991 97.1172 25.272 90.449 22.6253C83.2342 19.7617 75.9619 16.8752 72.7727 19.3164M146.355 6.84722L146.488 7.5882M146.488 7.5882C139.064 9.11913 132.687 12.2719 126.454 15.8967C124.459 17.0571 122.47 18.2715 120.465 19.4959C116.239 22.0764 111.939 24.7018 107.35 26.9615L107.349 26.9622C106.326 27.4629 105.097 27.5952 103.781 27.5114C102.459 27.4271 100.986 27.1202 99.4342 26.6821C96.5819 25.8771 93.3612 24.5986 90.1738 23.3334C89.8977 23.2238 89.6218 23.1143 89.3465 23.0052C85.867 21.6267 82.4697 20.3148 79.5674 19.6332C78.118 19.2929 76.8282 19.1189 75.7377 19.1606C74.6468 19.2023 73.8133 19.4572 73.2131 19.9163M73.2131 19.9163C73.2132 19.9163 73.2132 19.9162 73.2133 19.9162L72.7727 19.3164M73.2131 19.9163C73.2129 19.9165 73.2127 19.9167 73.2125 19.9168L72.7727 19.3164M72.7727 19.3164C58.6777 30.1345 64.0824 60.7718 67.6269 80.8647C67.9908 82.9275 68.3351 84.8791 68.6366 86.6868C70.0216 94.998 72.7856 102.968 76.1278 110.656M76.1278 110.656C84.8846 130.986 102.226 147.944 124.822 138.43C135.452 134.025 144.06 130.951 153.538 132.575L76.1278 110.656Z"
        stroke="#338EFF" stroke-opacity="0.5" stroke-width="1.5" stroke-miterlimit="10" />
    <path
        d="M193.498 160.404L193.495 160.403C188.592 157.719 184.027 154.399 179.418 151.012C179.228 150.872 179.037 150.732 178.847 150.592C174.439 147.35 169.977 144.069 165.182 141.308C160.194 138.317 155.553 136.651 151.104 135.84L151.099 135.839C140.741 134.024 131.346 137.405 119.947 142.16L119.945 142.161C108.042 147.156 97.5542 145.178 88.8552 139.271C80.1237 133.343 73.1782 123.44 68.5112 112.598C64.9812 104.328 62.0401 95.8063 60.5347 86.9395L60.5346 86.9385C60.21 85.0415 59.8426 83.0004 59.455 80.8472C57.7001 71.0988 55.5316 59.053 55.059 47.6782C54.7707 40.7395 55.117 34.0993 56.5552 28.421C57.9926 22.7457 60.5047 18.0905 64.5058 15.0278C65.166 14.5279 66.0785 14.2565 67.2635 14.2179C68.4484 14.1793 69.8467 14.3757 71.414 14.7516C74.5523 15.5043 78.2231 16.9392 81.9768 18.4429C82.2669 18.5591 82.5575 18.6758 82.8484 18.7925C86.295 20.1757 89.7738 21.5719 92.8516 22.4524C94.5228 22.9305 96.1057 23.2657 97.5245 23.3602C98.9365 23.4541 100.249 23.3143 101.337 22.7805L101.338 22.7798C106.274 20.3446 110.885 17.5126 115.42 14.7274C117.573 13.4055 119.708 12.094 121.852 10.8406C128.549 6.927 135.421 3.52191 143.477 1.87839C148.485 0.85823 152.729 -1.92641 156.526 -5.62053C160.317 -9.30892 163.7 -13.9404 166.98 -18.7065C167.756 -19.8325 168.524 -20.9654 169.292 -22.0961C171.787 -25.773 174.268 -29.4277 176.897 -32.7554C180.331 -37.1011 183.967 -40.8201 188.121 -43.2259C188.656 -43.5342 189.321 -43.6198 190.159 -43.4501C191.005 -43.2787 191.982 -42.8547 193.075 -42.206C195.261 -40.908 197.756 -38.8055 200.377 -36.422C201.484 -35.4155 202.622 -34.3512 203.763 -33.2841C205.287 -31.8582 206.816 -30.4273 208.285 -29.123C210.861 -26.8345 213.373 -24.8222 215.582 -23.7275C217.513 -22.7703 219.398 -22.418 220.968 -23.4663L220.977 -23.472L220.985 -23.4779C233.24 -32.1428 247.841 -29.9261 260.469 -22.9349L260.471 -22.934C264.59 -20.6687 268.847 -17.6673 272.614 -11.9612L272.625 -11.9444L272.637 -11.9282C272.693 -11.8536 272.756 -11.7609 272.83 -11.6503L272.835 -11.6436C272.899 -11.5487 272.973 -11.4396 273.045 -11.3417C277.994 -3.60265 280.547 6.45268 281.104 15.823C281.663 25.2296 280.201 33.7785 277.29 38.5344L277.29 38.5349C274.337 43.3684 270.404 46.0527 266.223 48.5172C265.614 48.8763 264.998 49.2315 264.378 49.5887C260.773 51.6667 257.048 53.8138 253.883 57.2058L253.879 57.2104C251.971 59.2873 250.296 61.5885 248.828 64.0421L248.825 64.0461C244.932 70.6423 242.518 78.4395 240.748 86.3026C239.596 91.4202 238.707 96.6146 237.865 101.537C237.416 104.16 236.981 106.705 236.526 109.12L236.525 109.122C236.076 111.528 235.648 114.255 235.188 117.182C234.124 123.958 232.892 131.805 230.838 139.221C227.892 149.857 223.34 159.25 215.488 163.149C208.648 166.532 200.37 164.205 193.498 160.404Z"
        stroke="#338EFF" stroke-opacity="0.5" stroke-width="1.5" stroke-miterlimit="10" />
    <path
        d="M193.902 166.169L193.903 166.169C201.243 170.26 210.122 172.825 217.539 169.16L217.54 169.159C226.012 164.999 230.898 154.92 234.04 143.52C236.242 135.536 237.547 127.078 238.671 119.794C239.149 116.696 239.595 113.81 240.063 111.262L240.063 111.261C240.53 108.74 240.977 106.087 241.438 103.353C242.336 98.0314 243.285 92.405 244.529 86.8549C246.416 78.4369 249.001 70.0845 253.184 63.0053M193.902 166.169L253.82 63.3845M193.902 166.169C188.665 163.263 183.81 159.687 178.927 156.029C178.605 155.787 178.282 155.545 177.959 155.303C173.405 151.888 168.805 148.437 163.875 145.485L163.872 145.483C158.531 142.318 153.621 140.517 148.855 139.664L148.852 139.664C137.783 137.724 127.702 141.274 115.585 146.361L115.584 146.361C102.768 151.759 91.5126 149.654 82.1918 143.326C72.8374 136.976 65.4127 126.351 60.411 114.717M193.902 166.169L59.7281 115.031M253.184 63.0053L253.82 63.3845M253.184 63.0053C253.184 63.0054 253.184 63.0055 253.184 63.0056L253.82 63.3845M253.184 63.0053C254.745 60.3615 256.532 57.9462 258.588 55.668L258.593 55.6627C261.985 51.9734 265.996 49.6597 269.884 47.4163C270.517 47.0514 271.146 46.6884 271.769 46.3217C276.249 43.6836 280.475 40.8179 283.65 35.6395L283.651 35.6389C286.783 30.5397 288.323 21.3765 287.702 11.2979C287.084 1.24828 284.325 -9.54342 279.032 -17.8505L279.03 -17.8543C278.959 -17.9664 278.894 -18.0639 278.821 -18.1716L278.819 -18.1744C278.749 -18.278 278.672 -18.3915 278.589 -18.523M253.82 63.3845C255.353 60.7871 257.109 58.4137 259.132 56.1727C262.438 52.5772 266.337 50.3266 270.228 48.08C275.391 45.0997 280.542 42.1265 284.28 36.0296C290.791 25.4288 290.416 -1.38797 279.659 -18.2705C279.581 -18.3946 279.509 -18.5016 279.437 -18.6086C279.364 -18.7156 279.292 -18.8226 279.214 -18.9465M278.589 -18.523C278.591 -18.5207 278.592 -18.5183 278.594 -18.516L279.214 -18.9465M278.589 -18.523C274.533 -24.6534 269.988 -27.8533 265.606 -30.2492L265.6 -30.2523C252.129 -37.7744 236.505 -40.1577 223.339 -30.8648M278.589 -18.523C278.588 -18.5254 278.586 -18.5278 278.585 -18.5302L279.214 -18.9465M279.214 -18.9465C275.072 -25.2103 270.42 -28.4831 265.969 -30.9166C252.371 -38.5093 236.418 -41.0095 222.92 -31.481M187.933 -52.9174C179.879 -48.1983 173.729 -39.0473 167.605 -29.9365C159.848 -18.3947 152.134 -6.91729 140.647 -4.59596C128.999 -2.24868 119.646 3.49243 110.134 9.33111C105.314 12.2892 100.454 15.2724 95.2343 17.852C91.4422 19.7171 83.782 16.6064 76.0584 13.47C67.7016 10.0765 59.2706 6.65279 55.5844 9.4688C39.2973 21.9021 45.735 57.5524 49.9189 80.7216C50.3445 83.0785 50.7468 85.3062 51.0995 87.3672M187.933 -52.9174L188.291 -52.262C188.292 -52.2624 188.292 -52.2627 188.293 -52.2631M187.933 -52.9174C191.702 -55.0938 198.637 -48.5415 205.526 -42.0324C209.979 -37.8256 214.412 -33.6369 217.959 -31.8343C219.918 -30.8638 221.653 -30.5728 222.92 -31.481M187.933 -52.9174L188.295 -52.2644C188.294 -52.264 188.294 -52.2635 188.293 -52.2631M188.293 -52.2631C183.851 -49.6597 179.969 -45.6498 176.312 -40.9753C173.515 -37.4007 170.878 -33.4781 168.228 -29.5355C167.408 -28.316 166.587 -27.0946 165.76 -25.881C162.273 -20.7658 158.679 -15.8023 154.65 -11.8552C150.615 -7.90221 146.105 -4.93114 140.778 -3.85457L140.777 -3.85449C132.121 -2.11007 124.732 1.53668 117.541 5.73133C115.208 7.09212 112.887 8.51671 110.548 9.95223C105.712 12.9207 100.799 15.936 95.5485 18.5305L95.5472 18.5312C94.3941 19.0983 92.9971 19.2445 91.4883 19.1386C89.9724 19.0322 88.2787 18.6662 86.4875 18.1455C83.1949 17.1882 79.4714 15.676 75.778 14.1761C75.4586 14.0464 75.1394 13.9167 74.8207 13.7876C70.7917 12.1544 66.8469 10.5947 63.4745 9.77417C61.7901 9.36431 60.285 9.14846 59.0082 9.1882C57.7306 9.22796 56.7413 9.52142 56.0236 10.0697L56.0234 10.0699C51.7225 13.3531 49.0308 18.3563 47.497 24.4533C45.9627 30.5526 45.6034 37.6862 45.924 45.1356C46.4468 57.2852 48.7684 70.1436 50.6473 80.5496C51.074 82.9127 51.4778 85.1494 51.8325 87.2225M188.293 -52.2631C188.863 -52.5915 189.573 -52.6778 190.468 -52.4882C191.373 -52.2967 192.416 -51.8327 193.582 -51.1285C195.914 -49.7196 198.58 -47.4474 201.38 -44.8758C202.564 -43.7883 203.78 -42.6396 204.998 -41.4881C206.626 -39.9505 208.259 -38.4077 209.829 -36.9984C212.584 -34.5257 215.264 -32.3517 217.615 -31.1567L217.622 -31.1535C219.61 -30.1681 221.703 -29.694 223.339 -30.8648M51.8325 87.2225C51.8325 87.2223 51.8325 87.222 51.8324 87.2218L51.0995 87.3672M51.8325 87.2225C51.8326 87.2226 51.8326 87.2227 51.8326 87.2228L51.0995 87.3672M51.8325 87.2225C53.472 96.7266 56.6367 105.929 60.411 114.717M51.0995 87.3672C52.7523 96.9496 55.94 106.211 59.7281 115.031M59.7281 115.031L60.4109 114.716C60.4109 114.717 60.4109 114.717 60.411 114.717M59.7281 115.031L60.411 114.717M223.339 -30.8648C223.338 -30.8642 223.337 -30.8636 223.336 -30.8631L222.92 -31.481M223.339 -30.8648C223.34 -30.8653 223.34 -30.8657 223.341 -30.8662L222.92 -31.481"
        stroke="#338EFF" stroke-opacity="0.5" stroke-width="1.5" stroke-miterlimit="10" />
    <path
        d="M137.989 -9.39098C143.658 -10.5126 148.448 -13.6702 152.731 -17.8878C157.007 -22.0994 160.815 -27.4058 164.511 -32.8801C165.39 -34.1829 166.263 -35.4944 167.134 -36.8041C169.94 -41.0203 172.732 -45.2173 175.698 -49.0412C179.58 -54.048 183.708 -58.3445 188.445 -61.1282L188.445 -61.1285C189.058 -61.4893 189.818 -61.5826 190.772 -61.3783C191.734 -61.1721 192.842 -60.6715 194.078 -59.9134C196.552 -58.3968 199.38 -55.9505 202.351 -53.1835C203.59 -52.0304 204.859 -50.8152 206.133 -49.5963C207.882 -47.9226 209.638 -46.2418 211.331 -44.7045C214.26 -42.0444 217.112 -39.7072 219.623 -38.4163C221.779 -37.2326 223.919 -36.7997 225.679 -38.0009L225.689 -38.0076C239.766 -47.9311 256.369 -45.2935 270.736 -37.3271C275.413 -34.7285 280.25 -31.3258 284.597 -24.7623L284.608 -24.7459L284.619 -24.7301C284.732 -24.578 284.871 -24.3575 285.033 -24.101L285.034 -24.0984C290.662 -15.2268 293.605 -3.70284 294.268 7.02384C294.934 17.7801 293.299 27.5643 289.946 33.0079L289.944 33.0111C286.558 38.568 282.058 41.6255 277.291 44.4326C276.619 44.8284 275.94 45.2198 275.257 45.6132C271.126 47.9943 266.868 50.4488 263.245 54.3761C261.044 56.7128 259.167 59.3172 257.521 62.1388C253.071 69.6556 250.331 78.5574 248.331 87.5367C247.034 93.3581 246.039 99.2623 245.097 104.856C244.589 107.872 244.096 110.798 243.579 113.571L243.579 113.574C243.09 116.249 242.623 119.282 242.121 122.54C240.923 130.313 239.528 139.368 237.169 147.915C233.816 160.063 228.598 170.831 219.548 175.274C211.664 179.108 202.205 176.37 194.308 171.947C188.736 168.819 183.575 164.991 178.387 161.117L177.984 160.816C172.942 157.051 167.864 153.258 162.404 150.105C156.776 146.741 151.599 144.807 146.519 143.913L146.517 143.913C134.827 141.893 124.125 145.587 111.225 151.03C97.52 156.783 85.5027 154.515 75.5614 147.744C65.5862 140.951 57.6823 129.605 52.3571 117.212L52.3568 117.212C48.3155 107.837 44.9505 98.0238 43.2439 87.8618L43.2438 87.8613C42.8436 85.4881 42.3813 82.9145 41.8918 80.189C39.913 69.1711 37.4885 55.672 36.9156 42.9023C36.5586 34.9436 36.9247 27.3187 38.5487 20.7959C40.1722 14.2753 43.0365 8.91684 47.632 5.39608L47.6344 5.39418C48.4007 4.80215 49.4579 4.48844 50.8205 4.44796C52.1822 4.4075 53.7878 4.64214 55.5838 5.08449C59.1791 5.97 63.3889 7.64844 67.6866 9.40406C68.0216 9.54092 68.3572 9.67825 68.6929 9.81567C72.6388 11.4305 76.6156 13.058 80.1307 14.0896C82.0402 14.65 83.8437 15.044 85.4558 15.1605C87.0607 15.2765 88.5409 15.1225 89.759 14.5224L89.7602 14.5218C95.3577 11.7517 100.59 8.52724 105.743 5.35127C108.232 3.81712 110.703 2.2943 113.188 0.839498C120.851 -3.64702 128.733 -7.54582 137.989 -9.39098ZM137.989 -9.39098C137.989 -9.39095 137.989 -9.39092 137.989 -9.39089L137.861 -10.1329L137.99 -9.3911C137.99 -9.39106 137.99 -9.39102 137.989 -9.39098Z"
        stroke="#338EFF" stroke-opacity="0.5" stroke-width="1.5" stroke-miterlimit="10" />
    <path
        d="M34.4367 88.0422C34.0059 85.484 33.5052 82.7007 32.9739 79.7477C30.8783 68.0995 28.3077 53.8115 27.6839 40.2831C27.2932 31.8094 27.6702 23.6846 29.3887 16.7354C31.1067 9.7883 34.1489 4.07803 39.0433 0.336749L39.0453 0.335209C39.8625 -0.293772 40.9919 -0.621948 42.4448 -0.65768C43.8964 -0.69338 45.6078 -0.435229 47.5203 0.0433196C51.3486 1.00121 55.8343 2.80203 60.4104 4.6814C60.7488 4.82039 61.0877 4.95981 61.4269 5.09933C65.6477 6.83563 69.9014 8.58547 73.6574 9.69383C75.6886 10.2932 77.6043 10.7145 79.3144 10.8405C81.017 10.9659 82.5815 10.8039 83.8643 10.1709L83.8654 10.1703C89.7778 7.24069 95.3117 3.83278 100.767 0.473377C103.442 -1.17419 106.098 -2.81009 108.771 -4.37219C116.929 -9.13989 125.329 -13.2805 135.186 -15.2265C141.189 -16.4104 146.261 -19.7643 150.794 -24.251C155.322 -28.7317 159.35 -34.3808 163.26 -40.2116C164.196 -41.6075 165.124 -43.0131 166.052 -44.4167C169.013 -48.8987 171.961 -53.3607 175.091 -57.425C179.197 -62.7571 183.564 -67.3327 188.578 -70.2911L188.578 -70.2915C189.374 -70.7618 190.41 -70.804 191.754 -70.3595C193.099 -69.9146 194.648 -69.0138 196.355 -67.7669C199.739 -65.2954 203.572 -61.598 207.45 -57.8581L207.55 -57.7618C211.436 -54.0137 215.365 -50.231 218.834 -47.7443C220.567 -46.5018 222.235 -45.5461 223.765 -45.0921C225.303 -44.6357 226.802 -44.6612 228.065 -45.5405L228.067 -45.5418C243.012 -56.0049 260.64 -53.2007 275.852 -44.7022L275.855 -44.7005C280.794 -41.9718 285.945 -38.3015 290.583 -31.3074L290.583 -31.3065C296.816 -21.9364 300.075 -9.56318 300.845 1.99853C301.616 13.5891 299.876 24.1892 296.288 30.0575C292.68 35.9605 287.891 39.2165 282.828 42.205C282.119 42.6234 281.404 43.0372 280.684 43.453C276.294 45.9913 271.778 48.6024 267.941 52.7743C260.554 60.7829 256.283 71.5513 253.392 82.7615C251.352 90.6724 249.984 98.8747 248.708 106.528C248.178 109.707 247.663 112.792 247.123 115.721L247.123 115.723C246.608 118.553 246.116 121.768 245.586 125.225C244.322 133.478 242.847 143.114 240.344 152.208C236.788 165.133 231.242 176.603 221.605 181.294C213.144 185.411 203.085 182.434 194.719 177.722L194.718 177.722C188.824 174.405 183.362 170.343 177.877 166.216C177.625 166.026 177.373 165.836 177.121 165.646C171.897 161.713 166.634 157.75 160.989 154.406L160.989 154.406C151.117 148.563 142.504 146.684 133.857 147.345C125.243 148.003 116.648 151.179 106.826 155.333C92.2433 161.475 79.4645 159.043 68.8912 151.824C58.2837 144.583 49.8782 132.504 44.1962 119.364L43.514 119.68L44.1962 119.364C39.8883 109.403 36.2997 98.9095 34.4367 88.0422ZM34.4367 88.0422C34.4367 88.0427 34.4368 88.0431 34.4369 88.0435L33.7034 88.1859M34.4367 88.0422C34.4366 88.0419 34.4366 88.0416 34.4365 88.0413L33.7034 88.1859M33.7034 88.1859C33.2751 85.6422 32.7762 82.8695 32.2462 79.9238C27.5238 53.678 20.3312 13.7037 38.6039 -0.264018L43.514 119.68C39.1911 109.685 35.5797 99.1312 33.7034 88.1859Z"
        stroke="#338EFF" stroke-opacity="0.5" stroke-width="1.5" stroke-miterlimit="10" />
</svg>