<svg width="98" height="28" viewBox="0 0 98 28" fill="none" xmlns="http://www.w3.org/2000/svg">
    <path
        d="M4.48047 3.98243C4.48047 3.48463 4.48047 2.86237 4.60492 2.36457C4.85382 1.12006 5.84943 0.248902 6.96949 0L17.5478 0C22.5259 0.497804 26.3838 4.72914 26.3838 9.83162V18.6676C26.3838 20.1611 25.3882 21.4056 23.8948 21.6545C23.397 21.6545 22.7748 21.7789 22.277 21.7789C12.4453 21.7789 4.48047 13.8141 4.48047 3.98243Z"
        fill="black" />
    <path
        d="M30.4905 8.46144V24.0178C30.4905 25.8846 28.9971 27.5024 27.0059 27.8758C26.757 28.0002 26.3836 28.0002 26.1347 28.0002H13.1918C5.8492 28.0002 0 22.5244 0 15.9285L0 3.98121C0 3.7323 4.68915e-07 3.35895 0.124451 3.11005C0.248902 2.48779 0.497803 1.98999 0.995607 1.49219C0.995607 1.74109 0.995607 1.98999 0.995607 2.23889C0.995607 15.3062 11.325 25.7601 24.019 25.7601C24.7657 25.7601 25.388 25.7601 26.1347 25.6357C28.0015 25.2623 29.3704 23.52 29.3704 21.6532V4.10566C30.1171 5.47462 30.4905 6.84358 30.4905 8.46144Z"
        fill="#0078FF" />
    <path
        d="M26.3838 9.95607V18.7921C26.3838 20.2855 25.3882 21.53 23.8948 21.7789C23.397 21.7789 22.7748 21.9034 22.277 21.9034C12.4453 21.9034 4.48047 13.9385 4.48047 4.10688C4.48047 3.60908 4.48047 2.98682 4.60492 2.48902C4.85382 1.24451 5.84943 0.373353 6.96949 0.124451C7.21839 0.124451 7.34284 0 7.59174 0L16.4278 0C16.8011 0 17.1745 4.72888e-07 17.5478 0.124451C22.5259 0.622255 26.3838 4.85359 26.3838 9.95607Z"
        fill="black" />
    <path
        d="M26.3838 9.95607V18.7921C26.3838 20.2855 25.3882 21.53 23.8948 21.7789C23.397 21.7789 22.7748 21.9034 22.277 21.9034C12.4453 21.9034 4.48047 13.9385 4.48047 4.10688C4.48047 3.60908 4.48047 2.98682 4.60492 2.48902C4.85382 1.24451 5.84943 0.373353 6.96949 0.124451C7.21839 0.124451 7.34284 0 7.59174 0L16.4278 0C16.8011 0 17.1745 4.78109e-07 17.5478 0.124451C22.5259 0.622255 26.3838 4.85359 26.3838 9.95607Z"
        fill="#0078FF" />
    <path
        d="M53.1905 7.92H47.4505V22H53.1905C58.0105 22 60.2505 18.68 60.2505 14.96C60.2505 11.24 58.1305 7.92 53.1905 7.92ZM53.2505 19.12H50.8105V10.8H53.2505C55.6905 10.8 56.8905 12.84 56.8905 14.96C56.8905 17.08 55.6905 19.12 53.2505 19.12ZM61.1325 10.16L64.3325 10.16V7.6H61.1325V10.16ZM61.1325 22H64.3325V11.44L61.1325 11.44V22ZM65.0534 16.48C65.0534 19.56 66.7534 21.84 69.6534 21.84C71.2334 21.84 72.3134 21.28 72.9734 20.08C73.0534 19.94 73.1534 19.76 73.3734 19.84C73.6334 19.94 73.4934 20.24 73.2934 20.6C73.1334 20.88 73.0534 21.16 73.0534 21.46C73.0534 22.74 72.6134 23.76 70.7134 23.76C69.2334 23.76 68.6534 23.26 68.4934 22.48H65.3734C65.6734 24.86 67.3934 26.16 70.7134 26.16C74.0534 26.16 76.2534 24.6 76.2534 21.28V11.44H73.0534V11.76C73.0534 12.06 73.1334 12.36 73.2734 12.64C73.4334 12.98 73.5934 13.32 73.2934 13.4C73.1134 13.44 73.0334 13.26 72.9734 13.16C72.3134 11.96 71.2534 11.12 69.6534 11.12C66.7534 11.12 65.0534 13.4 65.0534 16.48ZM70.5734 19.12C68.9734 19.12 68.2534 17.9 68.2534 16.48C68.2534 15.06 68.9734 13.84 70.5734 13.84C72.0934 13.84 73.0534 15.06 73.0534 16.48C73.0534 17.9 72.0934 19.12 70.5734 19.12ZM77.6177 10.16H80.8177V7.6H77.6177V10.16ZM77.6177 22L80.8177 22V11.44H77.6177V22ZM86.9786 9.84H88.8986V7.28L85.9386 7.28C83.8186 7.28 82.8186 7.98 82.8186 10.52V11.44H81.2186V14H82.8186V22H86.0186V14H88.8986V11.44H86.0186V10.88C86.0186 9.88 86.0586 9.84 86.9786 9.84ZM96.6702 14V11.44L93.7902 11.44V8.56H90.5902V11.44H88.6702V14H90.5902V18.76C90.5902 21.3 91.5902 22 93.7102 22H96.6702V19.44H94.7502C93.8302 19.44 93.7902 19.4 93.7902 18.4V14L96.6702 14Z"
        fill="#000429" />
</svg>