<?xml version="1.0" encoding="UTF-8"?>
<!DOCTYPE svg PUBLIC "-//W3C//DTD SVG 1.1//EN" "http://www.w3.org/Graphics/SVG/1.1/DTD/svg11.dtd">
<!-- Creator: CorelDRAW -->
<svg xmlns="http://www.w3.org/2000/svg" xml:space="preserve" width="3in" height="3in" version="1.1" style="shape-rendering:geometricPrecision; text-rendering:geometricPrecision; image-rendering:optimizeQuality; fill-rule:evenodd; clip-rule:evenodd"
viewBox="0 0 3000 3000"
 xmlns:xlink="http://www.w3.org/1999/xlink">
 <defs>
  <style type="text/css">
   <![CDATA[
    .fil2 {fill:#00B937}
    .fil5 {fill:#323335}
    .fil3 {fill:gray}
    .fil1 {fill:white}
    .fil4 {fill:black;fill-rule:nonzero}
    .fil0 {fill:white;fill-rule:nonzero}
   ]]>
  </style>
   <clipPath id="id0">
    <rect x="4629.09" y="1282.2" width="751.06" height="500.83"/>
   </clipPath>
 </defs>
 <g id="Layer_x0020_1">
  <metadata id="CorelCorpID_0Corel-Layer"/>
  <g id="_105553477916032">
   <path class="fil0" d="M770.59 -378.35c-20.39,-16.04 -42.69,-22.57 -71.23,-22.57 -40.24,0 -79.66,17.4 -79.66,57.63 0,47.31 35.89,57.91 77.48,61.71 20.94,1.91 31.81,7.89 31.81,17.4 0,10.6 -12.24,16.85 -29.91,16.85 -16.04,0 -36.97,-3.26 -55.73,-21.48l-29.63 33.98c26.37,27.73 50.84,33.71 85.09,33.44 42.68,-0.27 83.46,-18.76 83.46,-61.98 0,-43.77 -39.42,-59 -77.21,-63.07 -18.76,-1.91 -31.54,-3.81 -31.54,-16.86 0,-10.06 12.78,-14.13 25.83,-14.13 16.58,0 31.54,3.26 44.59,13.05l26.64 -33.98z"/>
   <path id="1" class="fil0" d="M797 -373.73l0 33.44 -21.48 0 0 38.33 21.48 0 0 44.04c-0.81,42.14 23.11,54.37 49.75,54.37 13.87,0 27.19,-2.45 38.6,-8.97l-10.87 -36.97c-4.07,2.72 -9.79,4.62 -14.68,4.62 -7.61,0 -13.05,-3.54 -13.32,-13.05l0 -44.04 30.45 0 0 -38.33 -30.18 0 0 -38.88 -49.75 5.44z"/>
   <path id="2" class="fil0" d="M886.76 -341.11l0 134.3 50.02 0 0 -69.87c0,-17.67 10.6,-25.28 23.11,-25.28 8.43,0 14.41,1.63 22.57,8.16l20.11 -36.16c-8.7,-9.24 -21.75,-14.41 -35.34,-14.41 -13.05,0 -25.56,5.44 -32.63,17.94l-2.99 -14.68 -44.86 0z"/>
   <path id="3" class="fil0" d="M1039.31 -291.9c3.26,-22.02 47.31,-21.2 48.67,0l-48.67 0zm23.93 -52.47c-36.43,0 -74.76,21.75 -74.76,70.69 0,48.94 35.89,69.87 78.3,69.87 23.11,0 45.13,-7.34 61.17,-22.3l-24.47 -27.46c-8.7,6.52 -19.85,10.87 -34.53,10.87 -10.87,0 -26.37,-5.17 -29.91,-17.13l93.8 0c11.42,-53.02 -22.02,-84.55 -69.6,-84.55z"/>
   <path id="4" class="fil0" d="M1237.82 -326.7c-7.07,-10.87 -20.39,-17.4 -39.42,-17.4 -39.15,0 -65.25,30.45 -65.25,70.14 0,39.15 22.02,67.15 61.44,69.59 14.95,0.82 32.9,-3.8 44.31,-16.85l2.17 14.41 46.22 0 0 -134.3 -47.03 0 -2.44 14.41zm-28 23.11c17.67,0 27.73,11.69 27.73,29.63 0,15.77 -10.87,29.36 -27.73,29.36 -14.95,0 -26.91,-10.6 -26.91,-29.36 0,-18.76 11.96,-29.63 26.91,-29.63z"/>
   <path id="5" class="fil0" d="M1431.7 -206.81l0 -73.94c0,-14.68 8.97,-20.39 17.4,-20.39 7.34,0 13.86,5.71 13.86,19.84l0 74.49 50.02 0 0 -74.76c0,-44.58 -22.29,-62.53 -51.38,-62.53 -18.48,0 -33.44,5.44 -44.59,19.3 -6.8,-12.5 -19.84,-18.76 -33.44,-19.03 -13.87,-0.27 -28.55,5.44 -36.97,17.13l-3.54 -14.41 -42.14 0 0 134.3 49.75 0 0 -73.67c0.27,-14.68 9.24,-21.48 17.67,-21.48 8.97,0 14.14,5.17 14.14,20.66l0 74.49 49.2 0z"/>
   <path id="6" class="fil0" d="M1620.69 -256.83c-6.8,7.34 -15.77,11.15 -25.01,11.15 -19.03,0 -29.09,-13.05 -29.09,-27.73 0,-16.85 10.33,-30.72 29.36,-30.72 8.97,0 16.58,2.99 23.11,9.79l26.64 -28.82c-14.13,-14.13 -33.44,-20.93 -52.74,-20.93 -37.79,0 -75.31,21.48 -75.31,70.41 0,50.3 36.98,69.6 76.12,69.6 20.12,0 39.42,-8.43 55.46,-22.84l-28.54 -29.91z"/>
   <path id="7" class="fil0" d="M1690.6 -291.9c3.26,-22.02 47.31,-21.2 48.67,0l-48.67 0zm23.93 -52.47c-36.43,0 -74.76,21.75 -74.76,70.69 0,48.94 35.89,69.87 78.3,69.87 23.11,0 45.13,-7.34 61.17,-22.3l-24.47 -27.46c-8.7,6.52 -19.85,10.87 -34.53,10.87 -10.87,0 -26.37,-5.17 -29.91,-17.13l93.8 0c11.42,-53.02 -22.02,-84.55 -69.6,-84.55z"/>
   <polygon id="8" class="fil0" points="1791.78,-397.38 1791.78,-206.81 1841.26,-206.81 1841.26,-397.38 "/>
   <g>
    <path class="fil1" d="M423.91 -361.94c4.82,-33.54 23.63,-40.65 50.28,-32.94l87.28 49.71c19.85,13.04 31.48,28.81 17.34,53.17 12.17,18.77 7.22,33.59 -12.14,45.08l-68.2 39.3c-16.13,5.67 -31.15,6.04 -41.61,-15.03 -21.81,0.45 -33.01,-18.48 -32.89,-38.15l-0.06 -101.15z"/>
    <path class="fil2" d="M474.11 -377.43c-17.61,-10.06 -33.43,-6.62 -35.17,17.59l-0.3 100.97c2.95,13.01 7.96,20.55 15.77,20.62l0.3 -80.35c2.74,-25.65 22.23,-32.56 42.75,-23.65l12.13 6.37c4.35,3.44 7.48,9 7.58,15.16l0 36.39c-0.91,9.6 4.55,12.53 10,9.7l34.87 -20.62c13.64,-12.3 9.21,-23.57 -5.46,-34.26l-82.48 -47.91z"/>
    <path class="fil3" d="M502 -321.33c-16.66,-12.96 -28.22,-13.33 -32.75,3.64l0 83.08c1.67,15.57 9.65,18.49 21.83,13.04l69.13 -40.33c10.53,-6.75 14.03,-13.16 7.58,-19.1l-36.69 20.62c-13.43,5.28 -26.9,-1.03 -29.11,-17.59l0 -43.36z"/>
   </g>
  </g>
  <g style="clip-path:url(#id0)">
   <image x="4629.09" y="1282.2" width="751.05" height="500.82" xlink:href="streamcel_Images/streamcel_ImgID1.png"/>
  </g>
  <g id="_105553477917664">
   <path class="fil4" d="M1043.62 1292.14c-25.91,-20.38 -54.23,-28.67 -90.5,-28.67 -51.12,0 -101.2,22.11 -101.2,73.22 0,60.1 45.59,73.57 98.44,78.41 26.59,2.42 40.41,10.02 40.41,22.11 0,13.47 -15.54,21.42 -38,21.42 -20.38,0 -46.98,-4.15 -70.81,-27.29l-37.65 43.18c33.5,35.23 64.59,42.83 108.11,42.48 54.23,-0.35 106.04,-23.83 106.04,-78.75 0,-55.61 -50.08,-74.96 -98.09,-80.14 -23.83,-2.42 -40.07,-4.83 -40.07,-21.41 0,-12.78 16.24,-17.96 32.81,-17.96 21.07,0 40.07,4.15 56.65,16.58l33.85 -43.18z"/>
   <path id="1" class="fil4" d="M1077.18 1298.02l0 42.48 -27.29 0 0 48.7 27.29 0 0 55.96c-1.04,53.54 29.36,69.08 63.21,69.08 17.61,0 34.54,-3.11 49.05,-11.4l-13.81 -46.98c-5.18,3.45 -12.44,5.87 -18.65,5.87 -9.67,0 -16.58,-4.49 -16.93,-16.58l0 -55.96 38.69 0 0 -48.7 -38.34 0 0 -49.39 -63.21 6.91z"/>
   <path id="2" class="fil4" d="M1191.22 1339.46l0 170.63 63.55 0 0 -88.77c0,-22.45 13.47,-32.13 29.36,-32.13 10.7,0 18.31,2.07 28.67,10.36l25.56 -45.94c-11.06,-11.74 -27.63,-18.31 -44.9,-18.31 -16.58,0 -32.47,6.91 -41.45,22.8l-3.8 -18.65 -56.99 0z"/>
   <path id="3" class="fil4" d="M1385.05 1401.98c4.15,-27.98 60.1,-26.94 61.83,0l-61.83 0zm30.39 -66.67c-46.28,0 -94.98,27.63 -94.98,89.81 0,62.17 45.59,88.77 99.48,88.77 29.36,0 57.34,-9.33 77.72,-28.32l-31.09 -34.89c-11.06,8.29 -25.22,13.81 -43.87,13.81 -13.82,0 -33.5,-6.56 -38,-21.76l119.17 0c14.51,-67.35 -27.98,-107.42 -88.43,-107.42z"/>
   <path id="4" class="fil4" d="M1637.25 1357.77c-8.98,-13.82 -25.91,-22.11 -50.08,-22.11 -49.74,0 -82.9,38.69 -82.9,89.11 0,49.74 27.98,85.31 78.06,88.43 19,1.04 41.8,-4.84 56.3,-21.42l2.76 18.31 58.72 0 0 -170.63 -59.75 0 -3.11 18.31zm-35.58 29.36c22.45,0 35.23,14.85 35.23,37.65 0,20.03 -13.81,37.3 -35.23,37.3 -19,0 -34.19,-13.47 -34.19,-37.3 0,-23.83 15.2,-37.65 34.19,-37.65z"/>
   <path id="5" class="fil4" d="M1883.58 1510.09l0 -93.95c0,-18.65 11.4,-25.91 22.11,-25.91 9.33,0 17.61,7.25 17.61,25.21l0 94.64 63.56 0 0 -94.99c0,-56.65 -28.32,-79.44 -65.28,-79.44 -23.49,0 -42.48,6.91 -56.65,24.52 -8.64,-15.89 -25.22,-23.83 -42.49,-24.18 -17.61,-0.35 -36.27,6.91 -46.97,21.76l-4.49 -18.31 -53.54 0 0 170.63 63.21 0 0 -93.61c0.34,-18.65 11.74,-27.29 22.45,-27.29 11.4,0 17.96,6.56 17.96,26.25l0 94.64 62.52 0z"/>
   <path id="6" class="fil4" d="M2123.7 1446.54c-8.64,9.33 -20.04,14.16 -31.78,14.16 -24.18,0 -36.96,-16.58 -36.96,-35.23 0,-21.41 13.13,-39.03 37.3,-39.03 11.4,0 21.07,3.8 29.36,12.43l33.85 -36.61c-17.96,-17.96 -42.48,-26.59 -67.01,-26.59 -48.01,0 -95.68,27.29 -95.68,89.46 0,63.9 46.97,88.42 96.71,88.42 25.56,0 50.08,-10.7 70.46,-29.01l-36.27 -38z"/>
   <path id="7" class="fil4" d="M2212.53 1401.98c4.15,-27.98 60.1,-26.94 61.83,0l-61.83 0zm30.39 -66.67c-46.28,0 -94.98,27.63 -94.98,89.81 0,62.17 45.59,88.77 99.48,88.77 29.36,0 57.34,-9.33 77.72,-28.32l-31.09 -34.89c-11.06,8.29 -25.22,13.81 -43.87,13.81 -13.82,0 -33.5,-6.56 -38,-21.76l119.17 0c14.51,-67.35 -27.98,-107.42 -88.43,-107.42z"/>
   <polygon id="8" class="fil4" points="2341.07,1267.96 2341.07,1510.09 2403.94,1510.09 2403.94,1267.96 "/>
   <g>
    <path class="fil5" d="M603.15 1313c6.12,-42.62 30.03,-51.64 63.89,-41.86l110.89 63.15c25.22,16.56 40,36.61 22.03,67.56 15.46,23.85 9.18,42.68 -15.42,57.28l-86.65 49.93c-20.5,7.2 -39.57,7.67 -52.87,-19.09 -27.71,0.57 -41.94,-23.48 -41.79,-48.47l-0.07 -128.51z"/>
    <path class="fil2" d="M666.94 1293.32c-22.38,-12.78 -42.48,-8.41 -44.69,22.35l-0.39 128.29c3.75,16.53 10.11,26.1 20.03,26.2l0.39 -102.09c3.48,-32.59 28.24,-41.36 54.32,-30.05l15.41 8.09c5.52,4.37 9.5,11.43 9.63,19.26l0 46.23c-1.16,12.2 5.78,15.93 12.71,12.33l44.3 -26.2c17.32,-15.63 11.7,-29.95 -6.94,-43.53l-104.78 -60.87z"/>
    <path class="fil3" d="M702.38 1364.59c-21.17,-16.46 -35.85,-16.93 -41.61,4.62l0 105.56c2.12,19.78 12.26,23.5 27.74,16.57l87.83 -51.24c13.38,-8.57 17.83,-16.72 9.63,-24.27l-46.61 26.2c-17.06,6.7 -34.18,-1.31 -36.98,-22.35l0 -55.09z"/>
   </g>
  </g>
 </g>
</svg>
