<svg width="89" height="29" viewBox="0 0 89 29" fill="none" xmlns="http://www.w3.org/2000/svg">
    <rect x="0.5" y="0.119507" width="88" height="28" rx="14" fill="#FFEBEF" />
    <path fill-rule="evenodd" clip-rule="evenodd"
        d="M20.4433 9.56295C20.7551 9.25115 21.2606 9.25115 21.5724 9.56295L24.9999 12.9904L28.4274 9.56295C28.7391 9.25115 29.2447 9.25115 29.5565 9.56295C29.8683 9.87474 29.8683 10.3803 29.5565 10.6921L26.129 14.1195L29.5565 17.547C29.8683 17.8588 29.8683 18.3643 29.5565 18.6761C29.2447 18.9879 28.7391 18.9879 28.4274 18.6761L24.9999 15.2486L21.5724 18.6761C21.2606 18.9879 20.7551 18.9879 20.4433 18.6761C20.1315 18.3643 20.1315 17.8588 20.4433 17.547L23.8708 14.1195L20.4433 10.6921C20.1315 10.3803 20.1315 9.87474 20.4433 9.56295Z"
        fill="#F50031" />
    <path
        d="M38.5585 19.1195H39.8065V15.4235H43.3585V14.3675H39.8065V11.7275H44.1265V10.6715H38.5585V19.1195ZM44.5556 17.4035C44.5556 18.4475 45.5036 19.2155 46.6676 19.2155C47.7836 19.2155 48.5996 18.6035 48.9476 17.6915C48.9716 17.6315 48.9956 17.5355 49.0916 17.5715C49.1756 17.6075 49.1276 17.7035 49.1036 17.8115C48.9956 18.1235 48.9716 18.3035 48.9716 18.5315V19.1195H50.1236V15.6155C50.1236 13.3595 48.8396 12.8795 47.4596 12.8795C46.0436 12.8795 44.9636 13.4915 44.7476 14.8955H45.8756C45.9596 14.2955 46.3316 13.8875 47.4116 13.8875C48.6716 13.8875 48.9596 14.3915 48.9716 14.8955C48.9836 15.5315 47.8676 15.3995 46.7636 15.4835C45.5876 15.5675 44.5556 15.9995 44.5556 17.4035ZM48.9716 15.8075C48.9596 17.3555 48.0476 18.0395 47.1116 18.1595C46.1156 18.2915 45.7076 17.8355 45.7076 17.3435C45.7076 16.7795 46.0916 16.5155 46.8356 16.4075C47.7716 16.2755 48.5996 16.2635 48.9716 15.8075ZM51.2727 11.8235H52.5207V10.4795H51.2727V11.8235ZM51.3207 19.1195H52.4727V12.9755H51.3207V19.1195ZM53.6706 10.4795V19.1195H54.8226V10.4795H53.6706ZM61.3027 15.9635C61.3027 13.7795 59.8747 12.8795 58.5067 12.8795C56.7427 12.8795 55.5427 14.1995 55.5427 16.0475C55.5427 17.7875 56.5987 19.2155 58.5307 19.2155C60.1027 19.2155 60.9427 18.1835 61.1947 17.0435H60.0067C59.7907 17.7515 59.3827 18.1595 58.5547 18.1595C57.4387 18.1595 56.7667 17.3675 56.6827 16.3835H61.2667C61.2907 16.2515 61.3027 16.1315 61.3027 15.9635ZM56.7427 15.4235C56.9107 14.5955 57.4147 13.8875 58.5667 13.8875C59.5027 13.8875 60.0787 14.5235 60.1507 15.4235H56.7427ZM66.6769 10.4795V13.4555C66.6769 13.6835 66.7009 13.8635 66.7969 14.1155C66.8329 14.2115 66.9049 14.3315 66.7969 14.3675C66.7009 14.4035 66.6649 14.2835 66.6529 14.2475C66.3769 13.4195 65.5729 12.8795 64.5889 12.8795C62.9929 12.8795 61.8769 14.2235 61.8769 16.0475C61.8769 17.8715 62.9929 19.2155 64.5889 19.2155C65.5489 19.2155 66.3649 18.6875 66.6529 17.8235C66.6649 17.7875 66.7009 17.6915 66.7729 17.7155C66.8929 17.7515 66.8329 17.8595 66.7969 17.9555C66.7009 18.2195 66.6769 18.3875 66.6769 18.6035V19.1195H67.8289V10.4795H66.6769ZM64.8289 18.1595C63.6289 18.1595 63.0289 17.1875 63.0289 16.0475C63.0289 14.9075 63.6289 13.9355 64.8289 13.9355C65.9209 13.9355 66.6769 14.9075 66.6769 16.0475C66.6769 17.1875 65.9209 18.1595 64.8289 18.1595Z"
        fill="#F50031" />
</svg>