<svg width="170" height="186" viewBox="0 0 170 186" fill="none" xmlns="http://www.w3.org/2000/svg">
    <g clip-path="url(#clip0_4480_7096)">
        <rect width="170" height="186" rx="4" fill="#EBF4FF" />
        <path d="M0.599609 15.2337C0.599609 15.2337 4.14982 12.5711 5.16887 8.23192C6.18791 3.89277 9.96823 1 9.96823 1"
            stroke="#1F94FD" stroke-opacity="0.06" stroke-width="1.5" stroke-miterlimit="10" />
        <path d="M0.599609 27.0678C0.599609 27.0678 12.7624 23.3203 15.9839 13.886C19.0739 4.71458 31.5654 1 31.5654 1"
            stroke="#1F94FD" stroke-opacity="0.06" stroke-width="1.5" stroke-miterlimit="10" />
        <path d="M0.599609 38.9018C0.599609 38.9018 21.375 34.0696 26.766 19.5729C31.9599 5.60213 53.1626 1 53.1626 1"
            stroke="#1F94FD" stroke-opacity="0.06" stroke-width="1.5" stroke-miterlimit="10" />
        <path d="M0.599609 50.7688C0.599609 50.7688 29.9546 44.8189 37.581 25.2598C44.8458 6.45682 74.7268 1 74.7268 1"
            stroke="#1F94FD" stroke-opacity="0.06" stroke-width="1.5" stroke-miterlimit="10" />
        <path d="M0.599609 62.6029C0.599609 62.6029 38.5672 55.5682 48.3632 30.9467C57.7318 7.34437 96.324 1 96.324 1"
            stroke="#1F94FD" stroke-opacity="0.06" stroke-width="1.5" stroke-miterlimit="10" />
        <path d="M0.599609 74.4368C0.599609 74.4368 47.1797 66.3174 59.1782 36.6008C70.6177 8.23192 117.921 1 117.921 1"
            stroke="#1F94FD" stroke-opacity="0.06" stroke-width="1.5" stroke-miterlimit="10" />
        <path d="M0.599609 86.3038C0.599609 86.3038 55.7594 77.0666 69.9603 42.3206C83.5037 9.0866 139.518 1 139.518 1"
            stroke="#1F94FD" stroke-opacity="0.06" stroke-width="1.5" stroke-miterlimit="10" />
        <path d="M0.599609 98.1379C0.599609 98.1379 64.372 87.816 80.7753 47.9746C96.3897 9.97416 161.115 1 161.115 1"
            stroke="#1F94FD" stroke-opacity="0.06" stroke-width="1.5" stroke-miterlimit="10" />
        <path d="M0.599609 109.972C0.599609 109.972 72.9846 98.5652 91.5903 53.6615C109.276 10.8617 182.68 1 182.68 1"
            stroke="#1F94FD" stroke-opacity="0.06" stroke-width="1.5" stroke-miterlimit="10" />
        <path d="M0.599609 121.839C0.599609 121.839 81.5643 109.347 102.372 59.3484C122.195 11.7164 204.277 1 204.277 1"
            stroke="#1F94FD" stroke-opacity="0.06" stroke-width="1.5" stroke-miterlimit="10" />
        <path d="M0.599609 133.673C0.599609 133.673 90.1768 120.064 113.187 65.0353C135.08 12.6039 225.874 1 225.874 1"
            stroke="#1F94FD" stroke-opacity="0.06" stroke-width="1.5" stroke-miterlimit="10" />
        <path d="M0.599609 145.507C0.599609 145.507 98.7894 130.813 123.97 70.6894C147.966 13.4915 247.471 1 247.471 1"
            stroke="#1F94FD" stroke-opacity="0.06" stroke-width="1.5" stroke-miterlimit="10" />
        <path d="M0.599609 157.374C0.599609 157.374 107.369 141.595 134.785 76.4092C160.852 14.3462 269.035 1 269.035 1"
            stroke="#1F94FD" stroke-opacity="0.06" stroke-width="1.5" stroke-miterlimit="10" />
        <path d="M0.599609 169.207C0.599609 169.207 115.981 152.344 145.566 82.0958C173.738 15.2337 290.632 1 290.632 1"
            stroke="#1F94FD" stroke-opacity="0.06" stroke-width="1.5" stroke-miterlimit="10" />
        <path d="M0.599609 181.073C0.599609 181.073 124.593 163.092 156.38 87.7822C186.622 16.1211 312.226 1 312.226 1"
            stroke="#1F94FD" stroke-opacity="0.06" stroke-width="1.5" stroke-miterlimit="10" />
        <path d="M0.599609 192.905C0.599609 192.905 133.171 173.839 167.16 93.4679C199.506 16.9756 333.819 1 333.819 1"
            stroke="#1F94FD" stroke-opacity="0.06" stroke-width="1.5" stroke-miterlimit="10" />
        <path d="M0.599609 204.738C0.599609 204.738 141.783 184.587 177.974 99.1214C212.391 17.8631 355.414 1 355.414 1"
            stroke="#1F94FD" stroke-opacity="0.06" stroke-width="1.5" stroke-miterlimit="10" />
        <path d="M0.599609 216.596C0.599609 216.596 150.39 195.329 188.782 104.837C225.268 18.75 376.965 1 376.965 1"
            stroke="#1F94FD" stroke-opacity="0.06" stroke-width="1.5" stroke-miterlimit="10" />
        <path d="M0.599609 228.429C0.599609 228.429 158.968 206.077 199.563 110.491C238.153 19.6045 398.559 1 398.559 1"
            stroke="#1F94FD" stroke-opacity="0.06" stroke-width="1.5" stroke-miterlimit="10" />
        <path d="M0.599609 240.26C0.599609 240.26 167.579 216.824 210.375 116.176C251.035 20.4918 420.151 1 420.151 1"
            stroke="#1F94FD" stroke-opacity="0.06" stroke-width="1.5" stroke-miterlimit="10" />
        <path d="M0.599609 252.126C0.599609 252.126 176.191 227.605 221.157 121.862C263.92 21.3793 441.746 1 441.746 1"
            stroke="#1F94FD" stroke-opacity="0.06" stroke-width="1.5" stroke-miterlimit="10" />
        <path d="M0.599609 263.959C0.599609 263.959 184.77 238.321 231.971 127.549C276.805 22.2339 463.309 1 463.309 1"
            stroke="#1F94FD" stroke-opacity="0.06" stroke-width="1.5" stroke-miterlimit="10" />
        <path
            d="M472.719 83.8826C472.719 83.8826 348.725 101.864 316.938 177.173C286.696 248.834 161.092 263.956 161.092 263.956"
            stroke="#1F94FD" stroke-opacity="0.06" stroke-width="1.5" stroke-miterlimit="10" />
        <path
            d="M472.718 72.0565C472.718 72.0565 340.146 91.122 306.157 171.493C273.811 247.985 139.498 263.961 139.498 263.961"
            stroke="#1F94FD" stroke-opacity="0.06" stroke-width="1.5" stroke-miterlimit="10" />
        <path
            d="M472.717 60.2322C472.717 60.2322 331.534 80.3825 295.343 165.848C260.926 247.107 117.902 263.97 117.902 263.97"
            stroke="#1F94FD" stroke-opacity="0.06" stroke-width="1.5" stroke-miterlimit="10" />
        <path
            d="M472.689 48.3573C472.689 48.3573 322.899 69.6244 284.506 160.116C248.02 246.204 96.291 263.954 96.291 263.954"
            stroke="#1F94FD" stroke-opacity="0.06" stroke-width="1.5" stroke-miterlimit="10" />
        <path
            d="M472.692 36.5292C472.692 36.5292 314.323 58.881 273.728 154.467C235.139 245.353 74.6992 263.958 74.6992 263.958"
            stroke="#1F94FD" stroke-opacity="0.06" stroke-width="1.5" stroke-miterlimit="10" />
        <path
            d="M472.692 24.6777C472.692 24.6777 305.713 48.1139 262.916 148.761C222.256 244.446 53.1406 263.937 53.1406 263.937"
            stroke="#1F94FD" stroke-opacity="0.06" stroke-width="1.5" stroke-miterlimit="10" />
        <path
            d="M472.696 12.8378C472.696 12.8378 297.105 37.3587 252.139 143.101C209.342 243.584 31.5488 263.964 31.5488 263.964"
            stroke="#1F94FD" stroke-opacity="0.06" stroke-width="1.5" stroke-miterlimit="10" />
        <path d="M472.695 1C472.695 1 288.525 26.6385 241.324 137.41C196.457 242.725 9.95312 263.959 9.95312 263.959"
            stroke="#1F94FD" stroke-opacity="0.06" stroke-width="1.5" stroke-miterlimit="10" />
        <rect x="84" y="118" width="126.628" height="100" />
        <path
            d="M16.224 25.072C16.224 27.97 17.904 30.224 20.802 30.224C22.398 30.224 23.14 29.146 23.448 28.446C23.49 28.348 23.588 28.236 23.728 28.306C23.868 28.376 23.826 28.53 23.728 28.754C23.56 29.16 23.504 29.538 23.504 29.748V30H25.856V24.624H21.264V26.528H23.504C23.42 27.158 22.608 28.208 21.152 28.208C19.36 28.208 18.576 26.808 18.576 25.072C18.576 23.336 19.528 21.936 21.306 21.936C22.566 21.936 23.252 22.608 23.518 23.504H25.856C25.632 21.67 24.19 19.92 21.292 19.92C18.072 19.92 16.224 22.23 16.224 25.072ZM33.978 26.08C33.978 23.532 32.144 22.384 30.268 22.384C27.79 22.384 26.362 24.008 26.362 26.304C26.362 28.488 27.734 30.224 30.31 30.224C32.396 30.224 33.544 28.936 33.838 27.536H31.612C31.43 28.082 30.996 28.432 30.296 28.432C29.358 28.432 28.728 27.802 28.574 26.864H33.936C33.964 26.654 33.978 26.29 33.978 26.08ZM30.31 24.12C31.136 24.12 31.696 24.624 31.78 25.52H28.63C28.798 24.722 29.246 24.12 30.31 24.12ZM39.1826 24.4V22.608H37.1666V20.592H34.9266V22.608H33.5826V24.4H34.9266V27.732C34.9266 29.51 35.6266 30 37.1106 30H39.1826V28.208H37.8386C37.1946 28.208 37.1666 28.18 37.1666 27.48V24.4H39.1826ZM46.3327 23.924C46.2767 23.966 46.1367 24.12 46.0247 24.036C45.8427 23.896 46.0947 23.714 46.2207 23.448C46.3187 23.252 46.3747 23.042 46.4027 22.818L46.4727 22.16H50.7287V20.144H44.6667L43.9947 25.744H46.0807C46.5287 25.352 46.9207 25.156 47.7327 25.17C48.8807 25.184 49.3707 25.814 49.3707 26.696C49.3707 27.62 48.7547 28.208 47.6347 28.208C46.4027 28.208 45.9547 27.564 45.9547 26.864H43.7707C43.7707 28.838 45.2127 30.224 47.6627 30.224C50.2247 30.224 51.6107 28.558 51.6107 26.64C51.6107 23.392 48.1807 22.566 46.3327 23.924ZM56.7102 19.92C53.9382 19.92 52.4542 22.118 52.4542 25.072C52.4542 28.026 53.9382 30.224 56.7102 30.224C59.4822 30.224 60.9662 28.026 60.9662 25.072C60.9662 22.118 59.4822 19.92 56.7102 19.92ZM56.7102 28.32C55.3522 28.32 54.6942 26.99 54.6942 25.072C54.6942 23.154 55.3522 21.824 56.7102 21.824C58.0682 21.824 58.7262 23.154 58.7262 25.072C58.7262 26.99 58.0682 28.32 56.7102 28.32ZM63.9465 24.848C65.3465 24.848 66.2845 23.784 66.2845 22.384C66.2845 21.026 65.3465 19.92 63.9465 19.92C62.5465 19.92 61.5805 21.026 61.5805 22.384C61.5805 23.784 62.5465 24.848 63.9465 24.848ZM64.6045 30L70.8765 20.144H69.3085L63.0365 30L64.6045 30ZM63.9325 23.504C63.3865 23.504 63.0365 22.972 63.0365 22.384C63.0365 21.782 63.3865 21.264 63.9325 21.264C64.4785 21.264 64.8285 21.782 64.8285 22.384C64.8285 22.972 64.4785 23.504 63.9325 23.504ZM69.9945 30.224C71.3945 30.224 72.3325 29.16 72.3325 27.76C72.3325 26.402 71.3945 25.296 69.9945 25.296C68.5945 25.296 67.6285 26.402 67.6285 27.76C67.6285 29.16 68.5945 30.224 69.9945 30.224ZM69.9805 28.88C69.4345 28.88 69.0845 28.348 69.0845 27.76C69.0845 27.158 69.4345 26.64 69.9805 26.64C70.5265 26.64 70.8765 27.158 70.8765 27.76C70.8765 28.348 70.5265 28.88 69.9805 28.88ZM81.5181 19.92C78.2141 19.92 76.4781 22.23 76.4781 25.072C76.4781 27.914 78.2141 30.224 81.5181 30.224C84.8221 30.224 86.5581 27.914 86.5581 25.072C86.5581 22.23 84.8221 19.92 81.5181 19.92ZM81.5181 28.208C79.7961 28.208 78.8301 26.808 78.8301 25.072C78.8301 23.336 79.7961 21.936 81.5181 21.936C83.2401 21.936 84.2061 23.336 84.2061 25.072C84.2061 26.808 83.2401 28.208 81.5181 28.208ZM90.5335 21.488H91.8775V19.696H89.8055C88.3215 19.696 87.6215 20.186 87.6215 21.964V22.608H86.5015V24.4H87.6215V30H89.8615V24.4H91.8775V22.608H89.8615V22.216C89.8615 21.516 89.8895 21.488 90.5335 21.488ZM95.7496 21.488H97.0936V19.696H95.0216C93.5376 19.696 92.8376 20.186 92.8376 21.964V22.608H91.7176V24.4H92.8376V30H95.0776V24.4L97.0936 24.4V22.608H95.0776V22.216C95.0776 21.516 95.1056 21.488 95.7496 21.488ZM15.776 37.144L19.416 43.304V47H21.768V43.304L25.408 37.144H22.86L20.956 40.518C20.858 40.672 20.83 40.91 20.816 41.148C20.816 41.288 20.788 41.442 20.592 41.442C20.396 41.442 20.368 41.288 20.368 41.148C20.354 40.91 20.326 40.672 20.228 40.518L18.324 37.144H15.776ZM28.1492 39.384C25.7132 39.384 24.2292 41.148 24.2292 43.304C24.2292 45.46 25.7132 47.224 28.1492 47.224C30.5852 47.224 32.0692 45.46 32.0692 43.304C32.0692 41.148 30.5852 39.384 28.1492 39.384ZM28.1492 45.32C27.0432 45.32 26.4692 44.396 26.4692 43.304C26.4692 42.212 27.0432 41.288 28.1492 41.288C29.2552 41.288 29.8292 42.212 29.8292 43.304C29.8292 44.396 29.2552 45.32 28.1492 45.32ZM35.1183 47.224C36.3923 47.224 37.2043 46.216 37.5683 45.488C37.6243 45.376 37.6943 45.208 37.8623 45.278C38.0443 45.348 37.9043 45.628 37.7923 45.852C37.6803 46.076 37.6103 46.314 37.6103 46.65V47H39.8503V39.608H37.6103V42.45C37.6103 44.158 36.7843 45.32 35.8743 45.32C35.0763 45.32 34.6983 44.858 34.6983 43.192V39.608H32.4583V44.088C32.4583 46.188 33.5223 47.224 35.1183 47.224ZM42.8685 41.19C42.6585 41.148 42.7425 40.896 42.8545 40.672C42.9665 40.448 43.0505 40.196 43.0505 39.944V39.608H40.8105V47H43.0505V44.13C43.0505 42.254 43.7085 41.512 45.7385 41.652V39.496C43.9605 39.496 43.5405 40.014 43.1065 40.994C43.0645 41.092 42.9945 41.218 42.8685 41.19ZM54.5599 37.144H50.1079V47H52.4599V43.64H54.7839C57.2199 43.64 58.3959 42.072 58.3959 40.336C58.3959 38.6 57.3319 37.144 54.5599 37.144ZM54.4339 41.736H52.4599V39.16H54.4339C55.5119 39.16 56.0439 39.566 56.0439 40.448C56.0439 41.232 55.5119 41.736 54.4339 41.736ZM61.3421 47.224C62.6161 47.224 63.4281 46.216 63.7921 45.488C63.8481 45.376 63.9181 45.208 64.0861 45.278C64.2681 45.348 64.1281 45.628 64.0161 45.852C63.9041 46.076 63.8341 46.314 63.8341 46.65V47H66.0741V39.608H63.8341V42.45C63.8341 44.158 63.0081 45.32 62.0981 45.32C61.3001 45.32 60.9221 44.858 60.9221 43.192V39.608H58.6821V44.088C58.6821 46.188 59.7461 47.224 61.3421 47.224ZM69.0923 41.19C68.8823 41.148 68.9663 40.896 69.0783 40.672C69.1903 40.448 69.2743 40.196 69.2743 39.944V39.608H67.0343V47H69.2743V44.13C69.2743 42.254 69.9323 41.512 71.9623 41.652V39.496C70.1843 39.496 69.7643 40.014 69.3303 40.994C69.2883 41.092 69.2183 41.218 69.0923 41.19ZM71.734 43.304C71.734 45.46 73.218 47.224 75.71 47.224C77.964 47.224 79.238 45.67 79.35 44.06L77.138 44.046C77.012 44.732 76.536 45.32 75.724 45.32C74.646 45.32 73.974 44.396 73.974 43.304C73.974 42.212 74.646 41.288 75.724 41.288C76.536 41.288 77.012 41.862 77.138 42.548L79.35 42.534C79.238 40.924 77.95 39.384 75.71 39.384C73.176 39.384 71.734 41.148 71.734 43.304ZM84.4817 39.384C83.2077 39.384 82.3817 40.378 82.0317 41.12C81.9757 41.232 81.9057 41.4 81.7377 41.33C81.5557 41.26 81.6957 40.98 81.8077 40.756C81.9197 40.532 81.9897 40.294 81.9897 39.958V36.92H79.7497V47H81.9897V44.158C81.9897 42.45 82.8157 41.288 83.7257 41.288C84.5237 41.288 84.9017 41.75 84.9017 43.416V47H87.1417V42.52C87.1417 40.42 86.0777 39.384 84.4817 39.384ZM87.5392 45.026C87.5392 46.258 88.6172 47.224 90.1152 47.224C91.3472 47.224 92.1732 46.566 92.6352 45.656C92.6912 45.558 92.7472 45.39 92.9292 45.474C93.0832 45.544 92.9572 45.768 92.8452 46.006C92.7472 46.202 92.6912 46.398 92.6912 46.622V47H94.9312V42.912C94.9312 39.944 93.2372 39.384 91.4872 39.384C89.8352 39.384 88.0152 40.098 87.7632 42.072H89.9752C90.0872 41.512 90.4232 41.064 91.4312 41.064C92.4532 41.064 92.6772 41.596 92.6912 42.016C92.7052 42.646 91.7672 42.562 90.4512 42.646C88.8552 42.744 87.5392 43.36 87.5392 45.026ZM92.6912 43.416C92.6772 44.942 91.6412 45.544 90.9692 45.656C90.3672 45.754 89.7792 45.488 89.7792 44.872C89.7792 44.242 90.2412 44.004 90.7592 43.948C91.8092 43.822 92.3272 43.794 92.6912 43.416ZM95.3256 44.424C95.4236 46.16 96.6276 47.224 98.8956 47.224C101.15 47.224 102.494 46.146 102.494 44.732C102.494 43.136 101.206 42.492 99.1616 42.296C97.9436 42.184 97.7896 41.946 97.7896 41.694C97.7896 41.33 98.0976 41.064 98.8956 41.064C99.7076 41.064 100.03 41.414 100.058 41.96H102.27C102.158 40.196 100.716 39.384 98.9376 39.384C96.7256 39.384 95.5496 40.546 95.5496 41.792C95.5496 42.562 95.7596 43.864 98.3356 44.158C99.5816 44.298 100.254 44.424 100.254 44.872C100.254 45.25 99.9176 45.544 98.9516 45.544C97.8876 45.544 97.5516 44.998 97.5376 44.424H95.3256ZM110.277 43.08C110.277 40.532 108.443 39.384 106.567 39.384C104.089 39.384 102.661 41.008 102.661 43.304C102.661 45.488 104.033 47.224 106.609 47.224C108.695 47.224 109.843 45.936 110.137 44.536H107.911C107.729 45.082 107.295 45.432 106.595 45.432C105.657 45.432 105.027 44.802 104.873 43.864H110.235C110.263 43.654 110.277 43.29 110.277 43.08ZM106.609 41.12C107.435 41.12 107.995 41.624 108.079 42.52H104.929C105.097 41.722 105.545 41.12 106.609 41.12ZM110.671 44.536V47L113.135 47V44.536L110.671 44.536Z"
            fill="#0069E0" />
        <path d="M79 70H86M86 70L83.5 67M86 70L83.5 73" stroke="#0069E0" stroke-linecap="round"
            stroke-linejoin="round" />
        <path
            d="M16.192 70.184C16.192 71.776 17.16 73.064 18.784 73.064C19.744 73.064 20.264 72.344 20.432 71.936C20.448 71.896 20.488 71.856 20.552 71.88C20.6 71.896 20.616 71.944 20.592 72.008C20.48 72.28 20.448 72.448 20.448 72.632V73H21.568V70.056H19.072V70.952H20.44C20.272 71.576 19.816 72.104 19 72.104C17.856 72.104 17.28 71.232 17.28 70.184C17.28 69.12 17.888 68.264 19.04 68.264C19.904 68.264 20.312 68.736 20.488 69.288H21.568C21.392 68.304 20.616 67.304 19.024 67.304C17.184 67.304 16.192 68.592 16.192 70.184ZM26.0811 70.832C26.0811 69.296 25.0651 68.712 24.0891 68.712C22.8011 68.712 21.9851 69.568 21.9851 70.888C21.9851 72.144 22.7371 73.064 24.1051 73.064C25.2331 73.064 25.8251 72.4 26.0091 71.528H24.9691C24.8491 71.904 24.6011 72.168 24.1131 72.168C23.4731 72.168 23.0571 71.784 22.9851 71.144H26.0571C26.0731 71.024 26.0811 70.944 26.0811 70.832ZM23.0251 70.44C23.1291 69.936 23.4251 69.544 24.1211 69.544C24.7131 69.544 25.0171 69.928 25.0571 70.44H23.0251ZM28.9224 69.672V68.776H27.7704V67.624H26.7464V68.776H25.9784V69.672H26.7464V71.704C26.7464 72.72 27.1464 73 27.9944 73H28.9224V72.104H28.2104C27.7784 72.104 27.7704 72.064 27.7704 71.6V69.672H28.9224ZM31.5442 71.576C31.5842 72.48 32.2322 73.064 33.4562 73.064C34.7042 73.064 35.3842 72.56 35.3842 71.68C35.3842 70.832 34.6402 70.496 33.6082 70.392C32.7842 70.312 32.6962 70.144 32.6962 69.944C32.6962 69.704 32.8722 69.512 33.4562 69.512C34.0482 69.512 34.2242 69.808 34.2482 70.072H35.2562C35.2002 69.304 34.5922 68.712 33.4802 68.712C32.2802 68.712 31.6722 69.312 31.6722 70C31.6722 70.472 31.8402 71.144 33.1362 71.304C33.9442 71.4 34.3602 71.448 34.3602 71.76C34.3602 72.04 34.1442 72.264 33.4882 72.264C32.7442 72.264 32.5602 71.888 32.5522 71.576H31.5442ZM37.2588 73.064C37.9948 73.064 38.4588 72.464 38.6668 72.048C38.6988 71.984 38.7228 71.936 38.7868 71.952C38.8908 71.976 38.8428 72.088 38.8108 72.16C38.7388 72.328 38.6828 72.48 38.6828 72.736V73H39.7068V68.776H38.6828V70.496C38.6828 71.472 38.1388 72.136 37.5468 72.136C37.0108 72.136 36.7628 71.872 36.7628 70.92V68.776H35.7388V71.272C35.7388 72.472 36.3468 73.064 37.2588 73.064ZM41.4026 68.776H40.3786V74.536H41.4026V72.816C41.4026 72.656 41.3626 72.528 41.2906 72.384C41.2506 72.304 41.2186 72.224 41.3066 72.192C41.3786 72.168 41.4106 72.248 41.4266 72.272C41.6826 72.736 42.1226 73.064 42.7626 73.064C43.8586 73.064 44.6026 72.104 44.6026 70.888C44.6026 69.672 43.8586 68.712 42.7626 68.712C42.1066 68.712 41.6826 69.048 41.4266 69.496C41.4106 69.528 41.3626 69.632 41.2826 69.592C41.2026 69.552 41.2586 69.456 41.2906 69.376C41.3626 69.232 41.4026 69.104 41.4026 68.936V68.776ZM42.5226 72.136C41.8506 72.136 41.4026 71.56 41.4026 70.888C41.4026 70.216 41.8506 69.64 42.5226 69.64C43.2426 69.64 43.5786 70.216 43.5786 70.888C43.5786 71.56 43.2426 72.136 42.5226 72.136ZM48.9883 70.832C48.9883 69.296 47.9723 68.712 46.9963 68.712C45.7083 68.712 44.8923 69.568 44.8923 70.888C44.8923 72.144 45.6443 73.064 47.0123 73.064C48.1403 73.064 48.7323 72.4 48.9163 71.528H47.8763C47.7563 71.904 47.5083 72.168 47.0203 72.168C46.3803 72.168 45.9643 71.784 45.8923 71.144H48.9643C48.9803 71.024 48.9883 70.944 48.9883 70.832ZM45.9323 70.44C46.0363 69.936 46.3323 69.544 47.0283 69.544C47.6203 69.544 47.9243 69.928 47.9643 70.44H45.9323ZM50.2839 69.68C50.1879 69.664 50.2119 69.568 50.2439 69.496C50.3159 69.352 50.3639 69.192 50.3639 69.008V68.776H49.3399V73H50.3639V71.168C50.3639 70.096 50.7079 69.672 51.8999 69.752V68.712C50.8679 68.712 50.6359 69.016 50.3799 69.6C50.3719 69.624 50.3319 69.688 50.2839 69.68ZM57.5967 67.24V68.936C57.5967 69.104 57.6367 69.232 57.7087 69.376C57.7487 69.456 57.7967 69.552 57.7167 69.592C57.6367 69.632 57.5887 69.528 57.5727 69.496C57.3407 69.032 56.8927 68.712 56.2367 68.712C55.1407 68.712 54.3967 69.672 54.3967 70.888C54.3967 72.104 55.1407 73.064 56.2367 73.064C56.8767 73.064 57.2767 72.712 57.5727 72.272C57.5887 72.248 57.6207 72.168 57.6927 72.192C57.7807 72.224 57.7487 72.304 57.7087 72.384C57.6367 72.528 57.5967 72.656 57.5967 72.816V73H58.6207V67.24H57.5967ZM56.4767 72.136C55.7567 72.136 55.4207 71.56 55.4207 70.888C55.4207 70.216 55.7567 69.64 56.4767 69.64C57.1487 69.64 57.5967 70.216 57.5967 70.888C57.5967 71.56 57.1487 72.136 56.4767 72.136ZM63.0749 70.832C63.0749 69.296 62.0589 68.712 61.0829 68.712C59.7949 68.712 58.9789 69.568 58.9789 70.888C58.9789 72.144 59.7309 73.064 61.0989 73.064C62.2269 73.064 62.8189 72.4 63.0029 71.528H61.9629C61.8429 71.904 61.5949 72.168 61.1069 72.168C60.4669 72.168 60.0509 71.784 59.9789 71.144H63.0509C63.0669 71.024 63.0749 70.944 63.0749 70.832ZM60.0189 70.44C60.1229 69.936 60.4189 69.544 61.1149 69.544C61.7069 69.544 62.0109 69.928 62.0509 70.44H60.0189ZM63.2954 71.84C63.2954 72.552 63.9754 73.064 64.7674 73.064C65.5194 73.064 65.9834 72.728 66.2234 72.144C66.2394 72.104 66.2714 72.024 66.3514 72.056C66.4234 72.088 66.3914 72.168 66.3594 72.24C66.2874 72.376 66.2394 72.512 66.2394 72.704V73H67.2634V70.664C67.2634 69.032 66.3914 68.712 65.4234 68.712C64.4794 68.712 63.5674 69.12 63.4234 70.184H64.4314C64.4874 69.84 64.6714 69.544 65.3914 69.544C66.1194 69.544 66.2314 69.864 66.2394 70.152C66.2474 70.544 65.5834 70.472 64.8314 70.512C63.9834 70.56 63.2954 70.904 63.2954 71.84ZM66.2394 70.824C66.2314 71.872 65.6714 72.224 65.1274 72.296C64.6554 72.36 64.3194 72.136 64.3194 71.784C64.3194 71.408 64.5674 71.24 65.0074 71.192C65.6154 71.128 65.9994 71.088 66.2394 70.824ZM67.9383 67.24V73H68.9623V67.24H67.9383Z"
            fill="#0069E0" />
    </g>
    <defs>
        <clipPath id="clip0_4480_7096">
            <rect width="170" height="186" rx="4" fill="white" />
        </clipPath>
    </defs>
</svg>