<svg xmlns="http://www.w3.org/2000/svg" viewBox="0 0 750 500"><defs><style>.cls-1{fill:#fff;}.cls-2{fill:#d4ede9;}.cls-3{fill:#f7cf4d;}.cls-4{fill:#0b4665;}.cls-5{fill:#f8a706;}.cls-6{fill:#0b4169;}.cls-7{fill:#188991;}.cls-8{opacity:0.5;}.cls-9{fill:#f7a806;}.cls-10{fill:#1a8b91;}.cls-11{fill:#b3dac9;}.cls-12{fill:#f48f8f;}.cls-13{fill:#074066;}.cls-14{fill:#afc1d1;}.cls-15{fill:#106578;}.cls-16{fill:#ce6161;}</style></defs><title>faq</title><g id="BACKGROUND"><rect class="cls-1" width="750" height="500"/></g><g id="OBJECTS"><path class="cls-2" d="M616.48,420H128.21S79.33,227.41,290.13,163.92,685.06,292.52,616.48,420Z"/><path class="cls-3" d="M316.81,356.38H375.7V320.1H316.81ZM355.57,80.81c-41.85,5.16-81.62,30.57-85,100.27l41.5,5.34s7.7-23.63,20.87-28.09,28.33,3,32.3,14.3,5,22-13.91,34.66S310.1,233.13,316.81,304H375.7V288.64c.72-12.07,3.45-28,12.42-35.32,15.41-12.48,49.49-32.95,55.57-68.64C456.76,107.88,404,74.85,355.57,80.81Z"/><rect class="cls-4" x="612.38" y="253.34" width="4.1" height="166.66"/><polygon class="cls-5" points="666.17 280.1 616.48 280.1 616.48 253.34 666.17 253.34 674 266.72 666.17 280.1"/><polygon class="cls-5" points="674 328.05 616.48 328.05 616.48 297.74 674 297.74 686.55 312.9 674 328.05"/><polygon class="cls-5" points="575.29 308.55 612.38 308.55 612.38 283.76 575.29 283.76 563.92 296.15 575.29 308.55"/><path class="cls-6" d="M523.73,195.31a1,1,0,0,1-.67-1.74,35.88,35.88,0,0,0,6-8,44.16,44.16,0,0,1-9.13-2.4c-7.36-2.9-11.49-7.49-11.62-12.92-.26-10.49,6.16-15.42,12.65-15.65,6.72-.22,14,4.36,14.45,13.34A34.15,34.15,0,0,1,532.17,184c20.48,2.35,52.1-4.4,76.32-29.11a1,1,0,0,1,1.42,0,1,1,0,0,1,0,1.41c-24.94,25.45-57.68,32.2-78.69,29.59A36.05,36.05,0,0,1,524.4,195,1,1,0,0,1,523.73,195.31Zm-2.26-38.74H521c-5.1.18-11,3.85-10.72,13.6.11,4.58,3.79,8.52,10.36,11.11A43.81,43.81,0,0,0,530,183.7,32.26,32.26,0,0,0,533.42,168,11.74,11.74,0,0,0,521.47,156.57Z"/><path class="cls-6" d="M94.62,227.18c-13.52,0-24.69-3.75-29.54-10.88-3.75-5.51-5.38-15.37,8.21-31a1,1,0,1,1,1.51,1.31c-10.09,11.64-12.88,21.53-8.07,28.6,7.52,11,33,13.21,56.68,4.84a141.27,141.27,0,0,0,17.54-7.6,19.73,19.73,0,0,1-4.36-7.19c-1.86-5.59-.88-12,2.92-19,3.89-7.23,15.54-14.18,24-14.31,4.05-.1,7.15,1.44,8.83,4.35,1.56,2.7,1.62,6.2.18,10.13C169.68,194,160.9,204,144.39,213a39.6,39.6,0,0,0,9.34,5.83c20.17,9.36,48.25-6.51,48.53-6.67a1,1,0,1,1,1,1.73A86.55,86.55,0,0,1,186.14,221c-9.06,2.69-22.19,4.81-33.25-.33A40.36,40.36,0,0,1,142.51,214a142.67,142.67,0,0,1-18.44,7.92A90.05,90.05,0,0,1,94.62,227.18Zm69.11-53.31h-.22c-7.69.11-18.7,6.69-22.24,13.26s-4.46,12.42-2.79,17.46a18.2,18.2,0,0,0,4.3,6.85c12.67-6.83,24.16-15.84,27.83-25.79,1.23-3.35,1.23-6.26,0-8.43S167,173.87,163.73,173.87Z"/><path class="cls-7" d="M547.15,418.75s7.71,3.73,13.67-7.45c3.73-5.72,4.72-3.23,5.22-15.91.25-7.45,4-11.18,6.46-13.66s3.72-9.7,2.73-12.93-2.92-6.39,4-13.29,10.06-14,10.62-22-3.17-11-12.11-3.54-15.1,19.2-16,20.31-7.46,7.27-7.27,14.91-1.3,11.37-2.61,13.05-6.78,2.11-1.9,23.88C549,406.76,542.31,412.29,547.15,418.75Z"/><path class="cls-6" d="M547.15,418.75s4.66-10.5,3.17-15.53-7.64-7.64-7.64-7.64-.37-13.79-3-19-10.07-12.11-10.81-14.35.19-9.13-6.34-14.54-11.74-10.43-12.86-12.11-8.38-3.91-5.77,15.66c1.11,3,7.45,13.23,9.5,17.51s2.24,9.13,1.49,14,1.68,9.69,6.9,13,6.33,3.16,7.08,8.38S537.09,420.3,547.15,418.75Z"/><path class="cls-1" d="M544.46,418.7l-25.88-59.34,26.79,58.94a.49.49,0,0,1-.25.66.51.51,0,0,1-.66-.25Z"/><path class="cls-1" d="M550.14,416.61c2-6.12,4-12.26,5.89-18.41,1-3.07,1.9-6.16,2.72-9.26s1.68-6.23,2.6-9.32c1.85-6.18,3.92-12.3,6.33-18.28,1.25-3,2.52-5.94,4-8.79a45.47,45.47,0,0,1,5.25-8.1,45.54,45.54,0,0,0-5.14,8.16c-1.48,2.86-2.71,5.84-3.92,8.82-2.33,6-4.32,12.14-6.08,18.33q-1.32,4.65-2.47,9.34c-.79,3.13-1.7,6.23-2.61,9.32q-2.75,9.27-5.66,18.5a.49.49,0,0,1-.63.32.49.49,0,0,1-.32-.62Z"/><path class="cls-6" d="M549.37,401.62a.51.51,0,0,1-.5-.44c0-.16-2.06-16.28-2.93-35.92-.79-18.15-.71-43.12,4.2-59a.48.48,0,0,1,.62-.33.49.49,0,0,1,.33.62c-9.32,30.11-1.31,93.83-1.23,94.48a.48.48,0,0,1-.43.55Z"/><path class="cls-6" d="M550.61,306.44s2.63-9.69,5.61-12.8,6.83-.87,5.72,5.34S550.61,306.44,550.61,306.44Z"/><path class="cls-6" d="M547.8,319.63s6.12-9.47,8.57-9.59,4.45,2.24,1.84,6.34-11,8.2-11,8.2Z"/><path class="cls-6" d="M547,326.83s-5.34-3.62-6.45-6.91-.75-8.14,1.24-8.14,4.65,4.72,5.43,10.75Z"/><path class="cls-6" d="M549.33,311.22s-3.86-3.73-3.92-7.89,1.7-7.33,3.92-5,.39,11.31.39,11.31Z"/><path class="cls-6" d="M546.22,338.93s4.29-7.77,5.9-9.82,5.72-2.73,4.6,3.85-9.14,10.62-10.5,10.56Z"/><path class="cls-6" d="M546.22,337.93s-1.49-4.41-3-5.53-5.72-.56-4.29,5.22,6.15,6.59,7.11,5.9.16,0,.16,0Z"/><path class="cls-6" d="M546.22,359.07s2.86-10.52,5.34-13.56,5.48-3.42,5.35,1.93-9.06,12-10.65,12.85Z"/><path class="cls-6" d="M546.66,369.62s4.34-7.15,6.58-8.15,4.72,5.91,0,9.51-6.32,3-6.32,3Z"/><path class="cls-6" d="M546.66,374.33s-5.91-.49-8.89-4.72-1.57-7.95.89-7.76S544.8,368.12,546.66,374.33Z"/><path class="cls-6" d="M546.06,358s-3,.44-7.4-4.22-2.69-9.14,1.29-7.09,6.27,10.62,6.27,10.62Z"/><g class="cls-8"><path class="cls-7" d="M572.5,218.72s5.09,1.49,5.84-1.12-.25-3.47-1.12-4.22-5.59-.87-6,1.12S572.5,218.72,572.5,218.72Z"/></g><g class="cls-8"><path class="cls-7" d="M555.17,224.31s8-4.6,8-11.43-13.42-9.81-17-10-10.06,6-8.57,17.71C538.21,224.13,547.9,229.53,555.17,224.31Z"/></g><g class="cls-8"><path class="cls-7" d="M520.94,315.13a4.23,4.23,0,0,0,5.59-3.35c1.24-4.85-3.48-3-4.35-2.61S517.46,312.9,520.94,315.13Z"/></g><g class="cls-8"><path class="cls-7" d="M509.38,309.42s8.08.49,9.07-7.71-5.59-10.43-10.06-10.43-11.8,3.08-8.82,13.09C500.19,307.06,503.05,309.92,509.38,309.42Z"/></g><path class="cls-7" d="M146.1,417.76s14.33,1.86,17-15.29.29-14.72,2.9-20.5,5.41-11,5.41-21.61,2.42-15.08,4.84-17.79,5.78-9.42,4.85-18.18.93-18.45,2.79-25,2.61-14.73.94-19.94-9.32-2.43-14.54,5.59-14,27.58-17.15,32.24-4.84,16.23-3.72,25.26,1.33,17.6-2.23,21.14-5.41,17.33-2.8,27.21S141.07,415.71,146.1,417.76Z"/><path class="cls-6" d="M147.22,417.76s.37-12.68-3.1-16.9-.5-16.15-13.92-33.55,2.48-35.53-9.44-50.44-11.93-21.62-11.93-30.06-1.24-19.7-5-21.53-7.7,10.59-7,18.79S84,310.16,89.2,326.32s6,26.09,6,31.06.25,10.93,3.73,13.91,15.16,13.91,8.2,19.38S113.8,417.26,147.22,417.76Z"/><path class="cls-1" d="M143.2,417.53c-4.72-7.73-9-15.66-13.12-23.71s-7.87-16.25-11.38-24.57-6.55-16.82-9.27-25.43a204.58,204.58,0,0,1-6.19-26.33,204,204,0,0,0,6.43,26.26q4.18,12.86,9.49,25.31t11.58,24.42c4.16,8,8.55,15.88,13.3,23.51h0a.51.51,0,0,1-.16.69.5.5,0,0,1-.69-.16Z"/><path class="cls-1" d="M145.64,417.07a192.93,192.93,0,0,0,7.59-23.67c2.11-8,3.13-16.29,4.72-24.46s3.16-16.33,4.84-24.47,3.35-16.29,5.3-24.37c-1.87,8.1-3.44,16.27-5.06,24.42s-3.14,16.33-4.59,24.51S156,385.48,154,393.58a194.23,194.23,0,0,1-7.39,23.87.5.5,0,0,1-.65.28.49.49,0,0,1-.29-.64h0Z"/><g class="cls-8"><path class="cls-7" d="M199.77,388.5s2.43-5.78.94-8-9.32-.56-9,4.85S196.79,388.5,199.77,388.5Z"/></g><g class="cls-8"><path class="cls-7" d="M212.26,375.45s7.64-3.17,5.22-14-15.84-5.59-17.71-2.23S195.3,376.76,212.26,375.45Z"/></g><g class="cls-8"><path class="cls-7" d="M150.2,247.42s3.92.37,2.8-3.17-7.08-2.05-6.9,0S149.09,247.47,150.2,247.42Z"/></g><g class="cls-8"><path class="cls-7" d="M148.15,260.28s-.93,7.27,7.08,10.44,12.68.18,12.86-4.48-.1-8.2-3.59-10.06S147.59,249.84,148.15,260.28Z"/></g><path class="cls-9" d="M220.65,152.44a11,11,0,0,0-11-11H171.51a11,11,0,0,0-11,11v13a11,11,0,0,0,11,11h37.41l10.73,5.22-.87-8.83a4.76,4.76,0,0,0-.53-.56,11,11,0,0,0,2.4-6.83Z"/><path class="cls-1" d="M204.62,154.8a2.42,2.42,0,0,1-2.42,2.42H172.94a2.42,2.42,0,0,1-2.42-2.42h0a2.42,2.42,0,0,1,2.42-2.42H202.2a2.42,2.42,0,0,1,2.42,2.42Z"/><path class="cls-1" d="M194.74,165.61a2.24,2.24,0,0,1-2.23,2.24H172.75a2.24,2.24,0,0,1-2.23-2.24h0a2.23,2.23,0,0,1,2.23-2.24h19.76a2.23,2.23,0,0,1,2.23,2.24Z"/><path class="cls-10" d="M454.14,48.51H413a9,9,0,0,0-8.94,9V67.65A8.94,8.94,0,0,0,413,76.59h17c1.09,2,3,5.19,4.93,6.65,1.16,1.35.77-1.46.77-2.89a4.1,4.1,0,0,1,2.76-3.76h15.74a9,9,0,0,0,8.95-8.94V57.46A9,9,0,0,0,454.14,48.51Z"/><path class="cls-1" d="M457.89,57.33c0,1.24-.76,2.24-1.68,2.24H411.67c-.93,0-1.68-1-1.68-2.24h0c0-1.23.75-2.23,1.68-2.23h44.54c.92,0,1.68,1,1.68,2.23Z"/><path class="cls-1" d="M452.36,67.65c0,1.21-.56,2.2-1.25,2.2H411.23c-.68,0-1.24-1-1.24-2.2h0c0-1.22.56-2.21,1.24-2.21h39.88c.69,0,1.25,1,1.25,2.21Z"/><path class="cls-9" d="M474.1,124l4.91-7.53s-5.28-19.59,13.17-25.18,29.44,9.69,24.22,24-27.21,17.33-36.15,7.08Z"/><rect class="cls-1" x="493.23" y="115.29" width="5.22" height="2.92"/><path class="cls-1" d="M493.6,113.24v-5.71s2.61-.25,2.86-1.74-1.43-1.87-2.54-.5l-3.11-2.05s2.3-6.71,8.51-5.16,4.29,7.71,3.29,9-4.38,2.49-4.38,2.49l-.09,3.66Z"/><path class="cls-11" d="M264.44,451.49s41.93-.38,46.41-1.12c0,0,21.8-2.8,24.78-5.41s-9.87-8-18.26-10.62-50.32-5.59-74.36-3.82-51.25,10.18-29.07,17.53c12.11,3.62,34.2,2.51,34.2,2.51Z"/><path class="cls-4" d="M298.92,437.26l4.19,3.22s4.66.57,5.13,3-2.61,4.48-13,4.57c-3.44.19-7.92-1.86-11.18-2.24s-7-1.39-6.52-12.95C279.91,423.63,295.66,436.64,298.92,437.26Z"/><path class="cls-4" d="M240.59,432.46s1.77,10.73-4.52,12.69c-5.73,2.42-8,3.17-9.37,4s-11.18.58-13.79-1.11-1-5.69,3.17-6.44l6.56-5.53S239.54,426.54,240.59,432.46Z"/><path class="cls-12" d="M251.71,350.42s-8.51,67.24-8.7,70.41-1.49,10.81-3,12.58a23.71,23.71,0,0,1-11.84,7.07c-6.42,1.69-8-.64-7.73-2.5,0,0,8.11-6.43,9.41-11.74S232,352.45,232,345.69,250.71,344.39,251.71,350.42Z"/><path class="cls-12" d="M280.53,346.69l11.18,84,7.21,6.58s-2.33,6.21-13.51,1.37c-5.87-2.8-7.83-5.78-7.83-5.78s-14.82-77-17.42-81.62S278.92,344.21,280.53,346.69Z"/><path class="cls-4" d="M275.6,273.89a51.31,51.31,0,0,0,1.33,15.65c2.05,7.83,11.93,54.23,11.93,54.23s-4.29,13.61-34.67,10.06c-26.46-3.08-31.62-9.31-31.62-9.31s1.62-18.24,3.39-30.09,5.68-27.31,5.87-38.31S273.52,259.54,275.6,273.89Z"/><path class="cls-13" d="M273.29,219.47s-2.05-19-2.23-29.17-13.33-25.25-29.63-13.23c0,0-3.2-1.83-2.27,2.89,0,0-5.34,1.12-8.2,15.16s-6.83,30.06-8.08,33.79S269.54,234,273.29,219.47Z"/><path class="cls-12" d="M258.82,212.63V226l-12.33,1.3.17-17.32S258.82,205.93,258.82,212.63Z"/><path class="cls-12" d="M266.68,195.52a27.37,27.37,0,0,1-22-11.09s-3.92,1.49-3,8.85a4.32,4.32,0,0,1-3.54-.59c-2-1.18-4.42.75-3.36,4a3.46,3.46,0,0,0,4.1,2.55s1.77,15.25,14.26,15.81S266.59,200.74,266.68,195.52Z"/><path class="cls-12" d="M297.61,254.32s8.58-8.58,18-17c3.17-3.36,5.22-8,12.95-7.93s11.28,0,13.79-.65,4.94-.84,4.94.65S337,234.1,331.63,235a9,9,0,0,0-1.68,0s-16.87,22.83-22.55,28.79-10.62,5.69-14.63,0S297.61,254.32,297.61,254.32Z"/><path class="cls-12" d="M207.67,254.23s-21-21-22.15-22.28-7.74-1.58-10.16-1.58-8.94.28-10.34,0-4.66,2.8,3.17,4.94,11.74,2.51,15.28,8.2,17.8,26.93,23.2,28.6,8.76,1,11.83-4S207.67,254.23,207.67,254.23Z"/><path class="cls-10" d="M300.29,248.54l-3.73-2.36-.12-.17c-1,2.82-4.77,13.67-6.31,19.3l2.7,2.36S299.66,255.5,300.29,248.54Z"/><path class="cls-1" d="M296.44,246c-1.42-2-16.1-23.18-20.44-26.64-3.45-3.07-16.31,2.71-17.24,2.8,0,0-1,2.89-5.31,2.8a10.41,10.41,0,0,1-6.9-2.89v-1s-7.87-2.61-12-3.07S227,221.52,224,225.34c-2.43,3.12-8.84,15.8-14.06,22.08,1.36,3.8,5.62,14.33,12.63,19a25.73,25.73,0,0,0,3.57-6s.56,9.59.56,12-1.77,7,11.56,7.92,32.8,3.35,39.41-6.62c1.77-5.6.47-19,.47-19l12,10.53C291.67,259.68,295.45,248.83,296.44,246Z"/><path class="cls-10" d="M209.94,247.42a13.89,13.89,0,0,1-3.27,3.08s2.89,15.37,13.32,20.22l.28-1.59a34.11,34.11,0,0,0,2.3-2.68C215.56,261.75,211.3,251.22,209.94,247.42Z"/><path class="cls-14" d="M278.14,255.28a.47.47,0,0,1-.3-.1l-4.8-3.62,0-.22c-2-18.1,3.09-26.57,3.31-26.92a.49.49,0,0,1,.68-.16.5.5,0,0,1,.17.69c-.05.08-5.06,8.49-3.19,26.07l4.46,3.36a.51.51,0,0,1,.1.71A.5.5,0,0,1,278.14,255.28Z"/><path class="cls-14" d="M254.92,230.31c-2.52,0-7-.49-9.24-3.66a.5.5,0,0,1,.11-.69.51.51,0,0,1,.7.11c2.87,4,10.08,3.16,10.16,3.15a.5.5,0,0,1,.12,1A13.71,13.71,0,0,1,254.92,230.31Z"/><path class="cls-14" d="M233.79,244.75h-.08a.51.51,0,0,1-.42-.58,30.46,30.46,0,0,0-3.74-19.77.5.5,0,0,1,.83-.55,30.83,30.83,0,0,1,3.9,20.48A.49.49,0,0,1,233.79,244.75Z"/><path class="cls-14" d="M226,261.71a.5.5,0,0,1-.44-.74l2.8-5a.51.51,0,0,1,.68-.2.5.5,0,0,1,.19.68l-2.79,5A.52.52,0,0,1,226,261.71Z"/><polygon class="cls-13" points="281.26 213.47 288.86 216.86 291.73 212.76 281.68 211.83 281.26 213.47"/><path class="cls-13" d="M280.84,210.24c.37,0,7.36-5.12,7.36-5.12l-2.95-4-5.81,7.68Z"/><polygon class="cls-13" points="218.95 216.86 220.65 216.86 216.73 206.79 212.54 210.24 218.95 216.86"/><path class="cls-13" d="M217.11,220.87l-8.48,3.26s-2.71-1.59-1.4-5.22h9.88Z"/><path class="cls-11" d="M509.13,432.85s7.65.87,7.65,3.51S505,442.73,467.2,443.1,379,445.9,383.58,438s35.36-11.26,35.36-11.26,21.57,2.4,31.1,2.78S504.66,430.06,509.13,432.85Z"/><path class="cls-4" d="M493,417.63s2,5.26,9.69,6.54,10.44,4.39,9.45,8.74c-1,2.12-9,3-17.05,3.11s-21.59,2-22.71-4.47c-.25-1.62,1.37-14.54,1.37-14.54S490,411.67,493,417.63Z"/><path class="cls-4" d="M426,423.47S426,432,424.9,435s-3,5-13.54,4.72-21.75.87-25.35-1.25-4.35-7.45,6-9.56,12.79-2.11,16.89-11.68S425.52,419.5,426,423.47Z"/><path class="cls-4" d="M478.2,254.22s5.59,61.66,8.57,86.76c.87,10.06,9.32,71.56,8.2,77.34a25.14,25.14,0,0,1-28,.18S450.43,292.71,449.87,291s-2.61-7.64-3.54-.37-11.49,122.13-14.47,130.08c0,0-.44,3.72-9.14,3.41S404,421.36,403,421.67c0,0,5.56-69,8-126.91S411.73,209,478.2,254.22Z"/><path class="cls-12" d="M514.48,249.78s2.73,1.24,5.09,5.59,3.08,6.22,4.1,6.49c0,0,.22,3.73-4.6,2.15,0,0-.71,3.17-5.93,5s-13,4.38-11.18-16.49C502,252.55,513,248.76,514.48,249.78Z"/><path class="cls-12" d="M410.55,136.44s6.8-8.48,11-11.27-2.51-3.64-4.28-2c0,0,.18-3.26-5.22-5.69s-10.62-1.39-12.49,13.89C397,144.64,403.84,139.8,410.55,136.44Z"/><path class="cls-10" d="M479.61,245.61s1.49,7.08,0,9.82-34.33,9.39-68.13,1.43c-2.73-1.11,0-9.56,0-13.17S477.87,242.5,479.61,245.61Z"/><path class="cls-10" d="M443.69,152s11.77-1.24,19.35-.74,19.44,1.3,24.1,12.86,29.26,82.74,29.26,82.74-2.79,10.63-16.21,6.34L481.55,209s5,29.57-3,38.52c0,0-12.67,11.68-63.36,3.23,0,0-8.95-5.72-7.95-13.17s3.73-53,3.73-53-17.9,9-25.35,10.75-19.38-3.24-11.43-21.87,22.11-44.73,22.11-44.73,12.55,1,15.29,9.2L395.33,170s14.66-15.22,26.21-16.9C424.94,152.63,443.69,152,443.69,152Z"/><path class="cls-15" d="M481.3,209.41a.76.76,0,0,1-.74-.64L476,178.58a.75.75,0,1,1,1.48-.22l4.6,30.19a.75.75,0,0,1-.63.85Z"/><path class="cls-15" d="M444,164.68a15,15,0,0,1-6.09-1.2,12.26,12.26,0,0,1-6.51-7.37.75.75,0,1,1,1.41-.51,10.8,10.8,0,0,0,5.71,6.5c5.58,2.52,12.63-.21,12.71-.23a.75.75,0,0,1,.55,1.39A23.08,23.08,0,0,1,444,164.68Z"/><path class="cls-15" d="M392.19,180.15a.75.75,0,0,1-.69-.46c-1.93-4.67,3.45-10.7,3.68-10.95a.75.75,0,0,1,1.06-.05.75.75,0,0,1,.05,1.06c-.05.05-5,5.57-3.4,9.36a.76.76,0,0,1-.41,1A.72.72,0,0,1,392.19,180.15Z"/><path class="cls-15" d="M469.81,258.89a.76.76,0,0,1-.75-.75v-6.85a.75.75,0,0,1,1.5,0v6.85A.75.75,0,0,1,469.81,258.89Z"/><path class="cls-15" d="M456.08,260.6a.75.75,0,0,1-.74-.71l-.38-6.52a.77.77,0,0,1,.71-.8.75.75,0,0,1,.79.71l.37,6.52a.75.75,0,0,1-.7.8Z"/><path class="cls-15" d="M442.51,260.6a.76.76,0,0,1-.75-.75v-6.51a.75.75,0,0,1,1.5,0v6.51A.76.76,0,0,1,442.51,260.6Z"/><path class="cls-15" d="M429.75,260.1a.75.75,0,0,1-.75-.75v-6.77a.75.75,0,0,1,1.5,0v6.77A.76.76,0,0,1,429.75,260.1Z"/><path class="cls-15" d="M416.89,258.24a.75.75,0,0,1-.75-.75v-6.11a.75.75,0,0,1,1.5,0v6.11A.76.76,0,0,1,416.89,258.24Z"/><path class="cls-15" d="M450.9,254.09l-1.78,0c-25.79-.34-37-2.09-38.8-6.06a.75.75,0,1,1,1.37-.61c2.1,4.71,28.7,5.06,37.45,5.17,22.85.31,28.46-5.32,28.51-5.38a.76.76,0,0,1,1.06,0,.75.75,0,0,1,0,1.06C478.53,248.45,473.13,254.09,450.9,254.09Z"/><path class="cls-16" d="M520.21,264.66a.57.57,0,0,1-.25-.06c-2.64-1.49-4.39-6.7-4.47-6.93s-.25-1.29-2-1.39a.65.65,0,0,0-.63.36c-.39.72-.38,2.9,2.18,6.52a.5.5,0,0,1-.12.7.52.52,0,0,1-.7-.12c-2.66-3.76-2.9-6.38-2.23-7.59a1.62,1.62,0,0,1,1.55-.86c2.11.12,2.84,1.47,2.92,2.17h0s1.7,5,4,6.28a.5.5,0,0,1,.19.68A.52.52,0,0,1,520.21,264.66Z"/><path class="cls-16" d="M503.91,268.85a.49.49,0,0,1-.46-.3c-.24-.58-2.29-5.7-.92-7.75a2,2,0,0,1,1.74-.86c1.24,0,1.74,1.47,2.07,2.45,0,.14.09.28.14.41a.5.5,0,0,1-.94.34c-.05-.13-.1-.28-.15-.43-.24-.71-.6-1.77-1.12-1.77a1,1,0,0,0-.91.42c-.81,1.21.19,4.81,1,6.8a.5.5,0,0,1-.27.66A.63.63,0,0,1,503.91,268.85Z"/><path class="cls-16" d="M507.39,266.91a.51.51,0,0,1-.46-.3c-.77-1.7-3.13-7.36-1.18-8.55a1.87,1.87,0,0,1,1.66-.23c.8.3,1.42,1.16,1.89,2.63a.5.5,0,1,1-.95.31c-.49-1.51-1-1.9-1.28-2a.9.9,0,0,0-.8.14c-.81.49.16,4.17,1.57,7.29a.49.49,0,0,1-.25.66A.46.46,0,0,1,507.39,266.91Z"/><path class="cls-16" d="M510.69,265.35a.49.49,0,0,1-.43-.26c-.32-.56-3.1-5.57-2.25-8.12a2.05,2.05,0,0,1,1.16-1.28,2.33,2.33,0,0,1,2,.2,4.77,4.77,0,0,1,1.66,2.91.51.51,0,0,1-.41.58.52.52,0,0,1-.58-.41,3.68,3.68,0,0,0-1.2-2.23,1.37,1.37,0,0,0-1.15-.12,1.09,1.09,0,0,0-.55.67c-.6,1.8,1.36,5.89,2.17,7.31a.5.5,0,0,1-.19.68A.45.45,0,0,1,510.69,265.35Z"/><path class="cls-16" d="M411.92,129.27a1.62,1.62,0,0,1-1.1-.4,2.05,2.05,0,0,1-.32-2.48c.75-1.64,2.29-4.16,2.36-4.27a.49.49,0,0,1,.68-.17.51.51,0,0,1,.17.69s-1.57,2.58-2.3,4.17a1.12,1.12,0,0,0,.06,1.3c.29.25.8.2,1.32-.15,1.22-.79,3.33-3.95,4-5.1a.51.51,0,0,1,.69-.17.49.49,0,0,1,.16.69c-.11.18-2.68,4.35-4.34,5.42A2.66,2.66,0,0,1,411.92,129.27Z"/><path class="cls-16" d="M408.32,128.26a2.6,2.6,0,0,1-1.35-.39,1.4,1.4,0,0,1-.61-1.09c-.22-1.77,1.34-5.51,3-7.14a.5.5,0,0,1,.7,0,.5.5,0,0,1,0,.71c-1.38,1.38-2.85,4.86-2.68,6.31a.59.59,0,0,0,.13.35,1.56,1.56,0,0,0,1.23.2,4.42,4.42,0,0,0,2.12-1.89.49.49,0,0,1,.68-.18.5.5,0,0,1,.19.68,5.41,5.41,0,0,1-2.74,2.36A2.8,2.8,0,0,1,408.32,128.26Z"/><path class="cls-16" d="M406.14,126.07a2.65,2.65,0,0,1-1.88-.63,1.76,1.76,0,0,1-.41-1.68,13.87,13.87,0,0,1,2.52-4.88.5.5,0,1,1,.78.63,13,13,0,0,0-2.32,4.44c-.1.54.08.73.14.79.39.4,1.39.34,1.71.29a.5.5,0,0,1,.16,1A4.71,4.71,0,0,1,406.14,126.07Z"/><path class="cls-16" d="M403.06,124a1.4,1.4,0,0,1-1.06-.4c-.74-.76-.42-2.34,1-5a.49.49,0,0,1,.67-.2.49.49,0,0,1,.21.67c-1.69,3.14-1.22,3.77-1.17,3.83.22.22,1,0,1.5-.22a.5.5,0,0,1,.44.9A4,4,0,0,1,403.06,124Z"/><path class="cls-15" d="M411,185.37a.71.71,0,0,1-.6-.31.73.73,0,0,1,.17-1l3.71-2.68a.75.75,0,1,1,.88,1.22l-3.72,2.67A.7.7,0,0,1,411,185.37Z"/><path class="cls-12" d="M450.62,142.25v9.44s2,2.68,0,4.79-9.45,3-13.05-.5c-2.61-2.67-1.43-4.1-1.43-4.1v-9.94S449.56,140.7,450.62,142.25Z"/><path class="cls-12" d="M459.56,113.52s.93,13,0,19-2.23,12.39-16.3,12.39-14.82-4.56-17.62-16.77c0,0-4.47,1.58-5.31-3.63-1.12-7,4.07-6.56,4.07-6.56s3.57-12.55,6.93-13.66,12.76-1.59,13.7-1.12S459.56,113.52,459.56,113.52Z"/><path class="cls-13" d="M464.53,108.15s1.37,9.07-10.43,6-2-10.56-22.24-7.83c-3.11.87-2.11,5.22-2.11,7.21s-1,7.33-8,5.22c0,0-1.62-2.44-2.23-3.6s-4.35-11.68,8.45-13.67c0,0-.78-2.55.24-2.83s2,2.8,2,2.8,2.21-9.35,18-7.36C455.9,95,456.77,108.58,464.53,108.15Z"/></g></svg>