<svg width="625" height="404" viewBox="0 0 625 404" fill="none" xmlns="http://www.w3.org/2000/svg">
<path d="M554.479 371.999H66.2093C66.2093 371.999 17.3293 179.409 228.129 115.919C438.929 52.4294 623.059 244.519 554.479 371.999Z" fill="#D4EDE9"/>
<path d="M254.809 308.38H313.699V272.1H254.809V308.38ZM293.569 32.8101C251.719 37.9701 211.949 63.3801 208.569 133.08L250.069 138.42C250.069 138.42 257.769 114.79 270.939 110.33C284.109 105.87 299.269 113.33 303.239 124.63C307.209 135.93 308.239 146.63 289.329 159.29C270.419 171.95 248.099 185.13 254.809 256H313.699V240.64C314.419 228.57 317.149 212.64 326.119 205.32C341.529 192.84 375.609 172.37 381.689 136.68C394.759 59.8801 341.999 26.8501 293.569 32.8101Z" fill="#F7CF4D"/>
<path d="M554.48 205.34H550.38V372H554.48V205.34Z" fill="#0B4665"/>
<path d="M604.169 232.1H554.479V205.34H604.169L612 218.72L604.169 232.1Z" fill="#FCFCFC"/>
<path d="M612 280.05H554.479V249.74H612L624.549 264.9L612 280.05Z" fill="#FCFCFC"/>
<path d="M513.29 260.55H550.38V235.76H513.29L501.92 248.15L513.29 260.55Z" fill="#FCFCFC"/>
<path d="M461.729 147.309C461.528 147.309 461.331 147.247 461.165 147.133C460.999 147.019 460.871 146.857 460.799 146.669C460.726 146.481 460.712 146.275 460.759 146.079C460.805 145.883 460.91 145.705 461.059 145.569C463.423 143.196 465.443 140.503 467.059 137.569C463.939 137.098 460.878 136.293 457.929 135.169C450.569 132.269 446.439 127.679 446.309 122.249C446.049 111.759 452.469 106.829 458.959 106.599C465.679 106.379 472.959 110.959 473.409 119.939C473.649 125.476 472.537 130.988 470.169 135.999C490.649 138.349 522.269 131.599 546.489 106.889C546.582 106.796 546.693 106.721 546.815 106.67C546.937 106.62 547.067 106.594 547.199 106.594C547.331 106.594 547.462 106.62 547.584 106.67C547.706 106.721 547.816 106.796 547.909 106.889C548.096 107.077 548.2 107.33 548.2 107.594C548.2 107.859 548.096 108.112 547.909 108.299C522.969 133.749 490.229 140.499 469.219 137.889C467.443 141.268 465.141 144.343 462.399 146.999C462.224 147.184 461.984 147.295 461.729 147.309ZM459.469 108.569H458.999C453.899 108.749 447.999 112.419 448.279 122.169C448.389 126.749 452.069 130.689 458.639 133.279C461.661 134.429 464.8 135.24 467.999 135.699C470.445 130.838 471.622 125.437 471.419 119.999C471.338 116.903 470.037 113.964 467.798 111.823C465.56 109.683 462.566 108.513 459.469 108.569V108.569Z" fill="#0B4169"/>
<path d="M32.6197 179.18C19.0997 179.18 7.92973 175.43 3.07973 168.3C-0.670273 162.79 -2.30027 152.93 11.2897 137.3C11.3743 137.196 11.4789 137.11 11.5973 137.048C11.7157 136.985 11.8454 136.947 11.9788 136.935C12.1122 136.924 12.2466 136.939 12.374 136.981C12.5013 137.022 12.6191 137.089 12.7202 137.176C12.8214 137.264 12.9039 137.371 12.9628 137.491C13.0218 137.612 13.056 137.743 13.0634 137.876C13.0708 138.01 13.0513 138.144 13.006 138.27C12.9607 138.396 12.8906 138.511 12.7997 138.61C2.70973 150.25 -0.0802712 160.14 4.72973 167.21C12.2497 178.21 37.7297 180.42 61.4097 172.05C67.4213 169.915 73.2814 167.376 78.9497 164.45C76.9966 162.394 75.5095 159.942 74.5897 157.26C72.7297 151.67 73.7097 145.26 77.5097 138.26C81.3997 131.03 93.0497 124.08 101.51 123.95C105.56 123.85 108.66 125.39 110.34 128.3C111.9 131 111.96 134.5 110.52 138.43C107.68 146 98.8997 156 82.3897 165C85.2164 167.369 88.3601 169.331 91.7297 170.83C111.9 180.19 139.98 164.32 140.26 164.16C140.374 164.088 140.501 164.039 140.634 164.017C140.767 163.995 140.903 164 141.034 164.033C141.165 164.065 141.288 164.123 141.396 164.204C141.504 164.285 141.594 164.387 141.662 164.503C141.729 164.62 141.773 164.749 141.789 164.883C141.805 165.017 141.794 165.153 141.757 165.282C141.719 165.412 141.656 165.533 141.57 165.637C141.485 165.741 141.379 165.827 141.26 165.89C135.824 168.866 130.084 171.25 124.14 173C115.08 175.69 101.95 177.81 90.8897 172.67C87.1083 170.992 83.6074 168.742 80.5097 166C74.5566 169.069 68.3947 171.716 62.0697 173.92C52.615 177.303 42.661 179.081 32.6197 179.18V179.18ZM101.73 125.87H101.51C93.8197 125.98 82.8097 132.56 79.2697 139.13C75.7297 145.7 74.8097 151.55 76.4797 156.59C77.3812 159.167 78.8508 161.508 80.7797 163.44C93.4497 156.61 104.94 147.6 108.61 137.65C109.84 134.3 109.84 131.39 108.61 129.22C107.38 127.05 105 125.87 101.73 125.87V125.87Z" fill="#0B4169"/>
<path d="M485.149 370.75C485.149 370.75 492.859 374.48 498.819 363.3C502.549 357.58 503.539 360.07 504.039 347.39C504.289 339.94 508.039 336.21 510.499 333.73C512.959 331.25 514.219 324.03 513.229 320.8C512.239 317.57 510.309 314.41 517.229 307.51C524.149 300.61 527.289 293.51 527.849 285.51C528.409 277.51 524.679 274.51 515.739 281.97C506.799 289.43 500.639 301.17 499.739 302.28C498.839 303.39 492.279 309.55 492.469 317.19C492.659 324.83 491.169 328.56 489.859 330.24C488.549 331.92 483.079 332.35 487.959 354.12C486.999 358.76 480.309 364.29 485.149 370.75Z" fill="#188991"/>
<path d="M485.15 370.75C485.15 370.75 489.81 360.25 488.32 355.22C486.83 350.19 480.68 347.58 480.68 347.58C480.68 347.58 480.31 333.79 477.68 328.58C475.05 323.37 467.61 316.47 466.87 314.23C466.13 311.99 467.06 305.1 460.53 299.69C454 294.28 448.79 289.26 447.67 287.58C446.55 285.9 439.29 283.67 441.9 303.24C443.01 306.24 449.35 316.47 451.4 320.75C453.45 325.03 453.64 329.88 452.89 334.75C452.14 339.62 454.57 344.44 459.79 347.75C465.01 351.06 466.12 350.91 466.87 356.13C467.62 361.35 475.09 372.3 485.15 370.75Z" fill="#0B4169"/>
<path d="M482.46 370.699L456.58 311.359L483.37 370.299C483.398 370.359 483.414 370.424 483.417 370.489C483.419 370.555 483.409 370.621 483.385 370.683C483.362 370.744 483.327 370.8 483.281 370.848C483.235 370.896 483.181 370.933 483.12 370.959C482.999 371.011 482.863 371.014 482.74 370.967C482.617 370.92 482.517 370.828 482.46 370.709V370.699Z" fill="white"/>
<path d="M488.139 368.61C490.139 362.49 492.139 356.35 494.029 350.2C495.029 347.13 495.929 344.04 496.749 340.94C497.569 337.84 498.429 334.71 499.349 331.62C501.199 325.44 503.269 319.32 505.679 313.34C506.929 310.34 508.199 307.4 509.679 304.55C511.137 301.672 512.897 298.956 514.929 296.45C512.932 298.981 511.209 301.716 509.789 304.61C508.309 307.47 507.079 310.45 505.869 313.43C503.539 319.43 501.549 325.57 499.789 331.76C498.909 334.86 498.086 337.974 497.319 341.1C496.529 344.23 495.619 347.33 494.709 350.42C492.876 356.6 490.989 362.767 489.049 368.92C489.03 368.983 488.998 369.042 488.956 369.092C488.914 369.143 488.861 369.184 488.803 369.214C488.744 369.244 488.679 369.262 488.614 369.266C488.548 369.271 488.482 369.262 488.419 369.24C488.357 369.221 488.3 369.189 488.25 369.148C488.201 369.106 488.16 369.055 488.13 368.997C488.1 368.939 488.082 368.876 488.077 368.812C488.072 368.747 488.079 368.682 488.099 368.62L488.139 368.61Z" fill="white"/>
<path d="M487.369 353.619C487.247 353.618 487.129 353.573 487.038 353.492C486.946 353.412 486.886 353.301 486.869 353.179C486.869 353.019 484.809 336.899 483.939 317.259C483.149 299.109 483.229 274.139 488.139 258.259C488.156 258.196 488.186 258.136 488.227 258.085C488.268 258.033 488.32 257.991 488.378 257.96C488.436 257.929 488.5 257.91 488.565 257.905C488.631 257.9 488.697 257.908 488.759 257.929C488.822 257.948 488.881 257.978 488.932 258.02C488.983 258.061 489.025 258.112 489.055 258.17C489.086 258.228 489.105 258.291 489.111 258.356C489.117 258.421 489.109 258.487 489.089 258.549C479.769 288.659 487.779 352.379 487.859 353.029C487.869 353.094 487.866 353.16 487.849 353.223C487.833 353.287 487.803 353.346 487.763 353.397C487.723 353.449 487.672 353.491 487.615 353.523C487.558 353.554 487.495 353.573 487.429 353.579L487.369 353.619Z" fill="#0B4169"/>
<path d="M488.609 258.44C488.609 258.44 491.239 248.75 494.219 245.64C497.199 242.53 501.049 244.77 499.939 250.98C498.829 257.19 488.609 258.44 488.609 258.44Z" fill="#0B4169"/>
<path d="M485.8 271.63C485.8 271.63 491.92 262.16 494.37 262.04C496.82 261.92 498.82 264.28 496.21 268.38C493.6 272.48 485.21 276.579 485.21 276.579L485.8 271.63Z" fill="#0B4169"/>
<path d="M485 278.829C485 278.829 479.66 275.209 478.55 271.919C477.44 268.629 477.8 263.779 479.79 263.779C481.78 263.779 484.44 268.499 485.22 274.529L485 278.829Z" fill="#0B4169"/>
<path d="M487.33 263.22C487.33 263.22 483.47 259.49 483.41 255.33C483.35 251.17 485.11 248 487.33 250.33C489.55 252.66 487.72 261.64 487.72 261.64L487.33 263.22Z" fill="#0B4169"/>
<path d="M484.22 290.93C484.22 290.93 488.51 283.16 490.12 281.11C491.73 279.06 495.84 278.38 494.72 284.96C493.6 291.54 485.58 295.58 484.22 295.52V290.93Z" fill="#0B4169"/>
<path d="M484.22 289.929C484.22 289.929 482.73 285.519 481.22 284.399C479.71 283.279 475.5 283.839 476.93 289.619C478.36 295.399 483.08 296.209 484.04 295.519C485 294.829 484.2 295.519 484.2 295.519L484.22 289.929Z" fill="#0B4169"/>
<path d="M484.22 311.07C484.22 311.07 487.08 300.55 489.56 297.51C492.04 294.47 495.04 294.09 494.91 299.44C494.78 304.79 485.85 311.44 484.26 312.29L484.22 311.07Z" fill="#0B4169"/>
<path d="M484.66 321.62C484.66 321.62 489 314.47 491.24 313.47C493.48 312.47 495.96 319.38 491.24 322.98C486.52 326.58 484.92 325.98 484.92 325.98L484.66 321.62Z" fill="#0B4169"/>
<path d="M484.659 326.33C484.659 326.33 478.749 325.84 475.769 321.61C472.789 317.38 474.199 313.66 476.659 313.85C479.119 314.04 482.799 320.12 484.659 326.33Z" fill="#0B4169"/>
<path d="M484.06 310C484.06 310 481.06 310.44 476.66 305.78C472.26 301.12 473.97 296.64 477.95 298.69C481.93 300.74 484.22 309.31 484.22 309.31L484.06 310Z" fill="#0B4169"/>
<g opacity="0.5">
<path d="M510.499 170.72C510.499 170.72 515.589 172.21 516.339 169.6C517.089 166.99 516.089 166.13 515.219 165.38C514.349 164.63 509.629 164.51 509.219 166.5C508.809 168.49 510.499 170.72 510.499 170.72Z" fill="#188991"/>
</g>
<g opacity="0.5">
<path d="M493.17 176.31C493.17 176.31 501.17 171.71 501.17 164.88C501.17 158.05 487.75 155.07 484.17 154.88C480.59 154.69 474.11 160.88 475.6 172.59C476.21 176.13 485.9 181.53 493.17 176.31Z" fill="#188991"/>
</g>
<g opacity="0.5">
<path d="M458.94 267.13C459.527 267.337 460.152 267.412 460.772 267.35C461.391 267.288 461.989 267.089 462.523 266.769C463.057 266.45 463.514 266.016 463.861 265.499C464.207 264.982 464.436 264.395 464.53 263.78C465.77 258.93 461.05 260.78 460.18 261.17C459.31 261.56 455.46 264.9 458.94 267.13Z" fill="#188991"/>
</g>
<g opacity="0.5">
<path d="M447.38 261.419C447.38 261.419 455.46 261.909 456.45 253.709C457.44 245.509 450.86 243.279 446.39 243.279C441.92 243.279 434.59 246.359 437.57 256.369C438.19 259.059 441.05 261.919 447.38 261.419Z" fill="#188991"/>
</g>
<path d="M84.1 369.76C84.1 369.76 98.43 371.62 101.1 354.47C103.77 337.32 101.39 339.75 104 333.97C106.61 328.19 109.41 322.97 109.41 312.36C109.41 301.75 111.83 297.28 114.25 294.57C116.67 291.86 120.03 285.15 119.1 276.39C118.17 267.63 120.03 257.94 121.89 251.39C123.75 244.84 124.5 236.66 122.83 231.45C121.16 226.24 113.51 229.02 108.29 237.04C103.07 245.06 94.29 264.62 91.14 269.28C87.99 273.94 86.3 285.51 87.42 294.54C88.54 303.57 88.75 312.14 85.19 315.68C81.63 319.22 79.78 333.01 82.39 342.89C85 352.77 79.07 367.71 84.1 369.76Z" fill="#188991"/>
<path d="M85.2195 369.76C85.2195 369.76 85.5895 357.08 82.1195 352.86C78.6495 348.64 81.6195 336.71 68.1995 319.31C54.7795 301.91 70.6795 283.78 58.7595 268.87C46.8395 253.96 46.8295 247.25 46.8295 238.81C46.8295 230.37 45.5895 219.11 41.8295 217.28C38.0695 215.45 34.1295 227.87 34.8295 236.07C35.5295 244.27 21.9995 262.16 27.1995 278.32C32.3995 294.48 33.1995 304.41 33.1995 309.38C33.1995 314.35 33.4495 320.31 36.9295 323.29C40.4095 326.27 52.0895 337.2 45.1295 342.67C38.1695 348.14 51.7995 369.26 85.2195 369.76Z" fill="#0B4169"/>
<path d="M81.1993 369.53C76.4793 361.8 72.1993 353.87 68.0793 345.82C63.9593 337.77 60.2093 329.57 56.6993 321.25C53.1893 312.93 50.1493 304.43 47.4293 295.82C44.7874 287.19 42.7195 278.394 41.2393 269.49C42.7996 278.376 44.9476 287.149 47.6693 295.75C50.4559 304.324 53.6193 312.76 57.1593 321.06C60.6993 329.36 64.5593 337.5 68.7393 345.48C72.8993 353.48 77.2893 361.36 82.0393 368.99C82.1072 369.104 82.1284 369.239 82.0986 369.368C82.0687 369.496 81.9901 369.608 81.8793 369.68C81.8235 369.715 81.7614 369.739 81.6964 369.75C81.6315 369.76 81.5651 369.758 81.501 369.743C81.4369 369.729 81.3764 369.701 81.3229 369.663C81.2694 369.625 81.224 369.576 81.1893 369.52L81.1993 369.53Z" fill="white"/>
<path d="M83.6396 369.07C86.6758 361.351 89.211 353.445 91.2296 345.4C93.3396 337.4 94.3596 329.11 95.9496 320.94C97.5396 312.77 99.1096 304.61 100.79 296.47C102.47 288.33 104.14 280.18 106.09 272.1C104.22 280.2 102.65 288.37 101.03 296.52C99.4096 304.67 97.8896 312.85 96.4396 321.03C94.9896 329.21 93.9996 337.48 91.9996 345.58C90.0512 353.687 87.5827 361.66 84.6096 369.45C84.5854 369.511 84.5493 369.566 84.5035 369.614C84.4577 369.661 84.403 369.698 84.3427 369.724C84.2823 369.75 84.2174 369.764 84.1517 369.765C84.0859 369.766 84.0207 369.754 83.9596 369.73C83.898 369.707 83.8414 369.673 83.7933 369.629C83.7452 369.584 83.7065 369.531 83.6794 369.471C83.6524 369.411 83.6376 369.347 83.6359 369.281C83.6342 369.216 83.6457 369.151 83.6696 369.09V369.09L83.6396 369.07Z" fill="white"/>
<g opacity="0.5">
<path d="M137.77 340.5C137.77 340.5 140.2 334.72 138.71 332.5C137.22 330.28 129.39 331.94 129.71 337.35C130.03 342.76 134.79 340.5 137.77 340.5Z" fill="#188991"/>
</g>
<g opacity="0.5">
<path d="M150.259 327.45C150.259 327.45 157.899 324.28 155.479 313.45C153.059 302.62 139.639 307.86 137.769 311.22C135.899 314.58 133.299 328.76 150.259 327.45Z" fill="#188991"/>
</g>
<g opacity="0.5">
<path d="M88.1997 199.419C88.1997 199.419 92.1197 199.789 90.9997 196.249C89.8797 192.709 83.9197 194.199 84.0997 196.249C84.2797 198.299 87.0897 199.469 88.1997 199.419Z" fill="#188991"/>
</g>
<g opacity="0.5">
<path d="M86.1502 212.28C86.1502 212.28 85.2202 219.55 93.2302 222.72C101.24 225.89 105.91 222.9 106.09 218.24C106.27 213.58 105.99 210.04 102.5 208.18C99.0102 206.32 85.5902 201.84 86.1502 212.28Z" fill="#188991"/>
</g>
<path d="M158.65 104.439C158.65 101.522 157.491 98.7242 155.428 96.6613C153.365 94.5984 150.567 93.4395 147.65 93.4395H109.51C106.592 93.4395 103.794 94.5984 101.732 96.6613C99.6687 98.7242 98.5098 101.522 98.5098 104.439V117.439C98.5098 120.357 99.6687 123.155 101.732 125.218C103.794 127.281 106.592 128.439 109.51 128.439H146.92L157.65 133.659L156.78 124.829C156.619 124.629 156.441 124.441 156.25 124.269C157.797 122.329 158.643 119.922 158.65 117.439V104.439Z" fill="#F7A806"/>
<path d="M142.62 106.8C142.62 107.442 142.365 108.057 141.911 108.511C141.457 108.965 140.841 109.22 140.2 109.22H110.94C110.298 109.22 109.682 108.965 109.228 108.511C108.774 108.057 108.52 107.442 108.52 106.8C108.52 106.158 108.774 105.543 109.228 105.089C109.682 104.635 110.298 104.38 110.94 104.38H140.2C140.841 104.38 141.457 104.635 141.911 105.089C142.365 105.543 142.62 106.158 142.62 106.8V106.8Z" fill="white"/>
<path d="M132.74 117.61C132.74 118.202 132.505 118.771 132.087 119.191C131.669 119.61 131.102 119.847 130.51 119.85H110.75C110.157 119.847 109.59 119.61 109.172 119.191C108.754 118.771 108.52 118.202 108.52 117.61V117.61C108.518 117.316 108.575 117.025 108.686 116.754C108.798 116.482 108.962 116.235 109.169 116.027C109.376 115.819 109.623 115.654 109.894 115.541C110.165 115.428 110.456 115.37 110.75 115.37H130.51C130.803 115.37 131.094 115.428 131.365 115.541C131.636 115.654 131.883 115.819 132.09 116.027C132.297 116.235 132.461 116.482 132.573 116.754C132.684 117.025 132.741 117.316 132.74 117.61Z" fill="white"/>
<path d="M392.14 0.509771H351C348.623 0.525615 346.349 1.48082 344.674 3.16693C343 4.85305 342.06 7.13318 342.06 9.50977V19.6498C342.06 22.0208 343.001 24.2947 344.678 25.9713C346.355 27.6479 348.629 28.5898 351 28.5898H368C369.09 30.5898 371 33.7798 372.93 35.2398C374.09 36.5898 373.7 33.7798 373.7 32.3498C373.723 31.5168 374 30.7108 374.493 30.0391C374.986 29.3673 375.672 28.8618 376.46 28.5898H392.2C394.568 28.5767 396.835 27.6309 398.51 25.9574C400.185 24.284 401.134 22.0177 401.15 19.6498V9.45977C401.136 7.07977 400.181 4.8019 398.492 3.12458C396.804 1.44727 394.52 0.50709 392.14 0.509771V0.509771Z" fill="#1A8B91"/>
<path d="M395.889 9.32961C395.889 10.5696 395.129 11.5696 394.209 11.5696H349.669C348.739 11.5696 347.989 10.5696 347.989 9.32961C347.989 8.09961 348.739 7.09961 349.669 7.09961H394.209C395.129 7.09961 395.889 8.09961 395.889 9.32961V9.32961Z" fill="white"/>
<path d="M390.359 19.6495C390.359 20.8595 389.799 21.8494 389.109 21.8494H349.229C348.549 21.8494 347.989 20.8495 347.989 19.6495C347.989 18.4295 348.549 17.4395 349.229 17.4395H389.109C389.799 17.4395 390.359 18.4395 390.359 19.6495Z" fill="white"/>
<path d="M412.1 76.0003L417.01 68.4703C417.01 68.4703 411.73 48.8803 430.18 43.2903C448.63 37.7003 459.62 52.9803 454.4 67.2903C449.18 81.6003 427.19 84.6203 418.25 74.3703L412.1 76.0003Z" fill="#F7A806"/>
<path d="M436.449 67.29H431.229V70.21H436.449V67.29Z" fill="white"/>
<path d="M431.6 65.2401V59.5301C431.6 59.5301 434.21 59.2801 434.46 57.7901C434.71 56.3001 433.03 55.9201 431.92 57.2901L428.81 55.2401C428.81 55.2401 431.11 48.5301 437.32 50.0801C443.53 51.6301 441.61 57.7901 440.61 59.0801C439.61 60.3701 436.23 61.5701 436.23 61.5701L436.14 65.2301L431.6 65.2401Z" fill="white"/>
<path d="M202.439 403.49C202.439 403.49 244.369 403.11 248.849 402.37C248.849 402.37 270.649 399.57 273.629 396.96C276.609 394.35 263.759 388.96 255.369 386.34C246.979 383.72 205.049 380.75 181.009 382.52C156.969 384.29 129.759 392.7 151.939 400.05C164.049 403.67 186.139 402.56 186.139 402.56L202.439 403.49Z" fill="#B3DAC9"/>
<path d="M236.92 389.259L241.11 392.479C241.11 392.479 245.77 393.049 246.24 395.479C246.71 397.909 243.63 399.959 233.24 400.049C229.8 400.239 225.32 398.189 222.06 397.809C218.8 397.429 215.06 396.419 215.54 384.859C217.91 375.629 233.66 388.639 236.92 389.259Z" fill="#0B4665"/>
<path d="M178.589 384.46C178.589 384.46 180.359 395.19 174.069 397.15C168.339 399.57 166.069 400.32 164.699 401.15C163.329 401.98 153.519 401.73 150.909 400.04C148.299 398.35 149.909 394.35 154.079 393.6L160.639 388.07C160.639 388.07 177.539 378.54 178.589 384.46Z" fill="#0B4665"/>
<path d="M189.71 302.42C189.71 302.42 181.2 369.66 181.01 372.83C180.82 376 179.52 383.64 178.01 385.41C174.851 388.888 170.73 391.349 166.17 392.48C159.75 394.17 158.17 391.84 158.44 389.98C158.44 389.98 166.55 383.55 167.85 378.24C169.15 372.93 170 304.45 170 297.69C170 290.93 188.71 296.39 189.71 302.42Z" fill="#F48F8F"/>
<path d="M218.53 298.69L229.71 382.69L236.92 389.27C236.92 389.27 234.59 395.48 223.41 390.64C217.54 387.84 215.58 384.86 215.58 384.86C215.58 384.86 200.76 307.86 198.16 303.24C195.56 298.62 216.92 296.21 218.53 298.69Z" fill="#F48F8F"/>
<path d="M213.599 225.89C213.237 231.144 213.685 236.422 214.929 241.54C216.979 249.37 226.859 295.77 226.859 295.77C226.859 295.77 222.569 309.38 192.189 305.83C165.729 302.75 160.569 296.52 160.569 296.52C160.569 296.52 162.189 278.28 163.959 266.43C165.729 254.58 169.639 239.12 169.829 228.12C170.019 217.12 211.519 211.54 213.599 225.89Z" fill="#0B4665"/>
<path d="M211.29 171.47C211.29 171.47 209.239 152.47 209.059 142.3C208.879 132.13 195.729 117.05 179.429 129.07C179.429 129.07 176.23 127.24 177.16 131.96C177.16 131.96 171.82 133.08 168.96 147.12C166.1 161.16 162.13 177.18 160.88 180.91C159.63 184.64 207.54 186 211.29 171.47Z" fill="#074066"/>
<path d="M196.819 164.63V178L184.489 179.3L184.659 161.98C184.659 161.98 196.819 157.93 196.819 164.63Z" fill="#F48F8F"/>
<path d="M204.68 147.52C200.401 147.519 196.182 146.516 192.361 144.59C188.541 142.664 185.225 139.869 182.68 136.43C182.68 136.43 178.76 137.92 179.68 145.28C179.082 145.441 178.456 145.471 177.845 145.37C177.235 145.268 176.653 145.036 176.14 144.69C174.14 143.51 171.72 145.44 172.78 148.69C172.996 149.565 173.545 150.322 174.311 150.798C175.077 151.274 175.999 151.433 176.88 151.24C176.88 151.24 178.65 166.49 191.14 167.05C203.63 167.61 204.59 152.74 204.68 147.52Z" fill="#F48F8F"/>
<path d="M235.61 206.32C235.61 206.32 244.19 197.74 253.61 189.32C256.78 185.96 258.83 181.32 266.56 181.39C274.29 181.46 277.84 181.39 280.35 180.74C282.86 180.09 285.29 179.9 285.29 181.39C285.29 182.88 275 186.1 269.63 187C269.071 186.948 268.509 186.948 267.95 187C267.95 187 251.08 209.83 245.4 215.79C239.72 221.75 234.78 221.48 230.77 215.79C226.76 210.1 235.61 206.32 235.61 206.32Z" fill="#F48F8F"/>
<path d="M145.67 206.229C145.67 206.229 124.67 185.229 123.52 183.949C122.37 182.669 115.78 182.369 113.36 182.369C110.94 182.369 104.42 182.649 103.02 182.369C101.62 182.089 98.3599 185.169 106.19 187.309C114.02 189.449 117.93 189.819 121.47 195.509C125.01 201.199 139.27 222.439 144.67 224.109C150.07 225.779 153.43 225.109 156.5 220.109C159.57 215.109 145.67 206.229 145.67 206.229Z" fill="#F48F8F"/>
<path d="M238.29 200.54L234.56 198.18L234.44 198.01C233.44 200.83 229.67 211.68 228.13 217.31L230.83 219.67C230.83 219.67 237.66 207.5 238.29 200.54Z" fill="#1A8B91"/>
<path d="M234.439 197.999C233.019 195.999 218.339 174.819 213.999 171.359C210.549 168.289 197.689 174.069 196.759 174.159C196.759 174.159 195.759 177.049 191.449 176.959C188.871 176.884 186.412 175.854 184.549 174.069V173.069C184.549 173.069 176.679 170.459 172.549 169.999C168.419 169.539 164.999 173.519 161.999 177.339C159.569 180.459 153.159 193.139 147.939 199.419C149.299 203.219 153.559 213.749 160.569 218.419C162.027 216.591 163.228 214.572 164.139 212.419C164.139 212.419 164.699 222.009 164.699 224.419C164.699 226.829 162.929 231.419 176.259 232.339C189.589 233.259 209.059 235.689 215.669 225.719C217.439 220.119 216.139 206.719 216.139 206.719L228.139 217.249C229.669 211.679 233.449 200.829 234.439 197.999Z" fill="white"/>
<path d="M147.94 199.42C147.024 200.617 145.92 201.657 144.67 202.5C144.67 202.5 147.56 217.87 157.99 222.72L158.27 221.13C159.082 220.277 159.85 219.382 160.57 218.45C153.56 213.75 149.3 203.22 147.94 199.42Z" fill="#1A8B91"/>
<path d="M216.14 207.28C216.031 207.282 215.925 207.247 215.84 207.18L211.04 203.56V203.34C209.04 185.24 214.13 176.77 214.35 176.42C214.384 176.364 214.428 176.316 214.481 176.278C214.533 176.24 214.593 176.212 214.656 176.198C214.72 176.183 214.785 176.181 214.849 176.191C214.914 176.202 214.975 176.225 215.03 176.26C215.087 176.294 215.136 176.339 215.175 176.392C215.215 176.445 215.243 176.505 215.259 176.57C215.275 176.634 215.278 176.7 215.267 176.766C215.257 176.831 215.234 176.894 215.2 176.95C215.15 177.03 210.14 185.44 212.01 203.02L216.47 206.38C216.577 206.461 216.647 206.582 216.666 206.715C216.684 206.847 216.65 206.982 216.57 207.09C216.519 207.155 216.454 207.206 216.379 207.239C216.304 207.272 216.222 207.286 216.14 207.28V207.28Z" fill="#AFC1D1"/>
<path d="M192.92 182.31C190.4 182.31 185.92 181.82 183.68 178.65C183.604 178.543 183.574 178.411 183.594 178.282C183.615 178.153 183.685 178.038 183.79 177.96C183.898 177.884 184.031 177.853 184.162 177.873C184.292 177.894 184.41 177.964 184.49 178.07C187.36 182.07 194.57 181.23 194.65 181.22C194.782 181.204 194.916 181.241 195.021 181.324C195.126 181.406 195.194 181.527 195.21 181.66C195.226 181.792 195.188 181.926 195.106 182.031C195.023 182.136 194.902 182.204 194.77 182.22C194.156 182.291 193.538 182.322 192.92 182.31V182.31Z" fill="#AFC1D1"/>
<path d="M171.79 196.749H171.71C171.577 196.727 171.459 196.654 171.381 196.546C171.302 196.437 171.269 196.302 171.29 196.169C172.318 189.346 171 182.376 167.55 176.399C167.491 176.29 167.475 176.162 167.505 176.041C167.536 175.92 167.61 175.815 167.714 175.746C167.818 175.677 167.944 175.65 168.067 175.669C168.19 175.688 168.301 175.752 168.38 175.849C172.018 182.016 173.397 189.257 172.28 196.329C172.263 196.447 172.204 196.554 172.114 196.631C172.023 196.709 171.908 196.751 171.79 196.749V196.749Z" fill="#AFC1D1"/>
<path d="M163.999 213.71C163.912 213.71 163.827 213.688 163.751 213.645C163.676 213.602 163.613 213.54 163.568 213.466C163.524 213.391 163.5 213.306 163.498 213.219C163.497 213.132 163.518 213.046 163.559 212.97L166.359 207.97C166.425 207.855 166.532 207.77 166.659 207.733C166.786 207.695 166.922 207.709 167.039 207.77C167.155 207.835 167.239 207.943 167.275 208.071C167.311 208.198 167.294 208.335 167.229 208.45L164.439 213.45C164.395 213.528 164.331 213.592 164.254 213.638C164.176 213.683 164.089 213.708 163.999 213.71V213.71Z" fill="#AFC1D1"/>
<path d="M219.26 165.47L226.86 168.86L229.73 164.76L219.68 163.83L219.26 165.47Z" fill="#074066"/>
<path d="M218.839 162.24C219.209 162.24 226.199 157.12 226.199 157.12L223.249 153.12L217.439 160.8L218.839 162.24Z" fill="#074066"/>
<path d="M156.95 168.86H158.65L154.73 158.79L150.54 162.24L156.95 168.86Z" fill="#074066"/>
<path d="M155.11 172.87L146.63 176.13C146.63 176.13 143.92 174.54 145.23 170.91H155.11V172.87Z" fill="#074066"/>
<path d="M447.129 384.85C447.129 384.85 454.779 385.72 454.779 388.36C454.779 391 442.999 394.73 405.199 395.1C367.399 395.47 316.999 397.9 321.579 390C326.159 382.1 356.939 378.74 356.939 378.74C356.939 378.74 378.509 381.14 388.039 381.52C397.569 381.9 442.659 382.06 447.129 384.85Z" fill="#B3DAC9"/>
<path d="M431 369.629C431 369.629 433 374.889 440.69 376.169C448.38 377.449 451.13 380.559 450.14 384.909C449.14 387.029 441.14 387.909 433.09 388.019C425.04 388.129 411.5 390.019 410.38 383.549C410.13 381.929 411.75 369.009 411.75 369.009C411.75 369.009 428 363.669 431 369.629Z" fill="#0B4665"/>
<path d="M364 375.47C364 375.47 364 384 362.9 387C361.8 390 359.9 392 349.36 391.72C338.82 391.44 327.61 392.59 324.01 390.47C320.41 388.35 319.66 383.02 330.01 380.91C340.36 378.8 342.8 378.8 346.9 369.23C351 359.66 363.52 371.5 364 375.47Z" fill="#0B4665"/>
<path d="M416.2 206.22C416.2 206.22 421.79 267.88 424.77 292.98C425.64 303.04 434.09 364.54 432.97 370.32C428.847 373.123 423.983 374.637 418.997 374.669C414.012 374.701 409.129 373.25 404.97 370.5C404.97 370.5 388.43 244.71 387.87 243C387.31 241.29 385.26 235.36 384.33 242.63C383.4 249.9 372.84 364.76 369.86 372.71C369.86 372.71 369.42 376.43 360.72 376.12C352.02 375.81 342 373.36 341 373.67C341 373.67 346.56 304.67 349 246.76C351.44 188.85 349.73 161 416.2 206.22Z" fill="#0B4665"/>
<path d="M452.48 201.78C452.48 201.78 455.21 203.02 457.57 207.37C459.93 211.72 460.65 213.59 461.67 213.86C461.67 213.86 461.89 217.59 457.07 216.01C457.07 216.01 456.36 219.18 451.14 221.01C445.92 222.84 438.14 225.39 439.96 204.52C440 204.55 451 200.76 452.48 201.78Z" fill="#F48F8F"/>
<path d="M348.55 88.4402C348.55 88.4402 355.35 79.9602 359.55 77.1702C363.75 74.3802 357.04 73.5302 355.27 75.1702C355.27 75.1702 355.45 71.9102 350.05 69.4802C344.65 67.0502 339.43 68.0902 337.56 83.3702C335 96.6402 341.84 91.8002 348.55 88.4402Z" fill="#F48F8F"/>
<path d="M417.61 197.61C417.61 197.61 419.1 204.689 417.61 207.429C416.12 210.169 383.28 216.819 349.48 208.859C346.75 207.749 349.48 199.3 349.48 195.69C349.48 192.08 415.87 194.5 417.61 197.61Z" fill="#1A8B91"/>
<path d="M381.69 103.999C381.69 103.999 393.46 102.759 401.04 103.259C408.62 103.759 420.48 104.559 425.14 116.119C429.8 127.679 454.4 198.859 454.4 198.859C454.4 198.859 451.61 209.489 438.19 205.199L419.55 160.999C419.55 160.999 424.55 190.57 416.55 199.52C416.55 199.52 403.88 211.199 353.19 202.749C353.19 202.749 344.24 197.029 345.24 189.579C346.24 182.129 348.97 136.579 348.97 136.579C348.97 136.579 331.07 145.579 323.62 147.329C316.17 149.079 304.24 144.09 312.19 125.46C320.14 106.83 334.3 80.7295 334.3 80.7295C334.3 80.7295 346.85 81.7295 349.59 89.9295L333.33 121.999C333.33 121.999 347.99 106.78 359.54 105.1C362.94 104.63 381.69 103.999 381.69 103.999Z" fill="#1A8B91"/>
<path d="M419.3 161.409C419.121 161.407 418.949 161.341 418.814 161.224C418.678 161.107 418.588 160.946 418.56 160.769L414 130.579C413.978 130.479 413.977 130.375 413.996 130.274C414.016 130.173 414.056 130.077 414.114 129.992C414.173 129.907 414.248 129.835 414.335 129.781C414.423 129.726 414.52 129.69 414.622 129.675C414.724 129.66 414.828 129.666 414.927 129.693C415.027 129.719 415.12 129.766 415.2 129.831C415.28 129.895 415.347 129.975 415.395 130.066C415.443 130.157 415.472 130.257 415.48 130.359L420.08 160.549C420.109 160.746 420.059 160.945 419.941 161.104C419.823 161.264 419.646 161.37 419.45 161.399L419.3 161.409Z" fill="#106578"/>
<path d="M382 116.68C379.908 116.709 377.834 116.3 375.91 115.48C374.375 114.767 373.004 113.745 371.884 112.476C370.763 111.208 369.918 109.721 369.4 108.11C369.363 108.017 369.345 107.917 369.348 107.817C369.35 107.716 369.373 107.618 369.414 107.526C369.455 107.435 369.515 107.353 369.588 107.285C369.662 107.216 369.748 107.164 369.843 107.13C369.937 107.096 370.037 107.081 370.137 107.086C370.237 107.091 370.335 107.117 370.426 107.16C370.516 107.204 370.596 107.266 370.662 107.341C370.728 107.417 370.778 107.505 370.81 107.6C371.262 109.018 372.003 110.328 372.986 111.447C373.968 112.565 375.171 113.469 376.52 114.1C382.1 116.62 389.15 113.89 389.23 113.87C389.41 113.815 389.604 113.831 389.773 113.912C389.943 113.994 390.075 114.137 390.145 114.312C390.214 114.487 390.215 114.681 390.147 114.857C390.08 115.033 389.948 115.176 389.78 115.26C387.288 116.177 384.656 116.658 382 116.68V116.68Z" fill="#106578"/>
<path d="M330.19 132.15C330.043 132.149 329.899 132.106 329.776 132.024C329.653 131.942 329.557 131.826 329.5 131.69C327.57 127.02 332.95 120.99 333.18 120.74C333.246 120.667 333.326 120.608 333.416 120.566C333.505 120.524 333.601 120.5 333.7 120.495C333.798 120.49 333.897 120.505 333.989 120.539C334.082 120.572 334.167 120.623 334.24 120.69C334.313 120.756 334.372 120.836 334.414 120.925C334.456 121.014 334.48 121.111 334.485 121.209C334.49 121.308 334.475 121.406 334.441 121.499C334.408 121.592 334.357 121.677 334.29 121.75C334.24 121.8 329.29 127.32 330.89 131.11C330.93 131.202 330.95 131.302 330.951 131.402C330.951 131.503 330.932 131.602 330.894 131.695C330.856 131.788 330.8 131.873 330.729 131.944C330.658 132.015 330.573 132.071 330.48 132.11C330.387 132.143 330.289 132.156 330.19 132.15V132.15Z" fill="#106578"/>
<path d="M407.81 210.89C407.611 210.887 407.422 210.808 407.282 210.668C407.142 210.527 407.062 210.338 407.06 210.14V203.29C407.06 203.091 407.139 202.9 407.279 202.76C407.42 202.619 407.611 202.54 407.81 202.54C408.008 202.54 408.199 202.619 408.34 202.76C408.481 202.9 408.56 203.091 408.56 203.29V210.14C408.56 210.339 408.481 210.53 408.34 210.67C408.199 210.811 408.008 210.89 407.81 210.89V210.89Z" fill="#106578"/>
<path d="M394.08 212.599C393.889 212.597 393.707 212.523 393.569 212.391C393.432 212.259 393.35 212.08 393.34 211.889L392.96 205.369C392.951 205.17 393.021 204.975 393.153 204.826C393.286 204.677 393.471 204.585 393.67 204.569C393.768 204.564 393.867 204.578 393.96 204.611C394.053 204.644 394.139 204.695 394.212 204.761C394.285 204.826 394.345 204.906 394.388 204.995C394.43 205.084 394.455 205.181 394.46 205.279L394.83 211.799C394.836 211.898 394.824 211.997 394.792 212.091C394.761 212.184 394.711 212.271 394.646 212.345C394.581 212.419 394.502 212.48 394.413 212.524C394.325 212.567 394.228 212.593 394.13 212.599H394.08Z" fill="#106578"/>
<path d="M380.51 212.6C380.312 212.597 380.122 212.517 379.982 212.377C379.842 212.237 379.762 212.048 379.76 211.85V205.34C379.76 205.141 379.839 204.95 379.979 204.81C380.12 204.669 380.311 204.59 380.51 204.59C380.709 204.59 380.899 204.669 381.04 204.81C381.181 204.95 381.26 205.141 381.26 205.34V211.85C381.257 212.048 381.177 212.237 381.037 212.377C380.897 212.517 380.708 212.597 380.51 212.6V212.6Z" fill="#106578"/>
<path d="M367.75 212.1C367.551 212.1 367.36 212.021 367.22 211.88C367.079 211.74 367 211.549 367 211.35V204.58C367 204.381 367.079 204.19 367.22 204.05C367.36 203.909 367.551 203.83 367.75 203.83C367.949 203.83 368.14 203.909 368.28 204.05C368.421 204.19 368.5 204.381 368.5 204.58V211.35C368.497 211.548 368.418 211.737 368.277 211.878C368.137 212.018 367.948 212.097 367.75 212.1V212.1Z" fill="#106578"/>
<path d="M354.89 210.24C354.691 210.24 354.5 210.161 354.359 210.02C354.219 209.88 354.14 209.689 354.14 209.49V203.38C354.14 203.181 354.219 202.99 354.359 202.85C354.5 202.709 354.691 202.63 354.89 202.63C355.089 202.63 355.279 202.709 355.42 202.85C355.561 202.99 355.64 203.181 355.64 203.38V209.49C355.637 209.688 355.557 209.877 355.417 210.017C355.277 210.157 355.088 210.237 354.89 210.24V210.24Z" fill="#106578"/>
<path d="M388.899 206.089H387.119C361.329 205.749 350.119 203.999 348.319 200.029C348.277 199.939 348.253 199.841 348.249 199.741C348.245 199.642 348.26 199.542 348.295 199.449C348.33 199.355 348.383 199.269 348.451 199.197C348.52 199.124 348.602 199.065 348.693 199.025C348.784 198.984 348.883 198.962 348.982 198.96C349.082 198.958 349.181 198.976 349.274 199.013C349.367 199.049 349.452 199.104 349.523 199.174C349.594 199.244 349.651 199.327 349.689 199.419C351.789 204.129 378.389 204.479 387.139 204.589C409.989 204.899 415.599 199.269 415.649 199.209C415.791 199.071 415.982 198.994 416.179 198.994C416.377 198.994 416.568 199.071 416.709 199.209C416.85 199.35 416.929 199.541 416.929 199.739C416.929 199.938 416.85 200.129 416.709 200.269C416.529 200.449 411.129 206.089 388.899 206.089Z" fill="#106578"/>
<path d="M458.209 216.659C458.123 216.659 458.037 216.638 457.959 216.599C455.319 215.109 453.569 209.899 453.489 209.669C453.409 209.439 453.239 208.379 451.489 208.279C451.361 208.27 451.232 208.299 451.12 208.363C451.007 208.427 450.917 208.524 450.859 208.639C450.469 209.359 450.479 211.539 453.039 215.159C453.078 215.213 453.105 215.274 453.12 215.338C453.135 215.403 453.136 215.469 453.125 215.534C453.114 215.599 453.09 215.662 453.055 215.718C453.02 215.773 452.974 215.821 452.919 215.859C452.809 215.932 452.676 215.96 452.546 215.938C452.416 215.915 452.299 215.844 452.219 215.739C449.559 211.979 449.319 209.359 449.989 208.149C450.136 207.871 450.361 207.641 450.636 207.489C450.912 207.336 451.225 207.267 451.539 207.289C453.649 207.409 454.379 208.759 454.459 209.459C454.459 209.459 456.159 214.459 458.459 215.739C458.575 215.805 458.659 215.913 458.695 216.04C458.731 216.168 458.714 216.304 458.649 216.419C458.602 216.493 458.537 216.554 458.46 216.596C458.383 216.638 458.297 216.66 458.209 216.659V216.659Z" fill="#CE6161"/>
<path d="M441.91 220.85C441.812 220.851 441.716 220.824 441.634 220.77C441.552 220.717 441.488 220.64 441.45 220.55C441.21 219.97 439.16 214.85 440.53 212.8C440.723 212.52 440.984 212.295 441.288 212.145C441.593 211.994 441.93 211.924 442.27 211.94C443.51 211.94 444.01 213.41 444.34 214.39C444.34 214.53 444.43 214.67 444.48 214.8C444.52 214.923 444.511 215.058 444.454 215.175C444.398 215.292 444.297 215.382 444.175 215.427C444.052 215.471 443.918 215.466 443.799 215.412C443.68 215.359 443.587 215.261 443.54 215.14C443.49 215.01 443.44 214.86 443.39 214.71C443.15 214 442.79 212.94 442.27 212.94C442.094 212.924 441.918 212.954 441.758 213.028C441.598 213.101 441.461 213.216 441.36 213.36C440.55 214.57 441.55 218.17 442.36 220.16C442.386 220.221 442.4 220.286 442.4 220.353C442.401 220.419 442.388 220.485 442.363 220.546C442.338 220.608 442.301 220.664 442.254 220.711C442.207 220.757 442.151 220.795 442.09 220.82C442.031 220.838 441.971 220.849 441.91 220.85V220.85Z" fill="#CE6161"/>
<path d="M445.39 218.91C445.293 218.909 445.198 218.88 445.116 218.827C445.035 218.774 444.97 218.698 444.93 218.61C444.16 216.91 441.8 211.25 443.75 210.06C443.99 209.895 444.265 209.788 444.553 209.748C444.841 209.708 445.134 209.736 445.41 209.83C446.21 210.13 446.83 210.99 447.3 212.46C447.323 212.523 447.333 212.59 447.33 212.657C447.327 212.724 447.31 212.79 447.281 212.85C447.251 212.911 447.21 212.965 447.159 213.009C447.109 213.053 447.05 213.087 446.986 213.108C446.922 213.129 446.854 213.136 446.787 213.13C446.72 213.125 446.655 213.105 446.596 213.074C446.537 213.042 446.484 212.999 446.442 212.947C446.4 212.894 446.368 212.834 446.35 212.77C445.86 211.26 445.35 210.87 445.07 210.77C444.935 210.729 444.792 210.72 444.653 210.744C444.514 210.768 444.383 210.825 444.27 210.91C443.46 211.4 444.43 215.08 445.84 218.2C445.868 218.259 445.884 218.324 445.887 218.39C445.889 218.455 445.879 218.521 445.855 218.583C445.832 218.644 445.796 218.701 445.751 218.748C445.705 218.796 445.65 218.834 445.59 218.86C445.528 218.891 445.46 218.908 445.39 218.91V218.91Z" fill="#CE6161"/>
<path d="M448.689 217.35C448.601 217.35 448.514 217.325 448.439 217.279C448.363 217.234 448.301 217.168 448.259 217.09C447.939 216.53 445.159 211.52 446.009 208.97C446.098 208.685 446.248 208.423 446.448 208.202C446.648 207.981 446.895 207.806 447.169 207.69C447.497 207.572 447.846 207.529 448.192 207.563C448.538 207.598 448.872 207.71 449.169 207.89C450.056 208.627 450.646 209.661 450.83 210.8C450.85 210.931 450.819 211.065 450.742 211.173C450.665 211.281 450.55 211.356 450.419 211.38C450.289 211.398 450.156 211.366 450.049 211.29C449.941 211.213 449.866 211.099 449.839 210.97C449.716 210.108 449.291 209.318 448.639 208.74C448.468 208.637 448.276 208.574 448.078 208.553C447.879 208.532 447.678 208.555 447.489 208.62C447.357 208.688 447.24 208.783 447.145 208.898C447.05 209.013 446.98 209.147 446.939 209.29C446.339 211.09 448.299 215.18 449.109 216.6C449.174 216.715 449.191 216.852 449.155 216.979C449.119 217.107 449.035 217.215 448.919 217.28C448.851 217.324 448.771 217.348 448.689 217.35V217.35Z" fill="#CE6161"/>
<path d="M349.919 81.2697C349.516 81.2781 349.123 81.1355 348.819 80.8697C348.5 80.5495 348.295 80.1327 348.238 79.6842C348.18 79.2356 348.272 78.7805 348.499 78.3897C349.249 76.7497 350.789 74.2297 350.859 74.1197C350.892 74.0633 350.936 74.0141 350.989 73.9749C351.041 73.9358 351.1 73.9074 351.164 73.8916C351.227 73.8757 351.293 73.8727 351.357 73.8827C351.422 73.8927 351.484 73.9155 351.539 73.9497C351.652 74.02 351.733 74.1314 351.764 74.2602C351.796 74.3891 351.776 74.5252 351.709 74.6397C351.709 74.6397 350.139 77.2197 349.409 78.8097C349.283 79.0057 349.221 79.2363 349.231 79.4693C349.242 79.7024 349.325 79.9263 349.469 80.1097C349.759 80.3597 350.269 80.3097 350.789 79.9597C352.009 79.1697 354.119 76.0097 354.789 74.8597C354.86 74.7472 354.971 74.6665 355.1 74.6348C355.229 74.603 355.365 74.6227 355.479 74.6897C355.536 74.7235 355.586 74.7684 355.625 74.8218C355.664 74.8753 355.692 74.9361 355.707 75.0005C355.722 75.065 355.724 75.1319 355.712 75.197C355.7 75.2622 355.676 75.3244 355.639 75.3797C355.529 75.5597 352.959 79.7297 351.299 80.7997C350.892 81.0819 350.414 81.2446 349.919 81.2697Z" fill="#CE6161"/>
<path d="M346.32 80.26C345.842 80.2564 345.375 80.1214 344.97 79.87C344.791 79.7479 344.642 79.5859 344.536 79.3968C344.431 79.2076 344.37 78.9965 344.36 78.78C344.14 77.01 345.7 73.27 347.36 71.64C347.453 71.5484 347.579 71.4971 347.71 71.4971C347.841 71.4971 347.966 71.5484 348.06 71.64C348.107 71.6865 348.144 71.7418 348.169 71.8027C348.195 71.8636 348.208 71.929 348.208 71.995C348.208 72.061 348.195 72.1264 348.169 72.1873C348.144 72.2482 348.107 72.3035 348.06 72.35C346.68 73.73 345.21 77.21 345.38 78.66C345.384 78.7877 345.43 78.9105 345.51 79.01C345.69 79.1261 345.892 79.2037 346.104 79.2382C346.315 79.2726 346.532 79.263 346.74 79.21C347.635 78.8304 348.38 78.1661 348.86 77.32C348.892 77.2628 348.935 77.2126 348.987 77.1724C349.039 77.1323 349.098 77.1029 349.162 77.0861C349.225 77.0693 349.291 77.0655 349.356 77.0747C349.421 77.084 349.483 77.1062 349.54 77.14C349.655 77.2051 349.74 77.3133 349.775 77.4407C349.811 77.5682 349.794 77.7046 349.73 77.82C349.114 78.8977 348.147 79.7309 346.99 80.18C346.77 80.2336 346.545 80.2604 346.32 80.26V80.26Z" fill="#CE6161"/>
<path d="M344.14 78.0697C343.455 78.1109 342.781 77.885 342.26 77.4397C342.053 77.2186 341.906 76.9478 341.834 76.6535C341.763 76.3592 341.768 76.0513 341.85 75.7597C342.356 73.9813 343.213 72.3221 344.37 70.8797C344.411 70.8285 344.462 70.7859 344.52 70.7544C344.578 70.7229 344.641 70.7031 344.707 70.6962C344.772 70.6892 344.839 70.6952 344.902 70.7138C344.965 70.7324 345.024 70.7633 345.075 70.8047C345.126 70.8461 345.169 70.8971 345.2 70.9549C345.232 71.0127 345.251 71.0762 345.258 71.1417C345.265 71.2071 345.259 71.2733 345.241 71.3365C345.222 71.3996 345.191 71.4585 345.15 71.5097C344.096 72.8253 343.308 74.3333 342.83 75.9497C342.73 76.4897 342.91 76.6797 342.97 76.7397C343.36 77.1397 344.36 77.0797 344.68 77.0297C344.813 77.0085 344.948 77.0408 345.057 77.1196C345.166 77.1983 345.239 77.3171 345.26 77.4497C345.281 77.5823 345.249 77.7179 345.17 77.8267C345.091 77.9354 344.973 78.0085 344.84 78.0297C344.608 78.0604 344.374 78.0738 344.14 78.0697Z" fill="#CE6161"/>
<path d="M341.06 75.9999C340.865 76.0107 340.67 75.9808 340.488 75.9119C340.305 75.843 340.139 75.7367 340 75.5999C339.26 74.8399 339.58 73.2599 341 70.5999C341.03 70.5423 341.072 70.4914 341.122 70.4501C341.173 70.4088 341.231 70.378 341.293 70.3593C341.355 70.3407 341.421 70.3347 341.486 70.3417C341.55 70.3486 341.613 70.3684 341.67 70.3999C341.728 70.4294 341.78 70.4704 341.823 70.5203C341.865 70.5702 341.897 70.6281 341.916 70.6906C341.936 70.753 341.943 70.8188 341.937 70.8839C341.93 70.9491 341.911 71.0123 341.88 71.0699C340.19 74.2099 340.66 74.8399 340.71 74.8999C340.93 75.1199 341.71 74.8999 342.21 74.6799C342.329 74.6215 342.467 74.613 342.593 74.6561C342.718 74.6992 342.822 74.7905 342.88 74.9099C342.938 75.0292 342.947 75.1669 342.904 75.2925C342.861 75.4182 342.769 75.5215 342.65 75.5799C342.155 75.8285 341.613 75.9715 341.06 75.9999V75.9999Z" fill="#CE6161"/>
<path d="M349 137.369C348.882 137.372 348.765 137.344 348.661 137.29C348.556 137.236 348.466 137.157 348.4 137.059C348.293 136.903 348.251 136.712 348.283 136.525C348.315 136.339 348.417 136.172 348.57 136.059L352.28 133.379C352.442 133.263 352.643 133.215 352.84 133.247C353.037 133.279 353.213 133.388 353.33 133.549C353.447 133.711 353.494 133.913 353.462 134.11C353.43 134.307 353.322 134.483 353.16 134.599L349.44 137.269C349.308 137.35 349.154 137.386 349 137.369V137.369Z" fill="#106578"/>
<path d="M388.62 94.2493V103.689C388.62 103.689 390.62 106.369 388.62 108.479C386.62 110.589 379.17 111.479 375.57 107.979C372.96 105.309 374.14 103.879 374.14 103.879V93.9393C374.14 93.9393 387.56 92.6993 388.62 94.2493Z" fill="#F48F8F"/>
<path d="M397.56 65.5198C397.56 65.5198 398.49 78.5198 397.56 84.5198C396.63 90.5198 395.33 96.9098 381.26 96.9098C367.19 96.9098 366.44 92.3498 363.64 80.1398C363.64 80.1398 359.17 81.7198 358.33 76.5098C357.21 69.5098 362.4 69.9498 362.4 69.9498C362.4 69.9498 365.97 57.3998 369.33 56.2898C372.69 55.1798 382.09 54.6998 383.03 55.1698C383.97 55.6398 397.56 65.5198 397.56 65.5198Z" fill="#F48F8F"/>
<path d="M402.53 60.1494C402.53 60.1494 403.9 69.2194 392.1 66.1494C380.3 63.0794 390.1 55.5894 369.86 58.3194C366.75 59.1894 367.75 63.5394 367.75 65.5294C367.75 67.5194 366.75 72.8594 359.75 70.7494C359.75 70.7494 358.13 68.3094 357.52 67.1494C356.91 65.9894 353.17 55.4694 365.97 53.4794C365.97 53.4794 365.19 50.9294 366.21 50.6494C367.23 50.3694 368.21 53.4494 368.21 53.4494C368.21 53.4494 370.42 44.0994 386.21 46.0894C393.9 46.9994 394.77 60.5794 402.53 60.1494Z" fill="#074066"/>
</svg>
