<svg width="697" height="397" viewBox="0 0 697 397" fill="none" xmlns="http://www.w3.org/2000/svg">
<path d="M262.5 105C288.734 105 310 83.7335 310 57.5C310 31.2665 288.734 10 262.5 10C236.266 10 215 31.2665 215 57.5C215 83.7335 236.266 105 262.5 105Z" fill="#9DD9AE"/>
<path fill-rule="evenodd" clip-rule="evenodd" d="M160.756 120.786L37 313H303L179.244 120.786C175.135 114.405 164.865 114.405 160.756 120.786V120.786Z" fill="#BABFD1" stroke="#E1E4E5" stroke-width="4"/>
<path fill-rule="evenodd" clip-rule="evenodd" d="M368.025 53.462L201 313H560L392.975 53.462C387.431 44.846 373.569 44.846 368.025 53.462V53.462Z" fill="#BABFD1" stroke="#E1E4E5" stroke-width="4"/>
<path fill-rule="evenodd" clip-rule="evenodd" d="M518.27 114.931L388 313H668L537.73 114.931C533.405 108.356 522.595 108.356 518.27 114.931Z" fill="#BABFD1" stroke="#E1E4E5" stroke-width="4"/>
<path d="M133 284.968L159.053 301.787L184.777 284.968L159.053 220L133 284.968Z" fill="#BABFD1" stroke="#E1E4E5" stroke-width="4"/>
<path d="M159.404 268.149V313M143.397 277.734L159.56 289.281" stroke="#E1E4E5" stroke-width="4"/>
<path d="M258 284.968L284.053 301.787L309.777 284.968L284.053 220L258 284.968Z" fill="#BABFD1" stroke="#E1E4E5" stroke-width="4"/>
<path d="M284.404 268.149V313M268.397 277.734L284.56 289.281" stroke="#E1E4E5" stroke-width="4"/>
<path d="M328 284.968L354.053 301.787L379.777 284.968L354.053 220L328 284.968Z" fill="#BABFD1" stroke="#E1E4E5" stroke-width="4"/>
<path d="M354.404 268.149V313M338.397 277.734L354.56 289.281" stroke="#E1E4E5" stroke-width="4"/>
<path d="M398 278.35L430.204 299.14L462 278.35L430.204 198.045L398 278.35Z" fill="#BABFD1" stroke="#E1E4E5" stroke-width="4"/>
<path d="M430.166 257.56V313M410.577 269.793L430.556 284.065" stroke="#E1E4E5" stroke-width="4"/>
<path d="M514 290.092L535.291 303.837L556.312 290.092L535.291 237L514 290.092Z" fill="#BABFD1" stroke="#E1E4E5" stroke-width="4"/>
<path d="M535.943 276.347V313M522.709 283.883L535.918 293.319" stroke="#E1E4E5" stroke-width="4"/>
<path d="M605 290.092L626.291 303.837L647.312 290.092L626.291 237L605 290.092Z" fill="#BABFD1" stroke="#E1E4E5" stroke-width="4"/>
<path d="M626.943 276.347V313M613.709 283.883L626.918 293.319M0 313H697M0 340H214M254 340H387M419 340H485M528 340H594M48 395H262M302 395H435M467 395H533M576 395H642M697 370H483M443 370H310M278 370H212M169 370H103" stroke="#E1E4E5" stroke-width="4"/>
<path fill-rule="evenodd" clip-rule="evenodd" d="M601.528 45.211C611.12 45.211 606.632 30.002 594.48 33.635C593.808 12.516 559.385 -2.935 545.151 25.548C541.127 22.364 532.09 28.379 534.091 33.635C529.621 34.016 526.104 34.533 523.368 35.218C517.051 36.799 518.301 45.14 524.813 45.082L601.528 45.211V45.211ZM223.301 133.211C232.893 133.211 228.405 118.002 216.254 121.635C215.581 100.516 181.158 85.065 166.925 113.548C162.9 110.364 153.863 116.379 155.865 121.635C151.394 122.016 147.878 122.533 145.141 123.218C138.824 124.799 140.074 133.14 146.586 133.082L223.301 133.211ZM442.784 71.341H494.406C499.021 71.341 501.01 65.32 497.233 62.649C497.18 62.6108 497.127 62.5731 497.073 62.536C491.696 58.812 484.638 59.15 484.638 59.15C484.638 59.15 483.631 39 464.643 39C447.476 39 440.63 55.978 438.161 65.331C437.359 68.37 439.664 71.341 442.784 71.341V71.341ZM668.092 83H625.93C622.16 83 620.536 78.159 623.62 76.012L623.751 75.921C628.143 72.927 633.907 73.199 633.907 73.199C633.907 73.199 634.73 57 650.239 57C664.261 57 669.852 70.649 671.869 78.169C672.524 80.612 670.641 83 668.092 83ZM345.784 34.341H397.406C402.021 34.341 404.01 28.32 400.233 25.649L400.073 25.536C394.696 21.812 387.638 22.15 387.638 22.15C387.638 22.15 386.631 2 367.643 2C350.476 2 343.63 18.978 341.161 28.331C340.359 31.37 342.664 34.341 345.784 34.341V34.341ZM79.7169 63H44.3009C41.1339 63 39.7699 58.904 42.3609 57.087L42.4709 57.01C46.1599 54.477 51.0019 54.707 51.0019 54.707C51.0019 54.707 51.6929 41 64.7209 41C76.4989 41 81.1959 52.549 82.8899 58.912C83.4399 60.979 81.8589 63 79.7169 63ZM102.784 89.341H154.406C159.021 89.341 161.01 83.32 157.233 80.649C157.18 80.6108 157.127 80.5731 157.073 80.536C151.696 76.812 144.638 77.15 144.638 77.15C144.638 77.15 143.631 57 124.643 57C107.476 57 100.63 73.978 98.1609 83.331C97.3589 86.37 99.6639 89.341 102.784 89.341V89.341ZM422.096 131.116H352.846C347.239 131.116 344.821 124.02 349.411 120.871L349.605 120.738C356.138 116.348 364.713 116.747 364.713 116.747C364.713 116.747 365.938 93 389.008 93C400.414 93 409.632 112.058 409.632 112.058C409.632 112.058 425.147 112.058 427.715 124.032C428.492 127.66 425.889 131.116 422.096 131.116V131.116ZM97.0959 131.457H27.8459C22.2389 131.457 19.8209 124.361 24.4109 121.212L24.6049 121.079C31.1379 116.689 39.7129 117.088 39.7129 117.088C39.7129 117.088 40.9379 93.341 64.0079 93.341C75.4139 93.341 84.6319 112.399 84.6319 112.399C84.6319 112.399 100.147 112.399 102.715 124.373C103.492 128.001 100.889 131.457 97.0959 131.457V131.457ZM486.046 133.548H639.575C653.986 133.548 653.325 121.62 648.617 117.464C643.793 113.204 634.259 114.932 634.259 114.932C634.259 114.932 631.421 106.909 622.079 103.003C613.815 99.548 605.158 101.192 605.158 101.192C605.158 101.192 605.158 95.685 599.867 91.125C594.576 86.564 587.521 87.008 587.521 87.008C587.521 87.008 582.671 56.645 550.263 56.645C517.854 56.645 514.107 85.234 514.107 85.234C514.107 85.234 506.831 85.234 501.54 90.11C496.249 94.986 495.587 100.526 495.587 100.526C495.587 100.526 477.892 98.129 472.659 113.474C469.54 122.62 475.948 133.548 486.046 133.548Z" fill="#BABFD1" stroke="#E1E4E5" stroke-width="4"/>
</svg>
