<svg width="254" height="221" viewBox="0 0 254 221" fill="none" xmlns="http://www.w3.org/2000/svg">
    <path opacity="0.1" fill-rule="evenodd" clip-rule="evenodd"
        d="M123.935 161.818C191.588 161.818 246.431 169.31 246.431 178.552C246.431 187.794 191.588 195.286 123.935 195.286C56.2833 195.286 1.44336 187.793 1.44336 178.552C1.44336 169.311 56.2833 161.818 123.935 161.818Z"
        fill="#C053BC" />
    <path fill-rule="evenodd" clip-rule="evenodd"
        d="M51.4202 129.067C52.9323 129.53 64.6253 128.141 70.9306 114.647L64.7878 107.883C64.1263 113.079 63.0867 126.162 50.9902 127.697L51.4202 129.067Z"
        fill="#7757D9" />
    <path fill-rule="evenodd" clip-rule="evenodd"
        d="M50.5225 128.378C51.9221 120.521 55.1361 110.535 66.2488 105.906C67.0994 107.172 69.6689 111.477 70.9296 114.646C66.7715 113.529 56.4346 115.821 51.4193 129.067L50.5225 128.378Z"
        fill="#9977FF" />
    <path fill-rule="evenodd" clip-rule="evenodd"
        d="M33.1855 113.353C33.4596 118.146 34.193 122.122 37.202 124.166C41.9064 127.359 47.8582 128.92 52.0391 129.376L52.3226 128.68C50.183 127.979 41.9952 123.139 40.9056 120.793C40.0881 119.036 38.8331 115.273 40.4727 110.909L33.1855 113.353Z"
        fill="#7757D9" />
    <path fill-rule="evenodd" clip-rule="evenodd"
        d="M52.4464 129.199C52.9388 120.635 46.7091 109.294 37.9467 105.783L33.1855 113.353C37.9221 113.897 50.8455 120.069 52.04 129.376L52.4464 129.199Z"
        fill="#9977FF" />
    <path d="M75.5137 126.618H37.5117V173.067H75.5137V126.618Z" fill="#40357B" />
    <path d="M76.9555 125.578H36.0703V134.707H76.9555V125.578Z" fill="#40357B" />
    <path d="M59.436 126.618H24.0244V173.067H59.436V126.618Z" fill="#5A4CA6" />
    <path d="M60.779 125.578H22.6807V134.707H60.779V125.578Z" fill="#5A4CA6" />
    <path d="M59.436 134.707H24.0244V136.238H59.436V134.707Z" fill="#40357B" />
    <path d="M75.5135 134.707H59.4355V136.238H75.5135V134.707Z" fill="#40357B" />
    <path d="M44.3725 125.578H39.0869V173.066H44.3725V125.578Z" fill="#9977FF" />
    <path d="M44.3725 134.707H39.0869V136.238H44.3725V134.707Z" fill="#7757D9" />
    <path d="M69.16 134.707H65.79V173.068H69.16V134.707Z" fill="#7757D9" />
    <path d="M69.16 134.707H65.79V136.238H69.16V134.707Z" fill="#6144B8" />
    <path d="M70.6014 125.578H67.2314V134.707H70.6014V125.578Z" fill="#7757D9" />
    <path fill-rule="evenodd" clip-rule="evenodd"
        d="M85.7658 74.4888C95.6028 74.2113 107.437 77.4946 112.888 85.3486L116.318 84.9739C100.215 67.2049 82.3722 58.8349 74.7061 76.8133C77.5412 75.4106 81.4612 74.6091 85.763 74.4888"
        fill="#89E3FF" />
    <path fill-rule="evenodd" clip-rule="evenodd"
        d="M111.158 85.7879C100.479 86.9101 85.5665 76.3068 85.7659 74.4883C81.4651 74.6095 77.5441 75.4121 74.709 76.8127C85.2159 87.9411 98.024 89.5501 111.335 88.7616L111.158 85.7879Z"
        fill="#C053BC" />
    <path fill-rule="evenodd" clip-rule="evenodd"
        d="M173.781 74.8996C165.504 74.6301 155.547 77.8232 150.957 85.4508L148.071 85.0861C161.62 67.8231 176.634 59.6915 183.084 77.1579C180.697 75.7973 177.4 75.0178 173.781 74.8996Z"
        fill="#89E3FF" />
    <path fill-rule="evenodd" clip-rule="evenodd"
        d="M152.417 85.8774C161.406 86.9675 173.949 76.6668 173.781 74.8994C177.4 75.0176 180.697 75.8011 183.084 77.1577C174.244 87.9694 163.468 89.5365 152.268 88.767L152.417 85.8774Z"
        fill="#C053BC" />
    <path fill-rule="evenodd" clip-rule="evenodd"
        d="M154.339 102.218V176.661H69.6728V102.218H65.9248V82.2012H158.087V102.218H154.339Z" fill="#C053BC" />
    <path d="M187.362 84.3086H102.696V176.662H187.362V84.3086Z" fill="#C053BC" />
    <path opacity="0.2" d="M187.362 86.415H102.696V106.431H187.362V86.415Z" fill="#363636" />
    <path opacity="0.2" d="M152.4 86.415H137.659V106.431H152.4V86.415Z" fill="#363636" />
    <path d="M152.4 106.431H137.659V176.661H152.4V106.431Z" fill="#89E3FF" />
    <path d="M191.11 82.2012H98.9482V102.218H191.11V82.2012Z" fill="#C053BC" />
    <path d="M152.4 82.2012H137.659V102.218H152.4V82.2012Z" fill="#89E3FF" />
    <path fill-rule="evenodd" clip-rule="evenodd"
        d="M110.376 61.2035C118.566 64.2212 126.702 71.7988 127.445 82.2017H132.159C132.762 61.6703 115.026 42.9896 100.217 60.0062C103.205 59.4361 106.796 59.8839 110.377 61.2035"
        fill="#89E3FF" />
    <path fill-rule="evenodd" clip-rule="evenodd"
        d="M117.907 82.201C105.916 77.9098 109.35 63.1184 110.376 61.2028C106.792 59.8832 103.2 59.4354 100.216 60.0055C98.4638 68.3605 100.549 78.571 111.83 82.201H117.907Z"
        fill="#C053BC" />
    <path fill-rule="evenodd" clip-rule="evenodd"
        d="M153.973 61.2035C145.782 64.2212 137.646 71.7988 136.903 82.2017H132.189C131.587 61.6703 149.322 42.9896 164.131 60.0062C161.143 59.4361 157.552 59.8839 153.971 61.2035"
        fill="#89E3FF" />
    <path fill-rule="evenodd" clip-rule="evenodd"
        d="M146.441 82.201C158.433 77.9098 154.999 63.1184 153.973 61.2028C157.554 59.8832 161.145 59.4354 164.133 60.0055C165.886 68.3605 163.8 78.571 152.52 82.201H146.441Z"
        fill="#C053BC" />
    <path opacity="0.2" d="M102.697 102.218H69.6729V106.432H102.697V102.218Z" fill="#363636" />
    <path d="M90.4682 102.218H81.9023V176.661H90.4682V102.218Z" fill="#89E3FF" />
    <path d="M98.9492 82.2012H65.9248V102.218H98.9492V82.2012Z" fill="#C053BC" />
    <path opacity="0.2" d="M90.4682 102.218H81.9023V106.432H90.4682V102.218Z" fill="#363636" />
    <path d="M86.7192 82.2012H78.1533V102.218H86.7192V82.2012Z" fill="#89E3FF" />
    <path fill-rule="evenodd" clip-rule="evenodd"
        d="M185.135 94.4484L185.194 93.5918C185.564 93.7706 185.968 93.8563 186.374 93.8423L186.334 94.733C186.005 94.9193 185.289 94.6067 185.135 94.4484Z"
        fill="#FAA098" />
    <path fill-rule="evenodd" clip-rule="evenodd"
        d="M188.419 95.9217L188.469 95.9127C188.48 95.9518 188.508 96.092 188.508 96.092C186.996 96.3215 186.084 95.7514 185.855 95.7444L185.833 95.9197L184.786 95.7313L184.835 95.3697L184.894 95.3426C184.894 95.1502 184.966 94.6563 185.134 94.4489C185.291 94.6102 185.921 94.8797 186.245 94.6733C186.265 94.5616 186.32 94.4602 186.4 94.3848L186.479 94.4579C186.519 94.457 186.559 94.4646 186.597 94.4802C186.635 94.4959 186.669 94.5193 186.698 94.5491C186.915 94.7244 187.198 95.038 187.515 95.2224C187.888 95.4378 188.288 95.5229 188.395 95.7113C188.422 95.7777 188.43 95.8506 188.419 95.9217"
        fill="#0A3C5F" />
    <path fill-rule="evenodd" clip-rule="evenodd"
        d="M173.722 78.7919C174 71.3186 177.261 65.5826 178.042 64.5947C179.865 65.7439 181.853 67.1456 181.783 69.8839C181.73 71.9669 180.155 72.6311 180.399 78.306C179.487 78.1146 174.997 78.316 173.722 78.7919Z"
        fill="#F29524" />
    <path fill-rule="evenodd" clip-rule="evenodd"
        d="M176.452 71.7991C176.122 71.6919 175.785 71.6078 175.444 71.5476C175.984 68.1241 177.272 66.9819 178.262 67.0811C177.372 68.5339 176.799 70.2441 176.452 71.7991"
        fill="#D6FCFA" />
    <path d="M182.188 61.9023H178.043V66.5903H182.188V61.9023Z" fill="url(#paint0_linear_217_3255)" />
    <path fill-rule="evenodd" clip-rule="evenodd"
        d="M180.373 65.5869C180.307 65.6871 180.209 65.8674 180.105 66.0578C179.75 65.7021 179.34 64.7283 179.304 64.4297C179.393 64.7303 179.906 65.2412 180.373 65.5869Z"
        fill="#D49682" />
    <path
        d="M182.849 77.9382C182.818 77.9349 182.787 77.9381 182.758 77.9476C182.728 77.9571 182.7 77.9727 182.677 77.9936C182.653 78.0144 182.633 78.0401 182.619 78.0691C182.604 78.0981 182.595 78.1298 182.593 78.1624C182.59 78.195 182.593 78.2279 182.603 78.2591C182.612 78.2903 182.627 78.3193 182.647 78.3443C182.667 78.3693 182.691 78.3899 182.719 78.4048C182.746 78.4197 182.776 78.4287 182.807 78.4312L190.027 79.2698C190.078 79.2747 190.129 79.262 190.172 79.2336C190.215 79.2052 190.248 79.1627 190.266 79.1125L192.196 72.8004C192.218 72.739 192.217 72.6708 192.191 72.6108C192.166 72.5507 192.119 72.5038 192.062 72.4803C192.004 72.4568 191.939 72.4586 191.883 72.4854C191.826 72.5121 191.782 72.5617 191.76 72.623L189.577 78.6065L182.849 77.9382Z"
        fill="#0A3C5F" />
    <path fill-rule="evenodd" clip-rule="evenodd"
        d="M188.335 80.1123L191.883 94.1031L190.292 94.3446C190.292 94.3446 186.105 89.346 184.622 83.8034C183.866 83.8715 177.959 84.5248 177.862 84.2041C177.765 83.8835 178.297 82.2704 179.374 81.7915C180.451 81.3126 183.634 80.5762 183.634 80.5762C183.634 80.5762 185.134 80.5592 185.146 80.9018C185.159 81.2445 188.327 80.1173 188.327 80.1173"
        fill="#194294" />
    <path fill-rule="evenodd" clip-rule="evenodd"
        d="M173.722 78.7919C173.722 79.5443 173.911 84.2023 177.749 84.3165C181.588 84.4307 184.024 82.6132 185.398 82.5762C185.187 86.5969 185.546 89.3632 185.122 93.5512C185.553 93.8147 186.239 93.9079 186.848 93.7977C187.219 91.5333 190.269 83.6712 190.337 79.4482C189.121 79.0243 181.911 78.2459 180.862 78.317C178.473 78.2301 176.082 78.3891 173.722 78.7919"
        fill="#2450A8" />
    <path fill-rule="evenodd" clip-rule="evenodd"
        d="M190.859 94.941L190.64 94.2918L191.853 94.1084L192.064 94.6865C191.835 94.9981 191.06 95.0201 190.859 94.941"
        fill="#FAA098" />
    <path fill-rule="evenodd" clip-rule="evenodd"
        d="M194.425 94.8759L194.467 94.8458C194.492 94.8769 194.571 94.9931 194.571 94.9931C193.279 95.8518 192.225 95.7245 192.014 95.8157L192.061 95.986L191.032 96.2636L190.937 95.9119L190.98 95.8618C190.91 95.6844 190.783 95.2035 190.858 94.941C191.063 95.0212 191.742 94.9971 191.96 94.6685C191.935 94.558 191.946 94.442 191.991 94.3389L192.09 94.3709C192.165 94.3346 192.249 94.331 192.326 94.3609C192.592 94.428 192.97 94.5934 193.33 94.6244C193.753 94.6615 194.151 94.5673 194.322 94.6936C194.371 94.7433 194.407 94.8064 194.424 94.8759"
        fill="#0A3C5F" />
    <path fill-rule="evenodd" clip-rule="evenodd"
        d="M179.632 64.2109C178.354 65.832 180.407 67.8178 179.146 69.8557C178.634 70.8716 177.445 71.4027 177.162 71.9457C176.878 72.4887 174.921 74.0638 174.232 74.3583C172.957 74.9054 172.025 71.4788 172.512 69.8056C172.818 68.7516 173.973 68.7967 174.283 67.401C174.593 66.0053 174.268 63.9945 174.975 62.7591C175.407 62.0077 176.532 61.4666 177.354 60.8344C178.175 60.2022 179.038 58.6302 180.985 59.1311C182.044 59.4047 183.181 60.4797 182.769 62.0948C182.436 63.3973 180.247 63.4234 179.626 64.2109"
        fill="#194294" />
    <path fill-rule="evenodd" clip-rule="evenodd"
        d="M178.358 67.0957C177.324 66.9044 175.912 68.0876 175.393 71.905C175.087 73.6082 175.298 76.3575 175.334 76.6881C176.09 77.0969 180.486 77.5147 183.511 76.7733C183.595 76.9506 184.311 77.6139 185.154 77.6019C185.997 77.5898 186.605 76.8003 186.605 76.8003C186.745 76.9206 187.78 78.3313 187.901 78.2902C188.095 78.2251 187.037 75.9798 185.994 75.6852C185.46 75.5359 184.629 75.571 183.225 76.0289C182.375 75.605 180.201 74.8266 177.683 74.55C178.698 72.947 180.211 68.5275 178.358 67.0877"
        fill="#F5BCA9" />
    <path fill-rule="evenodd" clip-rule="evenodd"
        d="M178.52 72.8187C177.588 72.1784 176.544 71.7468 175.449 71.5502C176.006 68.0155 177.362 66.9124 178.363 67.0977C179.729 68.1587 179.264 70.8399 178.52 72.8187Z"
        fill="#F29524" />
    <path d="M216.227 145.284H184.339V179.277H216.227V145.284Z" fill="#E0A526" />
    <path fill-rule="evenodd" clip-rule="evenodd"
        d="M216.227 169.874V172.078L214.041 174.914L211.741 171.922L209.44 174.914L207.14 171.922L204.839 174.914L202.736 172.179V169.974L204.839 172.711L207.14 169.718L209.44 172.711L211.741 169.718L214.041 172.711L216.227 169.874ZM216.227 164.959V167.158L214.041 170.004L211.741 167.012L209.44 170.004L207.14 167.012L204.839 170.004L202.736 167.268V165.07L204.839 167.805L207.14 164.813L209.44 167.805L211.741 164.813L214.041 167.805L216.227 164.959Z"
        fill="#F2D5D5" />
    <path d="M202.736 145.284H173.021V179.277H202.736V145.284Z" fill="#FFCE45" />
    <path fill-rule="evenodd" clip-rule="evenodd"
        d="M202.736 169.982V172.187L202.5 171.93L199.748 174.914L196.995 171.922L194.243 174.914L191.491 171.922L188.738 174.914L185.985 171.925L183.234 174.914L180.482 171.922L177.73 174.914L174.977 171.922L173.021 174.049V171.845L174.977 169.718L177.73 172.711L180.482 169.718L183.234 172.711L185.986 169.718L188.738 172.711L191.491 169.718L194.243 172.711L196.995 169.718L199.748 172.711L202.5 169.718L202.736 169.982ZM202.736 165.067V167.265L202.5 167.009L199.748 170.004L196.995 167.012L194.243 170.004L191.491 167.012L188.738 170.004L185.985 167.009L183.234 170.004L180.482 167.012L177.73 170.004L174.977 167.012L173.021 169.139V166.94L174.977 164.813L177.73 167.805L180.482 164.813L183.234 167.805L185.986 164.813L188.738 167.805L191.491 164.813L194.243 167.805L196.995 164.813L199.748 167.805L202.5 164.813L202.736 165.067Z"
        fill="white" />
    <path d="M202.736 151.203H173.021V152.323H202.736V151.203Z" fill="#CC492B" />
    <path d="M216.228 151.203H202.736V152.323H216.228V151.203Z" fill="#B34026" />
    <path d="M190.095 144.522H185.66V179.277H190.095V144.522Z" fill="#FF7758" />
    <path d="M190.095 151.203H185.66V152.323H190.095V151.203Z" fill="#DAC86A" />
    <path d="M210.895 151.203H208.067V179.277H210.895V151.203Z" fill="#DE674C" />
    <path d="M210.895 151.203H208.067V152.323H210.895V151.203Z" fill="#C75237" />
    <path fill-rule="evenodd" clip-rule="evenodd"
        d="M195.909 147.076C197.009 147.415 205.534 146.399 210.13 136.523L205.654 131.572C205.172 135.375 204.415 144.95 195.599 146.073L195.909 147.076Z"
        fill="#DE674C" />
    <path fill-rule="evenodd" clip-rule="evenodd"
        d="M195.256 146.571C196.276 140.821 198.618 133.513 206.719 130.126C207.34 131.052 209.212 134.203 210.132 136.522C207.102 135.705 199.566 137.382 195.91 147.075L195.256 146.571Z"
        fill="#FF7758" />
    <path fill-rule="evenodd" clip-rule="evenodd"
        d="M200.483 144.938L200.361 144.561C202.228 145.134 207.846 143.93 210.74 138.733L212.46 142.687C210.411 145.036 207.461 147.435 200.483 144.938Z"
        fill="#DE674C" />
    <path fill-rule="evenodd" clip-rule="evenodd"
        d="M199.997 144.665L200.484 144.939C205.533 142.698 207.449 141.718 212.501 142.713L210.872 138.327C206.793 138.566 205.218 139.999 199.997 144.665Z"
        fill="#FF7758" />
    <path fill-rule="evenodd" clip-rule="evenodd"
        d="M182.617 135.575C182.818 139.082 183.351 141.993 185.547 143.491C188.976 145.828 193.314 146.969 196.363 147.305L196.568 146.796C195.008 146.279 189.04 142.739 188.246 141.023C187.65 139.737 186.734 136.983 187.93 133.79L182.617 135.575Z"
        fill="#DE674C" />
    <path fill-rule="evenodd" clip-rule="evenodd"
        d="M196.657 147.173C197.016 140.905 192.475 132.605 186.088 130.04L182.617 135.58C186.069 135.98 195.486 140.494 196.361 147.307L196.657 147.173Z"
        fill="#FF7758" />
    <path d="M217.438 144.522H183.129V151.202H217.438V144.522Z" fill="#E0A526" />
    <path d="M217.438 149.978H183.129V151.204H217.438V149.978Z" fill="#F2D5D5" />
    <path fill-rule="evenodd" clip-rule="evenodd"
        d="M190.007 144.938L190.13 144.561C188.262 145.134 182.645 143.93 179.751 138.733L178.03 142.687C180.08 145.036 183.03 147.435 190.007 144.938Z"
        fill="#DE674C" />
    <path fill-rule="evenodd" clip-rule="evenodd"
        d="M190.493 144.665L190.006 144.939C184.958 142.698 183.042 141.718 177.989 142.713L179.619 138.327C183.698 138.566 185.272 139.999 190.493 144.665Z"
        fill="#FF7758" />
    <path d="M203.863 144.522H171.894V151.202H203.863V144.522Z" fill="#FFCE45" />
    <path d="M203.863 149.978H171.894V151.204H203.863V149.978Z" fill="white" />
    <path opacity="0.26" fill-rule="evenodd" clip-rule="evenodd"
        d="M196.138 144.522C192.338 145.183 186.794 152.655 186.603 159.952C185.707 159.365 180.969 155.295 180.413 154.942C181.89 151.312 188.14 144.939 194.872 144.522H196.138Z"
        fill="#7A3020" />
    <path d="M212.106 144.522H209.278V151.202H212.106V144.522Z" fill="#DE674C" />
    <path fill-rule="evenodd" clip-rule="evenodd"
        d="M196.137 144.522C192.194 145.183 185.041 152.655 183.279 159.952C182.509 159.365 178.648 155.295 178.167 154.942C180.427 151.312 188.048 144.939 194.874 144.522H196.137Z"
        fill="#FF7758" />
    <path opacity="0.53" fill-rule="evenodd" clip-rule="evenodd"
        d="M195.413 144.523C192.149 144.898 189.288 145.788 186.403 151.204C185.014 150.957 183.485 150.47 182.281 150.149C185.739 143.575 190.684 143.967 195.413 144.523Z"
        fill="#DE674C" />
    <path fill-rule="evenodd" clip-rule="evenodd"
        d="M195.268 144.523C192.629 144.315 187.206 146.436 184.338 151.697C183.009 151.451 180.636 150.964 179.51 150.642C184.559 144.069 191.013 143.043 195.268 144.523Z"
        fill="#FF7758" />
    <path fill-rule="evenodd" clip-rule="evenodd"
        d="M211 190.296C211 190.45 210.859 191.041 213.564 190.968C213.928 190.787 214.433 190.61 214.502 190.625C214.571 190.64 214.641 190.947 214.641 190.947C214.977 190.995 215.95 191.074 216.02 190.758C216.17 190.088 215.886 189.136 215.51 188.804L215.416 188.796C215.416 188.923 215.234 189.344 214.891 189.314C214.548 189.284 214.148 188.931 214.04 188.681C213.844 188.75 212.878 189.866 212.15 189.983C211.423 190.1 211.105 189.868 211.005 190.294"
        fill="#B02747" />
    <path fill-rule="evenodd" clip-rule="evenodd"
        d="M213.986 187.944L215.416 188.2L213.986 187.944ZM230.019 166.058C227.467 166.938 223.409 167.101 221.986 166.691C220.063 167.872 215.909 171.801 214.877 173.812C214.543 174.966 213.571 183.653 213.988 187.94L214.042 188.676L214.121 188.808C214.288 189.036 214.613 189.283 214.897 189.309C215.182 189.335 215.37 189.032 215.411 188.863L215.422 188.791V188.196C216.536 181.183 218.669 180.354 220.147 174.434C222.238 173.961 226.203 174.168 228.768 170.8C229.588 169.721 229.937 167.989 230.019 166.062V166.058Z"
        fill="#FAA098" />
    <path fill-rule="evenodd" clip-rule="evenodd"
        d="M242.216 183.663C242.361 183.678 242.902 183.883 243.091 181.021C242.955 180.62 242.838 180.071 242.859 179.999C242.879 179.927 243.173 179.882 243.173 179.882C243.251 179.532 243.417 178.513 243.127 178.408C242.513 178.187 241.591 178.396 241.244 178.761L241.228 178.855C241.347 178.869 241.725 179.1 241.664 179.457C241.603 179.813 241.234 180.204 240.988 180.299C241.035 180.514 241.991 181.639 242.033 182.422C242.076 183.206 241.826 183.514 242.216 183.661"
        fill="#B02747" />
    <path fill-rule="evenodd" clip-rule="evenodd"
        d="M240.992 180.301L240.36 180.289C235.469 181.054 228.374 180.088 226.952 178.933C226.167 178.077 224.917 175.536 224.17 173.735C225.776 173.313 227.355 172.032 228.399 170.656C229.325 169.439 230.019 167.661 230.019 166.062C230.386 167.153 230.855 174.266 230.479 175.611C233.002 176.513 236.891 178.385 240.307 178.769L241.233 178.855L241.299 178.874C241.453 178.938 241.721 179.152 241.668 179.458C241.615 179.765 241.354 180.076 241.125 180.23L240.992 180.301Z"
        fill="#FAA098" />
    <path fill-rule="evenodd" clip-rule="evenodd"
        d="M225.291 147.662C225.669 147.902 225.326 148.585 225.159 148.829L225.565 149.23C226.565 148.228 227.007 145.69 225.81 144.957C225.81 143.942 223.104 143.393 222.153 143.821C220.946 144.364 220.925 146.437 222.404 146.566C222.94 146.737 223.653 146.707 223.935 146.677C223.998 146.803 223.966 147.335 223.948 147.461C224.123 147.479 224.299 147.479 224.474 147.461C224.408 147.83 224.323 148.195 224.218 148.554C224.439 148.279 224.839 147.375 225.288 147.659"
        fill="#B02747" />
    <path d="M225.669 146.563H221.349V151.463H225.669V146.563Z" fill="url(#paint1_linear_217_3255)" />
    <path fill-rule="evenodd" clip-rule="evenodd"
        d="M223.126 150.241C223.158 150.36 223.203 150.559 223.25 150.771C223.686 150.544 224.343 149.744 224.459 149.469C224.294 149.722 223.664 150.054 223.126 150.238"
        fill="#D49682" />
    <path fill-rule="evenodd" clip-rule="evenodd"
        d="M216.666 139.105C216.464 137.202 216.878 134.966 218.438 135.622C218.945 135.835 219.275 136.557 219.054 137.168C218.77 137.954 217.815 138.691 217.681 139.33C217.609 144.178 218.768 146.857 220.148 148.456C219.812 149.41 219.34 150.303 218.747 151.103C215.951 146.066 216.053 143.269 216.668 139.105L217.683 139.33L216.666 139.105Z"
        fill="#F3B8A4" />
    <path fill-rule="evenodd" clip-rule="evenodd"
        d="M232.846 138.265C232.784 137.815 232.773 135.269 231.625 135.36C230.402 135.477 230.721 136.91 230.928 137.335C231.135 137.759 231.477 137.951 231.667 138.562C231.22 142.77 229.954 145.427 228.518 147.21C228.518 147.21 229.593 148.48 230.703 149.587C232.343 146.036 232.928 139.759 232.846 138.265"
        fill="#F3B8A4" />
    <path fill-rule="evenodd" clip-rule="evenodd"
        d="M219.796 176.653C218.292 175.776 215.711 174.38 214.909 173.948L214.885 173.934L214.866 173.924L214.854 173.917C214.863 173.88 214.871 173.846 214.88 173.816C215.911 171.813 220.065 167.876 221.989 166.695C222.035 166.708 222.083 166.721 222.136 166.733C223.676 167.093 227.56 166.914 230.023 166.062C230.019 166.162 230.013 166.272 230.007 166.376C229.535 174.455 222.007 174.291 220.86 177.318C220.519 177.076 220.165 176.853 219.801 176.652L219.796 176.653Z"
        fill="#194294" />
    <path fill-rule="evenodd" clip-rule="evenodd"
        d="M228.364 153.773C228.616 154.442 228.822 155.13 228.981 155.83C229.296 157.665 230.179 162.25 230.021 166.066C227.557 166.919 223.674 167.098 222.133 166.737L221.986 166.699C221.788 165.086 221.973 160.071 222.444 156.072C222.681 154.068 222.989 152.322 223.357 151.383C223.363 151.412 223.369 151.441 223.373 151.468L223.543 151.378C224.295 150.99 224.987 150.484 225.595 149.875C225.595 149.856 225.595 149.838 225.595 149.82C226.691 149.117 227.677 148.239 228.518 147.215C228.518 147.215 229.594 148.485 230.704 149.592C230.893 149.779 231.082 149.961 231.263 150.131C230.627 151.868 229.533 153.105 228.364 153.775"
        fill="#C7E5FC" />
    <path fill-rule="evenodd" clip-rule="evenodd"
        d="M218.747 151.103C219.34 150.302 219.812 149.41 220.148 148.456C220.788 149.183 221.54 149.787 222.373 150.243C222.384 150.292 222.406 150.337 222.437 150.375C222.493 150.383 222.55 150.383 222.606 150.375C222.825 150.494 223.032 150.6 223.224 150.698C223.269 150.925 223.319 151.18 223.355 151.38C223.028 152.212 222.748 153.684 222.524 155.403C220.993 154.687 218.606 152.629 218.096 151.782C218.338 151.586 218.557 151.358 218.747 151.104"
        fill="#B2D5F0" />
    <path fill-rule="evenodd" clip-rule="evenodd"
        d="M230.479 175.616C229.74 175.816 227.442 177.129 226.158 178.162C225.882 178.371 225.63 178.614 225.408 178.886C225.018 178.234 224.546 175.84 224.313 174.56L224.474 174.47C225.865 173.687 227.366 172.741 228.456 171.189C229.224 170.095 229.788 168.7 229.968 166.849C229.968 166.828 229.972 166.807 229.975 166.786C230.004 166.547 230.019 166.307 230.02 166.066C230.387 167.157 230.856 174.271 230.48 175.616"
        fill="#194294" />
    <path fill-rule="evenodd" clip-rule="evenodd"
        d="M117.519 168.848V176.141H105.582V168.848H117.519ZM117.519 159.772V167.065H105.582V159.772H117.519ZM117.519 150.697V157.99H105.582V150.697H117.519ZM117.519 141.621V148.914H105.582V141.621H117.519ZM117.519 132.546V139.839H105.582V132.546H117.519ZM117.519 123.471V130.763H105.582V123.471H117.519ZM105.582 121.687V114.398H117.519V121.69L105.582 121.687ZM105.582 108.424H103.9V183.731H105.582V177.92H117.519V183.731H119.201V108.424H117.519V112.612H105.582V108.424Z"
        fill="#2A54A8" />
    <path fill-rule="evenodd" clip-rule="evenodd"
        d="M104.109 100.832C103.825 98.9514 104.131 94.2705 104.852 92.2726C104.434 91.6394 105.053 88.9162 106.158 88.5996C106.75 88.4603 106.528 90.8539 106.474 91.0313C106.794 90.9842 107.033 90.1636 107.093 90.1446C107.154 90.1255 107.33 90.8259 106.69 91.6875C106.461 92.0041 105.839 92.3838 105.781 92.489C105.722 92.5942 105.423 96.5138 106.406 99.6367C105.891 99.8221 104.772 100.394 104.109 100.83"
        fill="#FAA098" />
    <path fill-rule="evenodd" clip-rule="evenodd"
        d="M112.198 100.539C112.437 100.954 112.557 101.434 112.546 101.92C112.546 102.863 112.15 103.641 111.638 103.759C111.599 103.975 111.482 104.484 111.482 104.484L110.132 104.23C110.132 104.23 109.631 103.293 109.943 103.09C110.256 102.887 111.293 102.356 111.424 102.432C111.529 102.493 111.613 103.249 111.641 103.551C111.752 103.42 111.835 103.266 111.885 103.098C111.933 102.915 111.742 101.471 111.778 101.204C111.793 101.086 112.01 100.904 112.2 100.539"
        fill="#FAA098" />
    <path fill-rule="evenodd" clip-rule="evenodd"
        d="M115.58 119.961C115.519 118.82 114.863 111.373 114.584 108.867C115.607 111.501 117.741 114.104 119.357 113.698C120.596 112.534 117.641 106.435 116.144 104.497C112.562 103.23 109.842 103.864 108.657 104.097C108.279 103.374 106.798 100.17 106.596 99.5879C106.151 99.664 103.997 100.779 103.633 101.209C103.741 102.894 105.72 107.111 106.3 108.011C105.991 110.19 105.374 118.112 105.185 120.392C106.773 119.936 113.345 119.631 115.58 119.961"
        fill="white" />
    <path fill-rule="evenodd" clip-rule="evenodd"
        d="M107.301 138.831L107.343 140.134C107.643 140.306 108.2 140.366 108.666 140.134V138.91L107.301 138.831Z"
        fill="#FAA098" />
    <path fill-rule="evenodd" clip-rule="evenodd"
        d="M107.335 139.952C107.058 140.141 105.43 141.255 105.213 141.696V142.252C105.591 142.322 108.332 142.062 108.963 141.927V140.164L108.665 139.873V140.135C108.199 140.367 107.643 140.307 107.342 140.135L107.335 139.952Z"
        fill="#194294" />
    <path fill-rule="evenodd" clip-rule="evenodd"
        d="M114.413 147.862L114.468 149.378C114.468 149.378 113.712 149.842 113.151 149.378L112.994 147.976L114.375 147.863L114.413 147.862Z"
        fill="#FAA098" />
    <path fill-rule="evenodd" clip-rule="evenodd"
        d="M114.496 149.18L114.459 149.16L114.468 149.382C114.432 149.403 114.395 149.423 114.357 149.44C114.407 149.418 114.456 149.394 114.504 149.367L114.496 149.18ZM113.13 149.197L112.968 149.297L112.685 151.39C112.685 151.39 113.074 151.83 113.812 151.669C114.55 151.508 116.566 150.968 116.566 150.968L116.407 150.25L114.499 149.179L114.507 149.366C114.459 149.393 114.41 149.417 114.36 149.439C114.13 149.547 113.584 149.739 113.152 149.381L113.13 149.197Z"
        fill="#194294" />
    <path fill-rule="evenodd" clip-rule="evenodd"
        d="M118.793 109.407C117.201 109.545 116.11 110.309 115.669 110.994C116.762 112.717 118.199 113.99 119.365 113.699C119.983 113.119 119.554 111.314 118.798 109.409"
        fill="#FAA098" />
    <path fill-rule="evenodd" clip-rule="evenodd"
        d="M105.279 120.383C105.107 121.977 104.751 126.321 104.807 128.774C104.941 130.603 106.196 135.304 106.852 139.294L108.685 139.283C108.78 137.387 110.435 133.741 109.304 129.925C109.452 129.777 109.612 129.466 109.768 129.09C109.034 126.111 108.634 123.051 108.576 119.973C107.149 120.073 105.912 120.217 105.283 120.382"
        fill="#DB8B29" />
    <path fill-rule="evenodd" clip-rule="evenodd"
        d="M109.764 129.088C110.52 132.087 111.413 134.026 111.798 134.759C109.293 138.313 111.097 144.697 112.377 148.291L114.626 148.268C114.518 142.674 116.673 132.655 115.583 119.965C114.183 119.752 111.084 119.796 108.572 119.973C108.63 123.052 109.03 126.112 109.764 129.091"
        fill="#FFA12E" />
    <path fill-rule="evenodd" clip-rule="evenodd"
        d="M109.243 104.605C109.828 104.53 111.584 104.143 111.883 103.102C111.931 102.919 111.74 101.475 111.776 101.209C111.812 100.942 112.863 100.373 112.349 98.0176C111.593 99.2269 110.093 98.3482 108.956 99.4994C108.343 100.122 107.828 102.818 109.24 104.609"
        fill="#194294" />
    <path fill-rule="evenodd" clip-rule="evenodd"
        d="M201.313 123.152L200.955 124.635C200.946 124.684 200.928 124.73 200.901 124.771C200.875 124.813 200.841 124.848 200.802 124.875L200.964 124.2C200.964 124.175 200.959 124.15 200.955 124.127C200.894 123.695 200.09 122.935 199.719 122.669L200.076 121.187C200.448 121.453 201.252 122.213 201.313 122.644C201.342 122.812 201.342 122.984 201.313 123.152"
        fill="#A1F1FC" />
    <path fill-rule="evenodd" clip-rule="evenodd"
        d="M140.14 163.402L141.068 163.841C141.099 163.853 141.127 163.872 141.15 163.896C141.174 163.92 141.193 163.949 141.206 163.981L140.784 163.781H140.735C140.445 163.775 139.852 164.276 139.634 164.517L138.706 164.078C138.925 163.837 139.518 163.336 139.807 163.342C139.921 163.34 140.033 163.361 140.14 163.403"
        fill="white" />
    <path fill-rule="evenodd" clip-rule="evenodd"
        d="M227.032 115.916L224.873 118.205C224.606 118.488 224.205 118.719 223.61 118.899L225.342 117.063C225.388 116.551 225.316 115.955 225.247 115.277L227.407 112.987C227.529 114.254 227.672 115.235 227.029 115.916"
        fill="#FFDD00" />
    <path fill-rule="evenodd" clip-rule="evenodd"
        d="M123.004 122.171L118.544 126.9C117.992 127.485 117.162 127.963 115.934 128.333L119.512 124.54C119.606 123.481 119.46 122.249 119.323 120.847L123.784 116.118C124.039 118.735 124.334 120.761 123.004 122.171"
        fill="#E48603" />
    <path fill-rule="evenodd" clip-rule="evenodd"
        d="M87.3361 102.996C87.1415 102.907 86.7691 101.631 87.1566 101.222L88.2084 100.107C88.4579 99.8423 89.024 99.9395 90.1571 100.955C90.3448 101.108 90.5212 101.275 90.6844 101.456L89.6326 102.576C89.4692 102.395 89.2932 102.227 89.1062 102.075C88.8027 101.794 88.4746 101.544 88.1262 101.329C88.2009 101.619 88.3086 101.85 88.388 101.886L87.3361 102.996Z"
        fill="#729690" />
    <path fill-rule="evenodd" clip-rule="evenodd"
        d="M96.6415 67.558C96.4491 67.7673 96.2182 67.9324 95.963 68.043L92.1829 69.4927C91.2652 69.8444 90.7067 68.6912 90.0008 67.7013L86.54 69.0289C86.8944 67.9428 87.0693 66.7184 87.7837 66.4449L91.5639 64.9951C91.837 64.8899 92.1895 64.924 92.662 65.1584C93.8149 65.7315 94.4075 67.7063 95.3469 68.055L96.6415 67.558Z"
        fill="#B0FCFC" />
    <path fill-rule="evenodd" clip-rule="evenodd"
        d="M141.165 76.0176L142.34 76.5737C142.379 76.5895 142.414 76.6135 142.445 76.6441C142.475 76.6747 142.499 76.7114 142.515 76.7521L141.981 76.4996H141.918C141.552 76.4916 140.801 77.1258 140.524 77.4314L139.35 76.8763C139.627 76.5697 140.377 75.9355 140.744 75.9435C140.887 75.9412 141.03 75.967 141.165 76.0197"
        fill="white" />
    <path fill-rule="evenodd" clip-rule="evenodd"
        d="M119.202 90.5144L120.67 93.1194C120.851 93.4411 120.958 93.8819 120.975 94.4951L119.799 92.4071C119.37 92.2448 118.842 92.1766 118.246 92.0855L116.777 89.4805C117.892 89.6508 118.762 89.739 119.202 90.5144Z"
        fill="#FFDD00" />
    <path fill-rule="evenodd" clip-rule="evenodd"
        d="M128.416 60.0343C127.29 59.9722 126.764 58.5655 127.264 57.6116L128.891 54.5057C129.326 53.6771 130.535 53.1902 132.801 54.2231C133.189 54.408 133.621 54.4666 134.04 54.3915L135.269 52.043C135.353 52.7173 135.269 53.2383 135.066 53.619L133.438 56.7249C132.999 57.5615 132.021 57.7188 131.17 57.3261C130.644 57.0761 130.091 56.8968 129.523 56.7921C129.685 56.8737 129.86 56.9207 130.039 56.9303L128.416 60.0343Z"
        fill="#2451AA" />
    <path fill-rule="evenodd" clip-rule="evenodd"
        d="M177.771 147.367C178.837 146.98 178.979 145.474 178.251 144.701L175.883 142.197C175.251 141.525 173.962 141.409 172.051 143.061C171.725 143.352 171.325 143.534 170.902 143.583L169.106 141.68C169.201 142.353 169.419 142.828 169.71 143.135L172.078 145.64C172.716 146.318 173.695 146.185 174.415 145.562C174.856 145.168 175.342 144.835 175.862 144.569C175.728 144.697 175.571 144.795 175.401 144.857L177.771 147.367Z"
        fill="#2451AA" />
    <path fill-rule="evenodd" clip-rule="evenodd"
        d="M193.446 62.1097L194.108 59.8755C194.133 59.8042 194.145 59.7283 194.142 59.6522C194.139 59.5761 194.122 59.5014 194.091 59.4326L193.789 60.4496L193.72 60.5367C193.313 61.0457 191.688 61.3473 191.001 61.3753L190.34 63.6106C191.026 63.5816 192.65 63.28 193.059 62.772C193.226 62.5788 193.357 62.3542 193.446 62.1097"
        fill="#DEB22C" />
    <path fill-rule="evenodd" clip-rule="evenodd"
        d="M250 51.978C249.52 52.464 249.085 52.7666 248.685 52.9199L241.36 55.7463C239.583 56.4316 238.495 54.1903 237.125 52.2806L230.415 54.8666C231.097 52.7626 231.433 50.387 232.816 49.857L240.143 47.0316C240.673 46.8312 241.356 46.8923 242.272 47.3452C244.51 48.4523 245.664 52.2786 247.488 52.9489L250 51.978Z"
        fill="#DBD638" />
    <path fill-rule="evenodd" clip-rule="evenodd"
        d="M193.373 81.4991L192.198 82.0552C192.159 82.0708 192.123 82.0947 192.093 82.1253C192.063 82.156 192.039 82.1928 192.022 82.2335L192.557 81.981H192.62C192.985 81.973 193.737 82.6072 194.013 82.9128L195.187 82.3577C194.911 82.0512 194.161 81.4169 193.794 81.425C193.651 81.4226 193.508 81.4484 193.373 81.5011"
        fill="#DFFFD9" />
    <path fill-rule="evenodd" clip-rule="evenodd"
        d="M113.173 169.949C112.98 170.158 112.749 170.324 112.494 170.434L108.714 171.885C107.797 172.236 107.238 171.083 106.533 170.092L103.072 171.42C103.426 170.334 103.601 169.11 104.315 168.836L108.095 167.386C108.368 167.286 108.721 167.316 109.192 167.551C110.346 168.124 110.938 170.098 111.878 170.446L113.173 169.949Z"
        fill="#B0FCFC" />
    <path fill-rule="evenodd" clip-rule="evenodd"
        d="M164.329 112.986L158.715 114.454C158.021 114.635 157.157 114.593 156.028 114.267L160.53 113.089C161.079 112.307 161.513 111.266 162.032 110.099L167.646 108.63C166.676 110.811 166.001 112.548 164.329 112.986"
        fill="#15D7D7" />
    <path fill-rule="evenodd" clip-rule="evenodd"
        d="M193.852 139.458C193.739 139.289 194.019 138.102 194.504 137.976L195.827 137.629C196.141 137.547 196.541 137.908 196.977 139.274C197.056 139.489 197.119 139.709 197.166 139.934L195.843 140.279C195.796 140.055 195.732 139.834 195.654 139.62C195.541 139.247 195.396 138.886 195.218 138.543C195.147 138.807 195.129 139.044 195.174 139.112L193.852 139.458Z"
        fill="white" />
    <path fill-rule="evenodd" clip-rule="evenodd"
        d="M138.098 21.9469L138.085 24.7262C138.085 25.0699 137.97 25.4686 137.707 25.9596L137.717 23.7293C137.453 23.3866 137.07 23.068 136.643 22.6963L136.655 19.917C137.452 20.6113 138.098 21.1193 138.094 21.9469"
        fill="#B0FCFC" />
    <path fill-rule="evenodd" clip-rule="evenodd"
        d="M133.569 89.4317C132.779 88.4298 133.447 86.941 134.538 86.6564L138.083 85.7287C139.028 85.4812 140.297 86.1434 141.202 88.8286C141.352 89.295 141.628 89.704 141.997 90.0038L144.681 89.3025C144.237 89.8746 143.778 90.1872 143.343 90.3044L139.797 91.2322C138.841 91.4817 138.001 90.7723 137.656 89.7604C137.454 89.1292 137.178 88.5273 136.834 87.9689C136.894 88.1668 136.99 88.3501 137.118 88.508L133.569 89.4317Z"
        fill="#FFE301" />
    <path fill-rule="evenodd" clip-rule="evenodd"
        d="M169.475 73.5195L170.206 70.3324C170.224 70.2276 170.262 70.1278 170.317 70.039C170.372 69.9501 170.444 69.8741 170.528 69.8154L170.195 71.2652C170.202 71.3193 170.21 71.3724 170.217 71.4225C170.359 72.3453 172.099 73.9534 172.902 74.5134L172.172 77.7005C171.368 77.1405 169.628 75.5324 169.488 74.6096C169.438 74.284 169.393 73.8632 169.475 73.5195"
        fill="#DEB22C" />
    <path fill-rule="evenodd" clip-rule="evenodd"
        d="M251.104 142.268L246.964 143.354C246.453 143.487 245.815 143.454 244.979 143.216L248.299 142.347C248.704 141.771 249.025 141.003 249.408 140.143L253.556 139.056C252.84 140.664 252.342 141.945 251.109 142.268"
        fill="white" />
    <path fill-rule="evenodd" clip-rule="evenodd"
        d="M191.454 82.1523C191.528 82.4887 191.666 82.8055 191.86 83.0831L194.839 87.0036C195.562 87.9545 196.795 87.1499 198.078 86.6119L200.805 90.1998C201.076 88.8742 201.607 87.5246 201.043 86.7832L198.063 82.8627C197.847 82.5792 197.472 82.3848 196.86 82.3147C195.364 82.1443 193.625 83.7544 192.475 83.4949L191.454 82.1523Z"
        fill="#9977FF" />
    <path fill-rule="evenodd" clip-rule="evenodd"
        d="M215.027 168.378L216.055 169.945C216.091 169.993 216.118 170.05 216.133 170.109C216.148 170.169 216.151 170.232 216.143 170.293L215.676 169.58L215.603 169.53C215.169 169.239 213.837 169.423 213.297 169.577L212.269 168.01C212.809 167.856 214.142 167.671 214.574 167.962C214.749 168.069 214.902 168.21 215.027 168.378"
        fill="white" />
    <path fill-rule="evenodd" clip-rule="evenodd"
        d="M149.214 139.353L147.389 141.257C147.333 141.321 147.265 141.374 147.19 141.411C147.115 141.448 147.033 141.468 146.95 141.471L147.78 140.605L147.829 140.485C148.113 139.772 147.546 137.837 147.214 137.072L149.038 135.168C149.371 135.933 149.933 137.873 149.653 138.581C149.553 138.865 149.404 139.127 149.214 139.353"
        fill="#2451AA" />
    <path fill-rule="evenodd" clip-rule="evenodd"
        d="M20.2551 113.347L15.8626 118.005C15.3201 118.58 14.5026 119.051 13.2939 119.416L16.8161 115.682C16.9106 114.64 16.7651 113.426 16.6271 112.047L21.0225 107.385C21.2739 109.961 21.564 111.957 20.2551 113.343"
        fill="#15D7D7" />
    <path fill-rule="evenodd" clip-rule="evenodd"
        d="M163.374 33.3583C163.436 33.5497 163.535 33.7254 163.665 33.8742L165.636 35.9642C166.115 36.4722 166.787 35.9202 167.504 35.5204L169.308 37.4331C169.387 36.6415 169.617 35.819 169.245 35.4232L167.274 33.3332C167.131 33.1819 166.896 33.0938 166.539 33.0938C165.656 33.0938 164.736 34.1488 164.05 34.0736L163.374 33.3583Z"
        fill="#FF7758" />
    <path fill-rule="evenodd" clip-rule="evenodd"
        d="M16.5122 82.1792L17.9581 84.7411C18.1367 85.0587 18.2416 85.4915 18.2586 86.0957L17.099 84.0397C16.6776 83.8794 16.154 83.8133 15.57 83.7231L14.125 81.1582C15.2212 81.3265 16.0812 81.4127 16.5122 82.1762"
        fill="#B0FCFC" />
    <path fill-rule="evenodd" clip-rule="evenodd"
        d="M48.4684 64.5559C48.4959 65.7322 47.2333 66.3864 46.3119 65.9375L43.317 64.4777C42.5166 64.088 41.9751 62.8657 42.7604 60.43C42.9023 60.0119 42.924 59.5586 42.8228 59.1275L40.5547 58.0254C41.1727 57.8861 41.6613 57.9392 42.029 58.1186L45.0238 59.5784C45.8318 59.9711 46.051 60.975 45.7543 61.8938C45.5623 62.4599 45.4378 63.0493 45.3838 63.6482C45.4479 63.4737 45.4781 63.2873 45.4727 63.1001L48.4684 64.5559Z"
        fill="#9977FF" />
    <path fill-rule="evenodd" clip-rule="evenodd"
        d="M5.01922 95.7562L4.02032 92.3958C3.98234 92.2885 3.96503 92.1743 3.96942 92.0599C3.9738 91.9455 3.99978 91.8331 4.04583 91.7295L4.5004 93.2574C4.53442 93.3035 4.56938 93.3476 4.60341 93.3897C5.21579 94.1541 7.65872 94.607 8.69165 94.6501L9.69055 98.0105C8.65763 97.9684 6.2147 97.5096 5.60137 96.7501C5.38495 96.4796 5.12885 96.1169 5.01922 95.7552"
        fill="#DEB22C" />
    <path fill-rule="evenodd" clip-rule="evenodd"
        d="M35.7625 103.018L32.5229 106.453C32.1231 106.877 31.5202 107.225 30.6328 107.493L33.2307 104.739C33.3007 103.97 33.1929 103.076 33.0937 102.058L36.3333 98.623C36.5223 100.527 36.7321 101.996 35.7663 103.018"
        fill="white" />
    <path fill-rule="evenodd" clip-rule="evenodd"
        d="M84.3262 155.692C84.5698 155.958 84.8625 156.168 85.1862 156.309L89.9813 158.159C91.1446 158.607 91.8562 157.141 92.754 155.89L97.1428 157.583C96.6958 156.205 96.4765 154.651 95.5702 154.302L90.7751 152.453C90.4283 152.318 89.9813 152.361 89.3821 152.653C87.9173 153.378 87.1613 155.882 85.9677 156.321L84.3262 155.692Z"
        fill="#DBD638" />
    <path fill-rule="evenodd" clip-rule="evenodd"
        d="M16.2722 148.278L18.0394 149.113C18.098 149.137 18.1515 149.173 18.1968 149.219C18.242 149.265 18.2782 149.321 18.3031 149.382L17.4989 149.001H17.4044C16.8534 148.989 15.725 149.943 15.3092 150.404L13.542 149.568C13.9578 149.108 15.0871 148.154 15.6381 148.165C15.8541 148.161 16.0689 148.2 16.2713 148.281"
        fill="white" />
    <path fill-rule="evenodd" clip-rule="evenodd"
        d="M11.6496 145.709L10.9644 148.532C10.9474 148.625 10.9129 148.714 10.8629 148.792C10.8128 148.87 10.7484 148.937 10.6734 148.988L10.9833 147.704C10.9777 147.656 10.9711 147.604 10.9644 147.564C10.8482 146.743 9.31818 145.295 8.61035 144.787L9.29172 141.964C9.99956 142.472 11.5296 143.92 11.6458 144.74C11.6864 145.031 11.7186 145.404 11.6458 145.709"
        fill="#2451AA" />
    <path fill-rule="evenodd" clip-rule="evenodd"
        d="M65.7661 91.64L67.2111 94.205C67.3897 94.5216 67.4946 94.9544 67.5116 95.5595L66.353 93.5026C65.9305 93.3423 65.4079 93.2762 64.8239 93.186L63.3789 90.6211C64.4752 90.7894 65.3351 90.8756 65.7661 91.64"
        fill="#FFE301" />
    <path fill-rule="evenodd" clip-rule="evenodd"
        d="M74.4086 130.062C74.2196 129.975 73.8519 128.718 74.2318 128.314L75.2714 127.212C75.5171 126.952 76.0737 127.048 77.1908 128.047C77.375 128.2 77.5481 128.367 77.7087 128.548L76.6691 129.65C76.5083 129.471 76.3348 129.306 76.1503 129.155C75.8519 128.878 75.5288 128.632 75.1854 128.422C75.2591 128.706 75.365 128.934 75.4434 128.97L74.4086 130.062Z"
        fill="white" />
    <path fill-rule="evenodd" clip-rule="evenodd"
        d="M74.4292 120.496L74.0711 121.979C74.0621 122.028 74.0439 122.074 74.0176 122.115C73.9913 122.156 73.9574 122.191 73.918 122.218L74.0805 121.544C74.0805 121.519 74.0749 121.494 74.0711 121.47C74.0106 121.039 73.2073 120.279 72.835 120.013L73.1922 118.53C73.5645 118.797 74.3678 119.557 74.4292 119.988C74.4586 120.156 74.4586 120.328 74.4292 120.496"
        fill="#DBD638" />
    <path fill-rule="evenodd" clip-rule="evenodd"
        d="M13.2559 160.745L14.1839 161.183C14.2147 161.195 14.2428 161.214 14.2665 161.238C14.2902 161.263 14.309 161.292 14.3219 161.324L13.9004 161.124H13.8513C13.5621 161.118 12.9686 161.619 12.7503 161.86L11.8232 161.421C12.0415 161.18 12.6341 160.679 12.9233 160.685C13.0368 160.682 13.1497 160.703 13.2559 160.746"
        fill="white" />
    <path fill-rule="evenodd" clip-rule="evenodd"
        d="M100.149 113.259L97.9891 115.548C97.7226 115.831 97.321 116.062 96.7266 116.241L98.4579 114.406C98.5042 113.894 98.4333 113.297 98.3634 112.618L100.522 110.33C100.646 111.597 100.787 112.577 100.144 113.259"
        fill="#FFDD00" />
    <path fill-rule="evenodd" clip-rule="evenodd"
        d="M98.559 85.5345C98.3634 85.4453 97.992 84.1688 98.3794 83.7591L99.4313 82.6449C99.6807 82.3804 100.246 82.4776 101.38 83.4925C101.567 83.6456 101.743 83.8131 101.907 83.9935L100.855 85.1086C100.692 84.9279 100.516 84.7605 100.329 84.6077C100.026 84.3266 99.6974 84.077 99.349 83.8623C99.4237 84.1518 99.5314 84.3833 99.6108 84.4193L98.559 85.5345Z"
        fill="#729690" />
    <path fill-rule="evenodd" clip-rule="evenodd"
        d="M119.018 135.32C119.113 135.61 119.264 135.877 119.46 136.104L122.455 139.279C123.181 140.049 124.202 139.211 125.29 138.604L128.03 141.51C128.151 140.307 128.503 139.057 127.936 138.457L124.941 135.282C124.724 135.052 124.374 134.918 123.825 134.918C122.483 134.918 121.084 136.521 120.045 136.407L119.018 135.32Z"
        fill="white" />
    <path fill-rule="evenodd" clip-rule="evenodd"
        d="M14.2812 73.3604L15.4559 73.9204C15.495 73.9361 15.5307 73.96 15.5609 73.9906C15.5912 74.0213 15.6152 74.0581 15.6317 74.0988L15.0968 73.8463H15.0344C14.6687 73.8383 13.9174 74.4725 13.6414 74.7781L12.4658 74.221C12.7427 73.9144 13.4931 73.2802 13.8598 73.2882C14.0035 73.2859 14.1464 73.3117 14.2812 73.3644"
        fill="white" />
    <path fill-rule="evenodd" clip-rule="evenodd"
        d="M60.7385 154.575C61.8045 154.188 61.9472 152.682 61.2186 151.91L58.856 149.4C58.2237 148.729 56.9347 148.613 55.0238 150.265C54.6977 150.556 54.2979 150.737 53.8747 150.787L52.0791 148.884C52.1736 149.556 52.3919 150.032 52.683 150.34L55.0503 152.844C55.6882 153.521 56.6673 153.388 57.3874 152.765C57.8289 152.372 58.3149 152.039 58.8342 151.773C58.6998 151.899 58.543 151.995 58.3731 152.056L60.7385 154.575Z"
        fill="#DBD638" />
    <path fill-rule="evenodd" clip-rule="evenodd"
        d="M66.5616 59.4525L67.2232 57.2182C67.2486 57.147 67.2602 57.0712 67.2575 56.9951C67.2547 56.919 67.2376 56.8443 67.2071 56.7754L66.9104 57.7893L66.8414 57.8775C66.4341 58.3865 64.8095 58.6871 64.1234 58.7161L63.4619 60.9504C64.148 60.9223 65.7725 60.6208 66.1808 60.1128C66.3477 59.9195 66.4791 59.6949 66.5683 59.4505"
        fill="#DEB22C" />
    <path fill-rule="evenodd" clip-rule="evenodd"
        d="M62.9074 110.099C62.4273 110.585 61.9936 110.888 61.5938 111.041L54.2679 113.867C52.4902 114.553 51.4025 112.311 50.0322 110.402L43.3271 112.988C44.0095 110.884 44.344 108.508 45.7285 107.978L53.0544 105.153C53.5846 104.952 54.2679 105.013 55.1836 105.466C57.4215 106.573 58.5763 110.4 60.4002 111.07L62.9074 110.099Z"
        fill="#DBD638" />
    <path fill-rule="evenodd" clip-rule="evenodd"
        d="M66.4891 78.8419L65.3144 79.398C65.2754 79.4138 65.2398 79.4377 65.2096 79.4684C65.1794 79.499 65.1553 79.5357 65.1387 79.5763L65.6736 79.3239H65.7359C66.1026 79.3158 66.853 79.95 67.1299 80.2556L68.3045 79.7006C68.0276 79.394 67.2773 78.7598 66.9106 78.7678C66.7669 78.7649 66.6239 78.7908 66.4891 78.8439"
        fill="#DFFFD9" />
    <path fill-rule="evenodd" clip-rule="evenodd"
        d="M205.234 51.7672L205.686 53.6438C205.698 53.7051 205.721 53.7632 205.755 53.8148C205.788 53.8664 205.831 53.9105 205.88 53.9444L205.674 53.0907C205.674 53.0577 205.682 53.0266 205.686 52.9966C205.764 52.4515 206.781 51.4887 207.251 51.151L206.799 49.2734C206.326 49.6111 205.311 50.5759 205.234 51.12C205.196 51.3328 205.196 51.5514 205.234 51.7642"
        fill="#AFFCA1" />
    <path fill-rule="evenodd" clip-rule="evenodd"
        d="M102.323 48.3822L104.698 50.899C104.992 51.2106 105.433 51.4651 106.087 51.6625L104.183 49.6436C104.132 49.0795 104.21 48.4243 104.283 47.6779L101.908 45.165C101.773 46.5577 101.616 47.6368 102.323 48.3872"
        fill="#B0FCFC" />
    <path fill-rule="evenodd" clip-rule="evenodd"
        d="M37.3493 80.8232C31.2264 82.6628 34.5009 93.732 31.8936 101.808C32.4606 102.48 33.7893 102.694 34.5009 102.637L36.0942 97.9561C36.0942 97.9561 36.1604 94.1878 36.1651 93.9053C36.1699 93.6228 36.0565 90.3986 36.15 89.8926C36.2436 89.3866 36.4033 85.3349 36.4033 85.3349L37.3568 80.9715L37.3493 80.8232Z"
        fill="#E38E26" />
    <path fill-rule="evenodd" clip-rule="evenodd"
        d="M44.39 125.153C44.4193 125.147 44.63 125.125 44.6791 124.996C44.6499 124.69 44.6791 123.451 44.5846 122.661C44.5412 122.298 44.372 122.224 44.3144 121.982C43.9393 122.131 43.6326 122.427 43.4582 122.809C43.0338 123.671 42.9469 124.85 42.3147 125.022C42.0311 125.08 41.8478 124.896 41.827 124.814C41.6777 125.005 40.8177 125.215 40.916 125.473C40.9604 125.573 41.6891 125.962 42.7503 125.543C43.2852 125.299 43.1416 124.278 44.1622 123.45L44.39 125.153Z"
        fill="#194294" />
    <path fill-rule="evenodd" clip-rule="evenodd"
        d="M41.8291 124.818C42.0474 124.608 42.7685 122.714 43.1314 122.336L43.0208 121.189L44.1549 120.929L44.2494 122.009C43.9046 122.17 43.6238 122.453 43.4555 122.81C43.0312 123.672 42.9443 124.851 42.312 125.024C42.2252 125.045 42.1342 125.039 42.0504 125.007C41.9665 124.975 41.8932 124.918 41.8395 124.842C41.8395 124.833 41.8319 124.824 41.8291 124.815"
        fill="#F7BCAA" />
    <path fill-rule="evenodd" clip-rule="evenodd"
        d="M35.9987 125.572C36.0289 125.572 36.2387 125.6 36.3134 125.485C36.3465 125.179 36.6328 123.982 36.7027 123.18C36.7339 122.818 36.5837 122.706 36.578 122.456C36.1813 122.515 35.8212 122.733 35.5725 123.066C34.9818 123.81 34.6548 124.941 34.0028 124.963C33.7192 124.956 33.5728 124.732 33.569 124.647C33.38 124.801 32.502 124.805 32.5455 125.081C32.5672 125.193 33.1995 125.737 34.3212 125.572C34.893 125.457 34.962 124.427 36.1282 123.855L35.9987 125.572Z"
        fill="#194294" />
    <path fill-rule="evenodd" clip-rule="evenodd"
        d="M33.5684 124.651C33.8245 124.497 34.9179 122.809 35.3488 122.529L35.4754 121.383L36.636 121.39L36.5112 122.468C36.1414 122.546 35.809 122.758 35.5718 123.069C34.9812 123.812 34.6542 124.944 34.0021 124.966C33.9121 124.968 33.8234 124.942 33.7472 124.891C33.671 124.84 33.6107 124.766 33.574 124.679L33.5684 124.65"
        fill="#F7BCAA" />
    <path fill-rule="evenodd" clip-rule="evenodd"
        d="M36.619 121.537C37.0811 117.498 37.9137 114.247 37.5243 109.523C40.0854 104.045 41.4888 98.9682 37.8362 95.6318C36.4394 95.6008 35.1599 95.4094 34.8376 95.1689C34.074 98.1867 33.2821 104.086 33.1602 106.014C33.2093 108.277 34.6665 113.536 35.4613 121.514L36.619 121.537Z"
        fill="#F7BCAA" />
    <path fill-rule="evenodd" clip-rule="evenodd"
        d="M41.7722 94.999C41.0851 95.507 39.3879 95.6683 37.8352 95.6322L36.3477 106.689C38.5969 112.108 41.2534 115.455 43.0442 121.433L44.1849 121.256C44.0129 118.379 42.6029 110.848 41.5803 108.332C43.5507 104.925 46.022 99.0398 41.7693 94.999"
        fill="#F7BCAA" />
    <path fill-rule="evenodd" clip-rule="evenodd"
        d="M34.8377 95.1695C35.5172 95.6775 40.4682 95.964 41.7733 95.0002C41.625 93.0144 41.9245 87.2694 41.8537 85.3998L41.4076 82.9381L39.9617 80.8561L38.8277 80.3291C35.9302 81.307 34.4039 82.9151 34.2404 85.479C34.0599 88.3164 34.764 90.2822 34.8339 95.1665"
        fill="white" />
    <path d="M39.0837 78.749H37.3193V81.0294H39.0837V78.749Z" fill="url(#paint2_linear_217_3255)" />
    <path fill-rule="evenodd" clip-rule="evenodd"
        d="M37.3193 80.1176C37.9072 80.0064 38.3768 79.4904 38.6358 79.1367C39.1584 77.9645 39.062 75.7993 37.6822 75.3214C37.2022 75.1541 36.3592 75.1401 35.7449 75.6571C35.6296 75.7743 35.1278 76.4506 35.3886 77.8833C35.6495 79.3161 36.2845 80.2489 37.2362 80.1326L37.3156 80.1206"
        fill="#F7BCAA" />
    <path fill-rule="evenodd" clip-rule="evenodd"
        d="M38.5918 80.8191C37.2064 84.6324 40.3874 93.9904 37.9473 103.79C40.0367 103.959 43.3056 103.66 44.5474 102.506C44.5134 99.5129 43.6251 83.2588 41.2058 81.0015C40.2758 80.2911 39.4045 80.221 38.5956 80.8191"
        fill="#F49726" />
    <path fill-rule="evenodd" clip-rule="evenodd"
        d="M34.6508 91.2945L34.8133 91.1863L34.5289 85.5445L31.6342 84.9043L31.4717 85.0125L31.8043 90.7675L34.6508 91.2945Z"
        fill="#603EAE" />
    <path fill-rule="evenodd" clip-rule="evenodd"
        d="M31.4717 85.0127L34.3654 85.6529L34.6508 91.2947L31.8043 90.7677L31.4717 85.0127Z" fill="#603EAE" />
    <path fill-rule="evenodd" clip-rule="evenodd"
        d="M31.2451 87.8472C31.3746 87.7931 32.0172 87.246 32.0834 87.2621C32.1495 87.2781 32.279 88.276 32.2308 88.4644C32.1826 88.6527 31.6298 89.1657 31.2981 89.0805C31.2234 89.0415 31.2451 87.8442 31.2451 87.8442"
        fill="#F7BCAA" />
    <path fill-rule="evenodd" clip-rule="evenodd"
        d="M39.0439 79.9781C39.3114 80.3528 39.611 80.7465 39.5864 81.1233C39.5864 81.1683 39.5807 81.2134 39.576 81.2585C39.8198 81.7364 39.9209 82.3406 39.9257 82.9528L41.4075 82.9407C41.691 82.6933 41.9499 82.4107 42.2193 82.1242C40.9397 80.3878 40.866 77.1426 39.5552 75.2109C38.4996 73.6579 36.0671 73.691 35.122 75.5826C33.9322 77.9642 34.2819 82.4468 36.7154 81.0561C36.9186 80.9627 37.1277 80.8841 37.341 80.8207L37.3193 80.1123L37.2361 80.1324C36.2807 80.2516 35.6446 79.3188 35.3848 77.886C35.1249 76.4533 35.6257 75.782 35.741 75.6598C37.6047 74.5126 38.4174 76.9623 38.5119 77.7528C38.5828 77.8981 38.6206 78.374 38.63 79.0052C38.7056 78.905 38.7699 78.8188 38.819 78.7517C38.9382 79.1508 39.0124 79.5635 39.0402 79.9811"
        fill="#941A4D" />
    <path fill-rule="evenodd" clip-rule="evenodd"
        d="M37.3468 116.612C37.6001 114.449 37.7475 112.228 37.5244 109.523L36.3479 106.689L37.8363 95.6318C37.2677 95.6212 36.6999 95.5797 36.1352 95.5076C35.5002 95.4234 35.0173 95.3072 34.8368 95.1689C34.3567 97.0726 33.8643 100.108 33.5354 102.583C33.3417 104.041 33.2047 105.301 33.1574 106.016C33.1225 108.007 33.8785 116.267 33.5884 117.629C34.0543 117.611 34.5175 117.544 34.971 117.429C35.7838 117.235 36.5782 116.962 37.3439 116.614"
        fill="#7D9E98" />
    <path fill-rule="evenodd" clip-rule="evenodd"
        d="M37.8333 110.19C38.1829 111.286 40.0872 116.766 40.1117 117.897C40.5161 117.863 40.9174 117.796 41.312 117.696C42.1061 117.5 42.8733 117.197 43.5952 116.795C43.0499 113.61 42.2353 109.941 41.5803 108.328C42.4158 106.888 43.34 104.999 43.805 102.994L43.8276 102.982C42.3156 103.739 39.7092 103.93 37.9467 103.784C38.6422 100.986 38.8804 98.2251 38.8983 95.6191C38.5458 95.6322 38.1867 95.6342 37.8361 95.6262L36.3477 106.689L37.5242 109.524L37.8333 110.19Z"
        fill="#8EABA6" />
    <path fill-rule="evenodd" clip-rule="evenodd"
        d="M36.5098 75.3667C36.7725 75.2946 37.6155 75.7364 37.7175 76.2764C37.8035 76.7343 37.3934 77.3074 37.5814 77.9797C37.9046 79.1229 38.792 79.3283 38.8317 80.3372C38.8535 80.9043 38.2411 81.4393 38.2354 82.0225C38.2279 82.7649 38.5416 82.6807 38.57 83.3991C38.5936 84.0093 37.7043 85.1785 37.7676 86.7124C37.8054 87.6442 38.448 88.7163 39.1852 89.1972L41.0469 90.7732C41.0469 90.7732 41.2359 87.9177 41.3304 87.3867C41.4249 86.8557 41.6527 85.461 41.6139 85.1304C41.5752 84.7998 41.2057 80.7831 41.2057 80.7831L40.5536 79.681L37.8687 75.0461L36.6714 74.8457L36.5098 75.3667Z"
        fill="#941A4D" />
    <path fill-rule="evenodd" clip-rule="evenodd"
        d="M39.614 75.3037C40.2037 76.1974 40.595 77.6462 41.0959 78.3025C41.3652 78.6551 42.2299 78.6792 42.5446 79.5739C42.8593 80.4686 42.4652 80.9375 42.5654 81.5647C42.6656 82.1919 43.5322 82.4855 43.6909 83.3982C43.7798 83.8992 43.6257 84.1767 43.6815 84.6195C43.7372 85.0624 44.6709 85.4101 44.6133 86.6344C44.5726 87.483 44.0841 88.4188 43.4348 88.8196C42.9122 85.1245 42.1827 81.9144 41.2017 81.0046C40.7377 80.65 40.2879 80.4546 39.8541 80.4225C39.7161 80.1079 39.5829 79.9135 39.5876 79.6019C39.5923 79.2903 38.5537 76.2365 38.5537 76.2365L39.614 75.3037Z"
        fill="#941A4D" />
    <path fill-rule="evenodd" clip-rule="evenodd"
        d="M41.1937 81.4532C41.704 81.4271 43.2095 82.7887 42.9392 87.8013C42.8806 89.8974 42.3826 93.1857 41.2826 93.1055C40.1825 93.0253 34.8809 88.9385 34.8809 88.9385C34.4745 89.3393 33.2743 89.0798 33.1647 88.8383C33.0702 88.5568 32.9624 87.6891 32.9482 87.5268C33.1996 87.8464 34.4471 88.0919 34.5954 87.6711C34.8015 87.7282 39.7677 89.0327 39.7677 89.0327C39.452 87.7783 38.696 81.5784 41.1937 81.4512"
        fill="#F7BCAA" />
    <path fill-rule="evenodd" clip-rule="evenodd"
        d="M41.1931 81.4525C41.6722 81.4285 43.0302 82.6288 42.9688 86.933C41.8348 87.1184 40.2159 86.9751 39.4599 86.8178C39.2926 84.5615 39.4599 81.5407 41.1931 81.4525"
        fill="white" />
    <path fill-rule="evenodd" clip-rule="evenodd"
        d="M12.5086 195.341L11.9104 197.245C11.9104 197.245 10.7707 197.445 10.2793 196.593L10.7036 194.777L12.4623 195.321L12.5086 195.341Z"
        fill="#FAA098" />
    <path fill-rule="evenodd" clip-rule="evenodd"
        d="M12.0351 197.011L11.9982 196.968L11.9103 197.246C11.8564 197.255 11.8022 197.26 11.7478 197.263C11.8192 197.261 11.8905 197.255 11.9613 197.244L12.0351 197.011ZM10.334 196.355L10.0883 196.405L8.81152 198.854C8.81152 198.854 9.10071 199.591 10.0854 199.756C11.0702 199.921 13.8051 200.247 13.8051 200.247L13.9251 199.281L12.0351 197.011L11.9613 197.244C11.8905 197.255 11.8192 197.261 11.7478 197.263C11.4151 197.282 10.6562 197.247 10.2792 196.594L10.334 196.355Z"
        fill="#194294" />
    <path fill-rule="evenodd" clip-rule="evenodd"
        d="M12.1528 197.333C13.2273 196.018 16.8516 184.896 17.4687 181.273C19.2964 173.908 17.446 172.184 13.1054 170.621C12.1604 170.556 11.4214 170.465 10.6285 170.837C10.8128 174.21 11.4176 177.728 12.7076 180.94C11.9515 183.569 10.723 194.118 10.1475 196.73L12.1528 197.333Z"
        fill="#E5F2FC" />
    <path fill-rule="evenodd" clip-rule="evenodd"
        d="M22.4186 145.914C22.5225 145.492 22.4696 144.151 22.3042 143.863C22.1388 143.576 21.4679 143.906 21.4093 143.956C21.3507 144.007 21.0672 144.219 20.9972 144.394C20.9111 144.655 20.8633 144.929 20.8555 145.206C20.8555 145.436 20.9556 146.067 21.0379 146.124C21.1292 146.182 21.2288 146.223 21.3327 146.248C21.4036 146.261 22.4186 145.914 22.4186 145.914Z"
        fill="#E68178" />
    <path fill-rule="evenodd" clip-rule="evenodd"
        d="M24.6677 145.334C24.1688 145.275 23.3503 144.564 23.0734 143.731C22.7965 142.899 24.3814 143.094 24.4693 143.107C24.5572 143.12 24.9229 143.069 24.9758 143.275C25.0395 143.503 25.0714 143.739 25.0703 143.977C25.0703 144.283 24.6677 145.334 24.6677 145.334Z"
        fill="#E68178" />
    <path fill-rule="evenodd" clip-rule="evenodd"
        d="M18.417 146.418L19.053 147.319L29.2415 139.964C29.5363 138.329 27.5404 135.783 25.6843 135.669L18.417 146.418Z"
        fill="#FFB700" />
    <path fill-rule="evenodd" clip-rule="evenodd"
        d="M21.2792 195.554L21.3529 197.558C21.3529 197.558 20.3531 198.171 19.6093 197.558L19.4033 195.7L21.2291 195.552L21.2792 195.554Z"
        fill="#FAA098" />
    <path fill-rule="evenodd" clip-rule="evenodd"
        d="M21.3916 197.296L21.3424 197.269L21.3538 197.562C21.3538 197.562 21.299 197.595 21.2064 197.638C21.2729 197.609 21.3376 197.576 21.4001 197.538L21.3916 197.296ZM19.5828 197.318L19.3683 197.456L18.9902 200.225C18.9902 200.225 19.5062 200.806 20.4825 200.593C21.4587 200.38 24.1265 199.661 24.1265 199.661L23.9167 198.712L21.3925 197.296L21.401 197.541C21.3386 197.579 21.2739 197.612 21.2073 197.641C20.9021 197.785 20.181 198.036 19.6102 197.565L19.5828 197.318Z"
        fill="#194294" />
    <path fill-rule="evenodd" clip-rule="evenodd"
        d="M12.751 171.141C13.6667 175.771 17.2872 179.402 18.3012 183.221C18.3012 185.899 19.0667 195.067 19.1602 197.693L21.5984 197.564C21.7638 196.908 24.0716 183.562 23.789 181.093C23.3742 177.465 22.7334 175.332 21.0314 170.185C18.2152 171.186 14.9832 171.295 12.751 171.141"
        fill="#F6FBFF" />
    <path fill-rule="evenodd" clip-rule="evenodd"
        d="M19.4805 153.072C20.2459 152.671 21.7306 148.926 21.0946 146.404C20.6741 146.203 20.2875 145.587 20.2866 145.136C20.2866 144.784 20.6079 144.596 20.8583 144.916C21.088 145.21 21.2137 145.763 21.4707 145.718L22.0812 145.358L22.4186 145.912C22.7787 146.633 23.5129 149.235 22.9214 152.398L19.4805 153.072Z"
        fill="#E68178" />
    <path fill-rule="evenodd" clip-rule="evenodd"
        d="M14.6309 151.121L14.6413 153.025L17.2354 152.607L17.2458 151.515C19.2237 151.268 18.3997 147.901 17.8979 146.873L15.8282 147.407L14.6309 151.121Z"
        fill="#FAA098" />
    <path fill-rule="evenodd" clip-rule="evenodd"
        d="M16.6658 150.702C16.4702 151.516 15.872 152.058 15.1037 152.005C14.204 151.947 13.5765 151.011 13.224 149.871C12.6778 148.104 13.0813 145.832 15.8039 145.478C15.9325 144.837 16.5713 144.202 17.3774 144.577C18.1835 144.951 18.761 146.58 17.1478 147.789C16.9796 148.347 16.9125 149.499 17.0249 150.045C16.7112 149.274 16.3691 149.119 16.095 149.398C15.821 149.676 16.112 150.491 16.662 150.7"
        fill="#194294" />
    <path fill-rule="evenodd" clip-rule="evenodd"
        d="M13.0089 171.16C15.2448 171.306 18.2151 171.133 21.0313 170.185C19.7715 161.15 21.0757 158.719 19.6364 154.023C18.5128 150.361 13.8584 152.467 12.8463 154.624C12.147 156.115 10.1889 163.174 10.6293 170.836C11.4138 171.006 12.2092 171.114 13.0089 171.159"
        fill="#FF8A8A" />
    <path fill-rule="evenodd" clip-rule="evenodd"
        d="M15.6366 155.624C15.7188 156.236 16.3425 158.358 19.4999 157.997C22.6573 157.635 26.4724 155.862 26.8485 151.366C27.0848 148.269 25.9555 145.036 25.9555 145.036C26.7115 144.234 26.2513 140.756 24.7118 140.928C23.642 141.093 23.4974 144.879 24.6646 145.337C24.7411 145.805 25.1541 151.842 22.1385 152.466C19.1228 153.09 15.4013 151.842 15.6366 155.626"
        fill="#FAA098" />
    <path fill-rule="evenodd" clip-rule="evenodd"
        d="M15.6366 155.624C15.7188 156.236 16.3426 158.358 19.4999 157.997C20.2656 157.909 21.0213 157.741 21.7557 157.496C20.4374 156.794 20.1104 153.765 20.6453 152.646C18.0266 152.814 15.4391 152.446 15.6366 155.621"
        fill="#FF8A8A" />
    <path fill-rule="evenodd" clip-rule="evenodd"
        d="M25.7373 135.747C26.0624 135.806 28.9202 136.769 29.1394 139.874C27.3666 139.593 25.9017 136.775 25.7373 135.747Z"
        fill="#CF9910" />
    <defs>
        <linearGradient id="paint0_linear_217_3255" x1="178.919" y1="65.0744" x2="181.369" y2="63.5664"
            gradientUnits="userSpaceOnUse">
            <stop stop-color="#F0B19C" />
            <stop offset="1" stop-color="#F5BCA9" />
        </linearGradient>
        <linearGradient id="paint1_linear_217_3255" x1="11574.5" y1="6521.57" x2="11477.9" y2="6419.2"
            gradientUnits="userSpaceOnUse">
            <stop stop-color="#F0B19C" />
            <stop offset="1" stop-color="#F5BCA9" />
        </linearGradient>
        <linearGradient id="paint2_linear_217_3255" x1="38.2029" y1="79.7279" x2="38.1944" y2="80.6306"
            gradientUnits="userSpaceOnUse">
            <stop stop-color="#F0A993" />
            <stop offset="1" stop-color="#F7BCAA" />
        </linearGradient>
    </defs>
</svg>