<svg width="25" height="25" viewBox="0 0 25 25" fill="none" xmlns="http://www.w3.org/2000/svg">
  <path
    d="M23.5399 0.0866699H1.45988C0.928878 0.0866699 0.499878 0.51567 0.499878 1.04667V23.1267C0.499878 23.6577 0.928878 24.0867 1.45988 24.0867H23.5399C24.0709 24.0867 24.4999 23.6577 24.4999 23.1267V1.04667C24.4999 0.51567 24.0709 0.0866699 23.5399 0.0866699ZM22.5799 22.1667H17.0569V14.7927H20.1769L20.6449 11.1717H17.0569V8.85867C17.0569 7.80867 17.3479 7.09467 18.8509 7.09467H20.7679V3.85467C20.4349 3.80967 19.2979 3.71067 17.9719 3.71067C15.2059 3.71067 13.3129 5.39967 13.3129 8.49867V11.1687H10.1869V14.7897H13.3159V22.1667H2.41988V2.00667H22.5799V22.1667Z"
    fill="#8A91A8" />
</svg>