<svg width="27" height="24" viewBox="0 0 27 24" fill="none" xmlns="http://www.w3.org/2000/svg">
  <path
    d="M1.49988 19.7785C2.71819 20.4524 11.5363 25.5353 17.8072 21.6176C24.0776 17.7 23.7315 10.9503 23.7315 7.8568C24.2999 6.66691 25.4999 6.06185 25.4999 2.8408C24.3214 3.92964 23.1498 4.29975 21.9851 3.95238C20.8445 2.21301 19.275 1.44312 17.2761 1.64396C14.2786 1.94522 13.1822 4.88585 13.5049 8.69112C8.88304 11.028 5.25904 6.99659 3.39083 3.95238C2.76683 6.34985 2.16556 9.22859 3.39083 12.4124C4.20809 14.5357 6.17293 16.3301 9.28409 17.7972C6.13062 19.5056 3.53609 20.1669 1.49988 19.7785Z"
    stroke="#8A91A8" stroke-width="1.68421" stroke-linejoin="round" />
</svg>
