<svg width="31" height="29" viewBox="0 0 31 29" fill="none" xmlns="http://www.w3.org/2000/svg">
    <path
        d="M4.98047 4.48231C4.98047 3.9845 4.98047 3.36225 5.10492 2.86445C5.35382 1.61994 6.34943 0.74878 7.46949 0.499878L18.0478 0.499878C23.0259 0.997682 26.8838 5.22901 26.8838 10.3315V19.1675C26.8838 20.6609 25.8882 21.9054 24.3948 22.1543C23.897 22.1543 23.2748 22.2788 22.777 22.2788C12.9453 22.2788 4.98047 14.3139 4.98047 4.48231Z"
        fill="black" />
    <path
        d="M30.9905 8.96132V24.5177C30.9905 26.3844 29.4971 28.0023 27.5059 28.3757C27.257 28.5001 26.8836 28.5001 26.6347 28.5001H13.6918C6.3492 28.5001 0.5 23.0243 0.5 16.4284L0.5 4.48108C0.5 4.23218 0.5 3.85883 0.624451 3.60993C0.748902 2.98767 0.997803 2.48987 1.49561 1.99207C1.49561 2.24097 1.49561 2.48987 1.49561 2.73877C1.49561 15.8061 11.825 26.26 24.519 26.26C25.2657 26.26 25.888 26.26 26.6347 26.1355C28.5015 25.7622 29.8704 24.0199 29.8704 22.1531V4.60553C30.6171 5.97449 30.9905 7.34345 30.9905 8.96132Z"
        fill="#0078FF" />
    <path
        d="M26.8838 10.456V19.292C26.8838 20.7854 25.8882 22.0299 24.3948 22.2788C23.897 22.2788 23.2748 22.4032 22.777 22.4032C12.9453 22.4032 4.98047 14.4384 4.98047 4.60676C4.98047 4.10895 4.98047 3.4867 5.10492 2.9889C5.35382 1.74439 6.34943 0.873231 7.46949 0.624329C7.71839 0.624329 7.84284 0.499878 8.09174 0.499878L16.9278 0.499878C17.3011 0.499878 17.6745 0.499878 18.0478 0.624329C23.0259 1.12213 26.8838 5.35346 26.8838 10.456Z"
        fill="black" />
    <path
        d="M26.8838 10.456V19.292C26.8838 20.7854 25.8882 22.0299 24.3948 22.2788C23.897 22.2788 23.2748 22.4032 22.777 22.4032C12.9453 22.4032 4.98047 14.4384 4.98047 4.60676C4.98047 4.10895 4.98047 3.4867 5.10492 2.9889C5.35382 1.74439 6.34943 0.873231 7.46949 0.624329C7.71839 0.624329 7.84284 0.499878 8.09174 0.499878L16.9278 0.499878C17.3011 0.499878 17.6745 0.499878 18.0478 0.624329C23.0259 1.12213 26.8838 5.35346 26.8838 10.456Z"
        fill="#0078FF" />
</svg>