<svg width="96" height="26" viewBox="0 0 96 26" fill="none" xmlns="http://www.w3.org/2000/svg">
    <path
        d="M36.7544 21.0155C36.442 21.0155 36.1296 21.0155 35.7132 21.0155C35.2967 21.0155 34.9843 21.0155 34.5678 20.9113C34.1513 20.9113 33.7349 20.8072 33.3184 20.7031C32.9019 20.599 32.5895 20.4949 32.173 20.3907C31.2359 20.0784 30.7153 19.4536 30.7153 18.5166L30.7153 6.54258C30.7153 6.23021 30.8195 5.91785 31.0277 5.70961C31.2359 5.50136 31.4442 5.39724 31.8607 5.189C32.5895 4.98076 33.4225 4.77251 34.2555 4.66839C35.0884 4.66839 35.8173 4.56427 36.442 4.56427C37.7956 4.56427 39.0451 4.77251 40.0863 5.08488C41.1275 5.39724 42.0646 5.91785 42.8975 6.54258C43.7305 7.27143 44.2511 8.1044 44.6676 9.14562C45.0841 10.1868 45.2923 11.4363 45.2923 12.7899C45.2923 14.1434 45.0841 15.3929 44.6676 16.4341C44.2511 17.4753 43.6264 18.3083 42.8975 19.0372C42.1687 19.766 41.2316 20.2866 40.1904 20.599C39.2533 20.9113 38.0038 21.0155 36.7544 21.0155ZM35.2967 17.2671C35.5049 17.2671 35.7132 17.3712 36.0255 17.3712C36.3379 17.3712 36.5461 17.3712 36.7544 17.3712C37.3791 17.3712 37.8997 17.2671 38.3162 17.163C38.8368 16.9547 39.2533 16.7465 39.5657 16.33C39.878 16.0176 40.1904 15.497 40.3986 14.9764C40.6069 14.3517 40.711 13.727 40.711 12.894C40.711 11.3322 40.3986 10.1868 39.6698 9.35386C38.9409 8.52089 38.0038 8.20852 36.7544 8.20852C36.5461 8.20852 36.2338 8.20852 36.0255 8.20852C35.8173 8.20852 35.5049 8.20852 35.2967 8.31265V17.2671Z"
        fill="white" />
    <path
        d="M47.5831 4.66839C47.5831 4.04366 47.7914 3.41893 48.2079 3.00245C48.6243 2.58596 49.2491 2.37772 49.9779 2.37772C50.7068 2.37772 51.2274 2.58596 51.748 3.00245C52.1645 3.41893 52.3727 4.04366 52.3727 4.66839C52.3727 5.29312 52.1645 5.91785 51.748 6.33433C51.3315 6.75082 50.7068 6.95906 49.9779 6.95906C49.2491 6.95906 48.7285 6.75082 48.2079 6.33433C47.7914 5.81373 47.5831 5.29312 47.5831 4.66839ZM51.3315 20.7031C51.0191 20.7031 50.8109 20.8072 50.6027 20.8072C50.082 20.8072 49.5614 20.8072 49.2491 20.7031C48.9367 20.7031 48.7285 20.599 48.5202 20.3907C48.312 20.1825 48.1037 19.9743 47.9996 19.766C47.8955 19.4536 47.7914 19.1413 47.7914 18.7248L47.7914 8.31264C47.9996 8.31264 48.2079 8.20852 48.6243 8.20852C48.8326 8.20852 49.145 8.1044 49.3532 8.1044C49.8738 8.1044 50.3944 8.1044 50.7068 8.20852C51.0191 8.20852 51.2274 8.31264 51.4356 8.52089C51.6439 8.62501 51.8521 8.93737 51.9562 9.14561C52.0604 9.45798 52.1645 9.77034 52.1645 10.1868V19.8701C52.1645 20.2866 51.748 20.7031 51.3315 20.7031Z"
        fill="white" />
    <path
        d="M61.0147 7.68799C61.9518 7.68799 62.8889 7.79211 63.7219 8.10447C64.5549 8.31272 65.1796 8.62508 65.7002 9.04157C66.0126 9.24981 66.3249 9.56218 66.5332 9.87454C66.7414 10.1869 66.8455 10.4993 66.8455 11.0199V20.0784C66.8455 21.0155 66.6373 21.7444 66.3249 22.4732C66.0126 23.098 65.492 23.7227 64.9713 24.1392C64.3466 24.5557 63.7219 24.868 62.8889 25.0763C62.0559 25.2845 61.223 25.3886 60.2859 25.3886C58.7241 25.3886 57.4746 25.1804 56.6416 24.7639C55.7045 24.3474 55.288 23.6186 55.288 22.6815C55.288 22.265 55.3922 21.9526 55.4963 21.6403C55.7045 21.3279 55.8087 21.1197 56.0169 20.9114C56.5375 21.2238 57.0581 21.432 57.6828 21.6403C58.3076 21.8485 58.9323 21.9526 59.6611 21.9526C60.5982 21.9526 61.3271 21.8485 61.8477 21.5361C62.3683 21.2238 62.6807 20.7032 62.6807 20.0784V19.662C61.9518 19.9743 61.1188 20.0784 60.0776 20.0784C59.3488 20.0784 58.6199 19.9743 57.8911 19.7661C57.1622 19.5578 56.5375 19.1414 56.0169 18.7249C55.4963 18.2043 55.0798 17.5795 54.7674 16.8507C54.4551 16.1218 54.2468 15.1847 54.2468 14.1435C54.2468 13.1023 54.4551 12.1652 54.7674 11.4364C55.0798 10.7075 55.6004 9.97866 56.121 9.56218C56.7457 9.04157 57.3705 8.7292 58.2034 8.41684C59.1405 7.89623 60.0776 7.68799 61.0147 7.68799ZM62.5765 11.4364C62.4724 11.3322 62.2642 11.3322 62.0559 11.2281C61.8477 11.124 61.5353 11.124 61.223 11.124C60.39 11.124 59.7653 11.3322 59.3488 11.8528C58.9323 12.3735 58.7241 12.9982 58.7241 13.8312C58.7241 14.8724 58.9323 15.4971 59.3488 16.0177C59.7653 16.4342 60.2859 16.6424 60.9106 16.6424C61.6395 16.6424 62.1601 16.4342 62.5765 16.1218V11.4364Z"
        fill="white" />
    <path
        d="M69.4487 4.66839C69.4487 4.04366 69.657 3.41893 70.0735 3.00245C70.49 2.58596 71.1147 2.37772 71.8435 2.37772C72.5724 2.37772 73.093 2.58596 73.6136 3.00245C74.0301 3.41893 74.2383 4.04366 74.2383 4.66839C74.2383 5.29312 74.0301 5.91785 73.6136 6.33433C73.1971 6.75082 72.5724 6.95906 71.8435 6.95906C71.1147 6.95906 70.5941 6.75082 70.0735 6.33433C69.657 5.81373 69.4487 5.29312 69.4487 4.66839ZM73.1971 20.7031C72.8847 20.7031 72.6765 20.8072 72.4683 20.8072C71.9476 20.8072 71.427 20.8072 71.1147 20.7031C70.8023 20.7031 70.5941 20.599 70.3858 20.3907C70.1776 20.2866 69.9693 19.9743 69.8652 19.766C69.7611 19.4536 69.657 19.1413 69.657 18.7248V8.31264C69.8652 8.31264 70.0735 8.20852 70.4899 8.20852C70.6982 8.20852 71.0106 8.1044 71.2188 8.1044C71.7394 8.1044 72.26 8.1044 72.5724 8.20852C72.8847 8.20852 73.093 8.31264 73.3012 8.52089C73.5095 8.62501 73.7177 8.93737 73.8218 9.14561C73.926 9.45798 74.0301 9.77034 74.0301 10.1868V19.8701C74.0301 20.2866 73.6136 20.7031 73.1971 20.7031Z"
        fill="white" />
    <path
        d="M76.8413 8.10424C76.8413 7.27127 76.9454 6.4383 77.2578 5.81357C77.5702 5.18884 77.9866 4.66823 78.5073 4.25175C79.0279 3.83526 79.6526 3.5229 80.2773 3.31465C81.0062 3.10641 81.735 3.00229 82.4639 3.00229C83.7133 3.00229 84.6504 3.21053 85.2752 3.5229C85.8999 3.83526 86.2122 4.45999 86.2122 5.18884C86.2122 5.50121 86.1081 5.81357 86.004 6.12593C85.8999 6.4383 85.6916 6.64654 85.4834 6.75066C85.171 6.64654 84.8587 6.54242 84.4422 6.54242C84.2339 6.64654 83.8174 6.64654 83.2968 6.64654C82.568 6.64654 81.9433 6.75066 81.5268 7.06303C81.1103 7.27127 80.902 7.79188 80.902 8.31249V9.14546L85.171 9.14546C85.2752 9.3537 85.3793 9.56194 85.4834 9.87431C85.5875 10.1867 85.5875 10.499 85.5875 10.8114C85.5875 11.4361 85.4834 11.8526 85.171 12.0609C84.8587 12.3732 84.5463 12.4773 84.1298 12.4773H81.2144V19.87C81.2144 20.2865 80.902 20.7029 80.3814 20.8071C79.9649 20.8071 79.6526 20.9112 79.2361 20.9112C78.8196 20.9112 78.5073 20.9112 78.1949 20.8071C77.8825 20.8071 77.6743 20.7029 77.466 20.4947C77.2578 20.3906 77.0496 20.0782 76.9454 19.87C76.8413 19.5576 76.7372 19.2452 76.7372 18.8288V8.10424H76.8413Z"
        fill="white" />
    <path
        d="M92.1471 16.3299C92.1471 16.7464 92.2513 17.0588 92.5636 17.267C92.876 17.4752 93.2925 17.5794 93.8131 17.5794C94.0213 17.5794 94.3337 17.5794 94.6461 17.4752H94.7502C95.1667 17.3711 95.5832 17.5794 95.6873 17.9959C95.7914 18.2041 95.8955 18.5165 95.8955 18.8288C95.8955 19.4536 95.6873 19.9742 95.1667 20.3906C94.6461 20.8071 93.8131 21.0154 92.5636 21.0154C91.0018 21.0154 89.8565 20.703 89.0235 19.9742C88.1905 19.2453 87.774 18.2041 87.774 16.6423V5.60539C87.9823 5.60539 88.1905 5.50127 88.607 5.39715C88.9194 5.29303 89.3359 5.29303 89.7524 5.29303C90.4812 5.29303 91.1059 5.39715 91.5224 5.70952C91.9389 6.02188 92.1471 6.54249 92.1471 7.37546V9.0414L94.8543 9.0414C95.2708 9.0414 95.6873 9.35377 95.8955 9.77025C95.9996 10.0826 95.9996 10.395 95.9996 10.7073C95.9996 11.3321 95.8955 11.7486 95.5832 11.9568C95.2708 12.2692 94.9584 12.3733 94.5419 12.3733L92.1471 12.3733V16.3299Z"
        fill="white" />
    <path
        d="M3.74805 3.93952C3.74805 3.52304 3.74805 3.00243 3.85217 2.58594C4.06041 1.54473 4.89338 0.815879 5.83048 0.607635L14.6808 0.607635C18.8457 1.02412 22.0734 4.56425 22.0734 8.83324V16.2259C22.0734 17.4753 21.2405 18.5165 19.991 18.7248C19.5745 18.7248 19.0539 18.8289 18.6374 18.8289C10.4118 18.8289 3.74805 12.1651 3.74805 3.93952Z"
        fill="url(#paint0_linear_5373_21484)" />
    <path
        d="M25.5094 7.68786L25.5094 20.703C25.5094 22.2649 24.2599 23.6185 22.594 23.9308C22.3858 24.0349 22.0734 24.0349 21.8652 24.0349H11.0365C4.89335 24.0349 -0.000366211 19.4536 -0.000366211 13.9352L-0.000366211 3.93949C-0.000366211 3.73124 -0.000365815 3.41888 0.103756 3.21063C0.207877 2.69003 0.416119 2.27354 0.832605 1.85706C0.832605 2.0653 0.832605 2.27354 0.832605 2.48178C0.832605 13.4145 9.47469 22.1607 20.0951 22.1607C20.7198 22.1607 21.2404 22.1607 21.8652 22.0566C23.427 21.7443 24.5723 20.2866 24.5723 18.7247L24.5723 4.04361C25.197 5.18894 25.5094 6.33428 25.5094 7.68786Z"
        fill="url(#paint1_linear_5373_21484)" />
    <path
        d="M22.0734 8.93736V16.33C22.0734 17.5794 21.2405 18.6207 19.991 18.8289C19.5745 18.8289 19.0539 18.933 18.6374 18.933C10.4118 18.933 3.74805 12.2692 3.74805 4.04365C3.74805 3.62716 3.74805 3.10655 3.85217 2.69007C4.06041 1.64885 4.89338 0.92 5.83048 0.711757C6.03872 0.711757 6.14284 0.607635 6.35108 0.607635L13.7437 0.607635C14.0561 0.607635 14.3684 0.607636 14.6808 0.711757C18.8457 1.12824 22.0734 4.66837 22.0734 8.93736Z"
        fill="white" />
    <path
        d="M22.0734 8.93736V16.33C22.0734 17.5794 21.2405 18.6207 19.991 18.8289C19.5745 18.8289 19.0539 18.933 18.6374 18.933C10.4118 18.933 3.74805 12.2692 3.74805 4.04365C3.74805 3.62716 3.74805 3.10655 3.85217 2.69007C4.06041 1.64885 4.89338 0.92 5.83048 0.711757C6.03872 0.711757 6.14284 0.607635 6.35108 0.607635L13.7437 0.607635C14.0561 0.607635 14.3684 0.607636 14.6808 0.711757C18.8457 1.12824 22.0734 4.66837 22.0734 8.93736Z"
        fill="url(#paint2_linear_5373_21484)" />
    <defs>
        <linearGradient id="paint0_linear_5373_21484" x1="3.77824" y1="9.75054" x2="22.0476" y2="9.75054"
            gradientUnits="userSpaceOnUse">
            <stop offset="0.0137063" stop-color="#5AC8FA" />
            <stop offset="0.1956" stop-color="#44B4FB" />
            <stop offset="0.5419" stop-color="#1F94FD" />
            <stop offset="0.8224" stop-color="#087FFF" />
            <stop offset="1" stop-color="#0078FF" />
        </linearGradient>
        <linearGradient id="paint1_linear_5373_21484" x1="-0.00494756" y1="13.0291" x2="25.5603" y2="13.0291"
            gradientUnits="userSpaceOnUse">
            <stop offset="0.0137063" stop-color="#5AC8FA" />
            <stop offset="0.1956" stop-color="#44B4FB" />
            <stop offset="0.5419" stop-color="#1F94FD" />
            <stop offset="0.8224" stop-color="#087FFF" />
            <stop offset="1" stop-color="#0078FF" />
        </linearGradient>
        <linearGradient id="paint2_linear_5373_21484" x1="3.77824" y1="9.72399" x2="22.0476" y2="9.72399"
            gradientUnits="userSpaceOnUse">
            <stop stop-color="#0078FF" />
            <stop offset="0.327" stop-color="#325EFF" />
            <stop offset="0.6177" stop-color="#574AFF" />
            <stop offset="0.8518" stop-color="#6E3EFF" />
            <stop offset="1" stop-color="#763AFF" />
        </linearGradient>
    </defs>
</svg>