<svg width="88" height="28" viewBox="0 0 88 28" fill="none" xmlns="http://www.w3.org/2000/svg">
    <path
        d="M0 14C0 6.26801 6.26801 0 14 0L74 0C81.732 0 88 6.26801 88 14C88 21.732 81.732 28 74 28L14 28C6.26802 28 0 21.732 0 14Z"
        fill="#FFF7EB" />
    <path
        d="M26.412 10.552H23.268V19H24.516V15.832H26.604C28.644 15.832 29.604 14.704 29.604 13.192C29.604 11.68 28.788 10.552 26.412 10.552ZM26.592 14.776H24.516V11.608H26.592C27.756 11.608 28.356 12.196 28.356 13.192C28.356 14.092 27.756 14.776 26.592 14.776ZM35.7048 15.844C35.7048 13.66 34.2768 12.76 32.9088 12.76C31.1448 12.76 29.9448 14.08 29.9448 15.928C29.9448 17.668 31.0008 19.096 32.9328 19.096C34.5048 19.096 35.3448 18.064 35.5968 16.924H34.4088C34.1928 17.632 33.7848 18.04 32.9568 18.04C31.8408 18.04 31.1688 17.248 31.0848 16.264H35.6688C35.6928 16.132 35.7048 16.012 35.7048 15.844ZM31.1448 15.304C31.3128 14.476 31.8168 13.768 32.9688 13.768C33.9048 13.768 34.4808 14.404 34.5528 15.304H31.1448ZM39.7166 12.76C38.6126 12.76 37.8326 13.624 37.5926 14.224C37.5686 14.272 37.5326 14.356 37.4606 14.332C37.3646 14.308 37.4126 14.188 37.4486 14.08C37.5566 13.768 37.5806 13.516 37.5806 13.264V12.856H36.4286V19H37.5806V16.132C37.5806 14.668 38.5406 13.768 39.4286 13.768C40.2326 13.768 40.8446 14.164 40.8446 15.592V19H41.9966V15.352C41.9966 13.552 41.1326 12.76 39.7166 12.76ZM47.5187 10.36V13.336C47.5187 13.564 47.5427 13.744 47.6387 13.996C47.6747 14.092 47.7467 14.212 47.6387 14.248C47.5427 14.284 47.5067 14.164 47.4947 14.128C47.2187 13.3 46.4147 12.76 45.4307 12.76C43.8347 12.76 42.7187 14.104 42.7187 15.928C42.7187 17.752 43.8347 19.096 45.4307 19.096C46.3907 19.096 47.2067 18.568 47.4947 17.704C47.5067 17.668 47.5427 17.572 47.6147 17.596C47.7347 17.632 47.6747 17.74 47.6387 17.836C47.5427 18.1 47.5187 18.268 47.5187 18.484V19H48.6707V10.36H47.5187ZM45.6707 18.04C44.4707 18.04 43.8707 17.068 43.8707 15.928C43.8707 14.788 44.4707 13.816 45.6707 13.816C46.7627 13.816 47.5187 14.788 47.5187 15.928C47.5187 17.068 46.7627 18.04 45.6707 18.04ZM49.8225 11.704H51.0705V10.36H49.8225V11.704ZM49.8705 19H51.0225V12.856H49.8705V19ZM55.5083 12.76C54.4043 12.76 53.6243 13.624 53.3843 14.224C53.3603 14.272 53.3243 14.356 53.2523 14.332C53.1563 14.308 53.2043 14.188 53.2403 14.08C53.3483 13.768 53.3723 13.516 53.3723 13.264V12.856H52.2203V19H53.3723V16.132C53.3723 14.668 54.3323 13.768 55.2203 13.768C56.0243 13.768 56.6363 14.164 56.6363 15.592V19H57.7883V15.352C57.7883 13.552 56.9243 12.76 55.5083 12.76ZM58.5104 15.88C58.5104 17.716 59.6264 19 61.2224 19C62.1824 19 62.8904 18.496 63.2864 17.668C63.2984 17.632 63.3344 17.536 63.4184 17.56C63.5264 17.596 63.4664 17.704 63.4184 17.812C63.3344 18.016 63.3104 18.184 63.3104 18.448C63.3104 19.804 62.6744 20.488 61.5104 20.488C60.1904 20.488 59.9264 19.876 59.8544 19.384H58.7024C58.8104 20.476 59.7104 21.4 61.5224 21.4C63.2504 21.4 64.4624 20.44 64.4624 18.448V12.856H63.3104V13.264C63.3104 13.552 63.3344 13.708 63.4184 13.924C63.4544 14.032 63.5384 14.164 63.4184 14.2C63.3464 14.224 63.2984 14.104 63.2864 14.068C62.9024 13.288 62.2064 12.76 61.2224 12.76C59.6264 12.76 58.5104 14.044 58.5104 15.88ZM61.4864 17.944C60.2984 17.944 59.6624 17.044 59.6624 15.88C59.6624 14.716 60.2984 13.816 61.4864 13.816C62.5784 13.816 63.3104 14.716 63.3104 15.88C63.3104 17.044 62.5784 17.944 61.4864 17.944Z"
        fill="#FFA51F" />
</svg>