<svg width="89" height="29" viewBox="0 0 89 29" fill="none" xmlns="http://www.w3.org/2000/svg">
    <path
        d="M0.5 14.1195C0.5 6.38752 6.76801 0.119507 14.5 0.119507L74.5 0.119507C82.232 0.119507 88.5 6.38752 88.5 14.1195V14.1195C88.5 21.8515 82.232 28.1195 74.5 28.1195L14.5 28.1195C6.76802 28.1195 0.5 21.8515 0.5 14.1195V14.1195Z"
        fill="#EBFFEB" />
    <path d="M13.375 13.8695L16.2714 16.766C16.4667 16.9612 16.7833 16.9612 16.9786 16.766L22.625 11.1195"
        stroke="#00A300" stroke-width="2" stroke-linecap="round" />
    <path
        d="M34.477 14.1395C32.761 13.9115 32.533 13.3955 32.533 12.8795C32.533 12.3275 32.941 11.6315 34.357 11.6315C35.737 11.6315 36.241 12.5195 36.241 13.2635H37.405C37.369 11.8955 36.457 10.5755 34.381 10.5755C32.425 10.5755 31.297 11.6315 31.297 12.9515C31.297 14.3915 32.389 15.0755 34.357 15.3155C36.013 15.5195 36.481 15.9275 36.481 16.6715C36.481 17.3075 36.025 18.1595 34.369 18.1595C32.677 18.1595 32.233 16.9835 32.209 16.1435H31.009C31.009 17.7035 32.029 19.2155 34.369 19.2155C36.589 19.2155 37.729 17.9675 37.729 16.5995C37.729 14.8235 36.337 14.3915 34.477 14.1395ZM40.7293 19.2155C41.8333 19.2155 42.5653 18.3275 42.8533 17.7515C42.8773 17.7035 42.9133 17.6195 42.9853 17.6435C43.0813 17.6795 43.0333 17.7875 42.9973 17.8955C42.8893 18.2075 42.8653 18.4595 42.8653 18.7115V19.1195H44.0173V12.9755H42.8653V15.8435C42.8653 17.3075 41.9053 18.2075 41.0173 18.2075C40.2133 18.2075 39.6013 17.8115 39.6013 16.3835V12.9755H38.4493V16.6235C38.4493 18.4235 39.3133 19.2155 40.7293 19.2155ZM44.7438 16.0475C44.7438 17.7875 45.8718 19.2155 47.7558 19.2155C49.4478 19.2155 50.3958 18.0755 50.5038 16.8155H49.3758C49.2678 17.5115 48.7398 18.1595 47.7678 18.1595C46.5918 18.1595 45.8958 17.1875 45.8958 16.0475C45.8958 14.9075 46.5918 13.9355 47.7678 13.9355C48.7398 13.9355 49.2678 14.5835 49.3758 15.2795H50.5038C50.3958 14.0195 49.4358 12.8795 47.7558 12.8795C45.8358 12.8795 44.7438 14.3075 44.7438 16.0475ZM51.0312 16.0475C51.0312 17.7875 52.1592 19.2155 54.0432 19.2155C55.7352 19.2155 56.6832 18.0755 56.7912 16.8155H55.6632C55.5552 17.5115 55.0272 18.1595 54.0552 18.1595C52.8792 18.1595 52.1832 17.1875 52.1832 16.0475C52.1832 14.9075 52.8792 13.9355 54.0552 13.9355C55.0272 13.9355 55.5552 14.5835 55.6632 15.2795H56.7912C56.6832 14.0195 55.7232 12.8795 54.0432 12.8795C52.1232 12.8795 51.0312 14.3075 51.0312 16.0475ZM63.0785 15.9635C63.0785 13.7795 61.6505 12.8795 60.2825 12.8795C58.5185 12.8795 57.3185 14.1995 57.3185 16.0475C57.3185 17.7875 58.3745 19.2155 60.3065 19.2155C61.8785 19.2155 62.7185 18.1835 62.9705 17.0435H61.7825C61.5665 17.7515 61.1585 18.1595 60.3305 18.1595C59.2145 18.1595 58.5425 17.3675 58.4585 16.3835H63.0425C63.0665 16.2515 63.0785 16.1315 63.0785 15.9635ZM58.5185 15.4235C58.6865 14.5955 59.1905 13.8875 60.3425 13.8875C61.2785 13.8875 61.8545 14.5235 61.9265 15.4235H58.5185ZM63.6059 16.9835C63.6659 18.3395 64.6139 19.2155 66.2819 19.2155C67.9619 19.2155 68.9819 18.4115 68.9819 17.1635C68.9819 16.1555 68.1659 15.6755 66.5099 15.4955C65.1779 15.3515 64.9499 15.0875 64.9499 14.6915C64.9499 14.2835 65.3099 13.8875 66.2819 13.8875C67.3619 13.8875 67.6259 14.5235 67.6619 14.9195H68.7899C68.7059 13.7675 67.8659 12.8795 66.3179 12.8795C64.6379 12.8795 63.7979 13.8515 63.7979 14.7755C63.7979 15.5795 64.3019 16.3115 65.9099 16.4795C67.3139 16.6235 67.8299 16.7915 67.8299 17.3435C67.8299 17.7395 67.5059 18.2075 66.3299 18.2075C65.1299 18.2075 64.7459 17.4515 64.7339 16.9835H63.6059ZM69.5065 16.9835C69.5665 18.3395 70.5145 19.2155 72.1825 19.2155C73.8625 19.2155 74.8825 18.4115 74.8825 17.1635C74.8825 16.1555 74.0665 15.6755 72.4105 15.4955C71.0785 15.3515 70.8505 15.0875 70.8505 14.6915C70.8505 14.2835 71.2105 13.8875 72.1825 13.8875C73.2625 13.8875 73.5265 14.5235 73.5625 14.9195H74.6905C74.6065 13.7675 73.7665 12.8795 72.2185 12.8795C70.5385 12.8795 69.6985 13.8515 69.6985 14.7755C69.6985 15.5795 70.2025 16.3115 71.8105 16.4795C73.2145 16.6235 73.7305 16.7915 73.7305 17.3435C73.7305 17.7395 73.4065 18.2075 72.2305 18.2075C71.0305 18.2075 70.6465 17.4515 70.6345 16.9835H69.5065Z"
        fill="#00A300" />
</svg>